# Generated by Shadows And Petals
mtllib material.mtl
o rockery
usemtl rockery
v 0.765625 0 0.015625
v 0.265625 0 0.015625
v 0.265625 0.1875 0.015625
vt 0.5625 0.7421875
vt 0.625 0.7421875
vt 0.625 0.765625
vn 0 0 -1
vn 0 0 -1
vn 0 0 -1
f 1/1/1 2/2/2 3/3/3
v 0.765625 0 0.015625
v 0.265625 0.1875 0.015625
v 0.765625 0.1875 0.015625
vt 0.5625 0.7421875
vt 0.625 0.765625
vt 0.5625 0.765625
vn 0 0 -1
vn 0 0 -1
vn 0 0 -1
f 4/4/4 5/5/5 6/6/6
v 0.765625 0 0.640625
v 0.765625 0 0.015625
v 0.765625 0.1875 0.015625
vt 0.2890625 0.4296875
vt 0.3671875 0.4296875
vt 0.3671875 0.453125
vn 1 0 0
vn 1 0 0
vn 1 0 0
f 7/7/7 8/8/8 9/9/9
v 0.765625 0 0.640625
v 0.765625 0.1875 0.015625
v 0.765625 0.1875 0.640625
vt 0.2890625 0.4296875
vt 0.3671875 0.453125
vt 0.2890625 0.453125
vn 1 0 0
vn 1 0 0
vn 1 0 0
f 10/10/10 11/11/11 12/12/12
v 0.265625 0 0.015625
v 0.265625 0 0.640625
v 0.265625 0.1875 0.640625
vt 0.546875 0.4375
vt 0.625 0.4375
vt 0.625 0.4609375
vn -1 0 0
vn -1 0 0
vn -1 0 0
f 13/13/13 14/14/14 15/15/15
v 0.265625 0 0.015625
v 0.265625 0.1875 0.640625
v 0.265625 0.1875 0.015625
vt 0.546875 0.4375
vt 0.625 0.4609375
vt 0.546875 0.4609375
vn -1 0 0
vn -1 0 0
vn -1 0 0
f 16/16/16 17/17/17 18/18/18
v 0.265625 0 0.015625
v 0.765625 0 0.015625
v 0.765625 0 0.640625
vt 0.4921875 0.4921875
vt 0.4296875 0.4921875
vt 0.4296875 0.5703125
vn 0 -1 0
vn 0 -1 0
vn 0 -1 0
f 19/19/19 20/20/20 21/21/21
v 0.265625 0 0.015625
v 0.765625 0 0.640625
v 0.265625 0 0.640625
vt 0.4921875 0.4921875
vt 0.4296875 0.5703125
vt 0.4921875 0.5703125
vn 0 -1 0
vn 0 -1 0
vn 0 -1 0
f 22/22/22 23/23/23 24/24/24
v 0.734375 1 0.66991098
v 0.734375 0.12500023 0.51562491
v 0.171875 0.12500023 0.51562491
vt 0.1484375 0.74387476
vt 0.1484375 0.6328125
vt 0.21875 0.6328125
vn 0 0.17364818 -0.98480775
vn 0 0.17364818 -0.98480775
vn 0 0.17364818 -0.98480775
f 25/25/25 26/26/26 27/27/27
v 0.734375 1 0.66991098
v 0.171875 0.12500023 0.51562491
v 0.171875 1 0.66991098
vt 0.1484375 0.74387476
vt 0.21875 0.6328125
vt 0.21875 0.74387476
vn 0 0.17364818 -0.98480775
vn 0 0.17364818 -0.98480775
vn 0 0.17364818 -0.98480775
f 28/28/28 29/29/29 30/30/30
v 0.734375 1 1
v 0.734375 0.03959183 1
v 0.734375 0.12500023 0.51562491
vt 0.38124072 0.96197718
vt 0.36039408 0.84375
vt 0.421875 0.84375
vn 1 0 0
vn 1 0 0
vn 1 0 0
f 31/31/31 32/32/32 33/33/33
v 0.734375 1 1
v 0.734375 0.12500023 0.51562491
v 0.734375 1 0.66991098
vt 0.38124072 0.96197718
vt 0.421875 0.84375
vt 0.421875 0.95481226
vn 1 0 0
vn 1 0 0
vn 1 0 0
f 34/34/34 35/35/35 36/36/36
v 0.171875 1 1
v 0.171875 1 0.66991098
v 0.171875 0.12500023 0.51562491
vt 0.26719678 0.60260218
vt 0.2265625 0.59543726
vt 0.2265625 0.484375
vn -1 0 0
vn -1 0 0
vn -1 0 0
f 37/37/37 38/38/38 39/39/39
v 0.171875 1 1
v 0.171875 0.12500023 0.51562491
v 0.171875 0.03959183 1
vt 0.26719678 0.60260218
vt 0.2265625 0.484375
vt 0.28804342 0.484375
vn -1 0 0
vn -1 0 0
vn -1 0 0
f 40/40/40 41/41/41 42/42/42
v 0.171875 0.03959183 1
v 0.171875 0.12500023 0.51562491
v 0.734375 0.12500023 0.51562491
vt 0.5546875 0.75679342
vt 0.5546875 0.6953125
vt 0.484375 0.6953125
vn 0 -0.98480775 -0.17364818
vn 0 -0.98480775 -0.17364818
vn 0 -0.98480775 -0.17364818
f 43/43/43 44/44/44 45/45/45
v 0.171875 0.03959183 1
v 0.734375 0.12500023 0.51562491
v 0.734375 0.03959183 1
vt 0.5546875 0.75679342
vt 0.484375 0.6953125
vt 0.484375 0.75679342
vn 0 -0.98480775 -0.17364818
vn 0 -0.98480775 -0.17364818
vn 0 -0.98480775 -0.17364818
f 46/46/46 47/47/47 48/48/48
v 0.9375 0.0625 0.4375
v 0.62767348 0.02171056 0.4375
v 0.54609461 0.6413636 0.4375
vt 0.4140625 0.40625
vt 0.453125 0.40625
vt 0.453125 0.484375
vn 0 0 -1
vn 0 0 -1
vn 0 0 -1
f 49/49/49 50/50/50 51/51/51
v 0.9375 0.0625 0.4375
v 0.54609461 0.6413636 0.4375
v 0.85592113 0.68215304 0.4375
vt 0.4140625 0.40625
vt 0.453125 0.484375
vt 0.4140625 0.484375
vn 0 0 -1
vn 0 0 -1
vn 0 0 -1
f 52/52/52 53/53/53 54/54/54
v 0.9375 0.0625 1
v 0.9375 0.0625 0.4375
v 0.85592113 0.68215304 0.4375
vt 0.4375 0.921875
vt 0.5078125 0.921875
vt 0.5078125 1
vn 0.99144486 0.13052619 0
vn 0.99144486 0.13052619 0
vn 0.99144486 0.13052619 0
f 55/55/55 56/56/56 57/57/57
v 0.9375 0.0625 1
v 0.85592113 0.68215304 0.4375
v 0.85592113 0.68215304 1
vt 0.4375 0.921875
vt 0.5078125 1
vt 0.4375 1
vn 0.99144486 0.13052619 0
vn 0.99144486 0.13052619 0
vn 0.99144486 0.13052619 0
f 58/58/58 59/59/59 60/60/60
v 0.54609461 0.6413636 1
v 0.85592113 0.68215304 1
v 0.85592113 0.68215304 0.4375
vt 0.28125 0.46875
vt 0.2421875 0.46875
vt 0.2421875 0.3984375
vn -0.13052619 0.99144486 0
vn -0.13052619 0.99144486 0
vn -0.13052619 0.99144486 0
f 61/61/61 62/62/62 63/63/63
v 0.54609461 0.6413636 1
v 0.85592113 0.68215304 0.4375
v 0.54609461 0.6413636 0.4375
vt 0.28125 0.46875
vt 0.2421875 0.3984375
vt 0.28125 0.3984375
vn -0.13052619 0.99144486 0
vn -0.13052619 0.99144486 0
vn -0.13052619 0.99144486 0
f 64/64/64 65/65/65 66/66/66
v 0.9375 0 0.4375
v 0.625 0 0.4375
v 0.625 0.0625 0.4375
vt 0.546875 0.421875
vt 0.5859375 0.421875
vt 0.5859375 0.4296875
vn 0 0 -1
vn 0 0 -1
vn 0 0 -1
f 67/67/67 68/68/68 69/69/69
v 0.9375 0 0.4375
v 0.625 0.0625 0.4375
v 0.9375 0.0625 0.4375
vt 0.546875 0.421875
vt 0.5859375 0.4296875
vt 0.546875 0.4296875
vn 0 0 -1
vn 0 0 -1
vn 0 0 -1
f 70/70/70 71/71/71 72/72/72
v 0.9375 0 1
v 0.9375 0 0.4375
v 0.9375 0.0625 0.4375
vt 0.5703125 0.6953125
vt 0.640625 0.6953125
vt 0.640625 0.703125
vn 1 0 0
vn 1 0 0
vn 1 0 0
f 73/73/73 74/74/74 75/75/75
v 0.9375 0 1
v 0.9375 0.0625 0.4375
v 0.9375 0.0625 1
vt 0.5703125 0.6953125
vt 0.640625 0.703125
vt 0.5703125 0.703125
vn 1 0 0
vn 1 0 0
vn 1 0 0
f 76/76/76 77/77/77 78/78/78
v 0.625 0 1
v 0.625 0 0.4375
v 0.9375 0 0.4375
vt 0.09375 0.453125
vt 0.09375 0.3828125
vt 0.0546875 0.3828125
vn 0 -1 0
vn 0 -1 0
vn 0 -1 0
f 79/79/79 80/80/80 81/81/81
v 0.625 0 1
v 0.9375 0 0.4375
v 0.9375 0 1
vt 0.09375 0.453125
vt 0.0546875 0.3828125
vt 0.0546875 0.453125
vn 0 -1 0
vn 0 -1 0
vn 0 -1 0
f 82/82/82 83/83/83 84/84/84
v 0.734375 0 0.515625
v 0.171875 0 0.515625
v 0.171875 0.125 0.515625
vt 0.5703125 0.9375
vt 0.640625 0.9375
vt 0.640625 0.953125
vn 0 0 -1
vn 0 0 -1
vn 0 0 -1
f 85/85/85 86/86/86 87/87/87
v 0.734375 0 0.515625
v 0.171875 0.125 0.515625
v 0.734375 0.125 0.515625
vt 0.5703125 0.9375
vt 0.640625 0.953125
vt 0.5703125 0.953125
vn 0 0 -1
vn 0 0 -1
vn 0 0 -1
f 88/88/88 89/89/89 90/90/90
v 0.734375 0 1
v 0.734375 0 0.515625
v 0.734375 0.125 0.515625
vt 0.58007813 0.828125
vt 0.640625 0.828125
vt 0.640625 0.84375
vn 1 0 0
vn 1 0 0
vn 1 0 0
f 91/91/91 92/92/92 93/93/93
v 0.734375 0 1
v 0.734375 0.125 0.515625
v 0.734375 0.125 1
vt 0.58007813 0.828125
vt 0.640625 0.84375
vt 0.58007813 0.84375
vn 1 0 0
vn 1 0 0
vn 1 0 0
f 94/94/94 95/95/95 96/96/96
v 0.171875 0 0.515625
v 0.171875 0 1
v 0.171875 0.125 1
vt 0.5703125 0.8046875
vt 0.63085938 0.8046875
vt 0.63085938 0.8203125
vn -1 0 0
vn -1 0 0
vn -1 0 0
f 97/97/97 98/98/98 99/99/99
v 0.171875 0 0.515625
v 0.171875 0.125 1
v 0.171875 0.125 0.515625
vt 0.5703125 0.8046875
vt 0.63085938 0.8203125
vt 0.5703125 0.8203125
vn -1 0 0
vn -1 0 0
vn -1 0 0
f 100/100/100 101/101/101 102/102/102
v 0.171875 0 1
v 0.171875 0 0.515625
v 0.734375 0 0.515625
vt 0.5 0.90429688
vt 0.5 0.84375
vt 0.4296875 0.84375
vn 0 -1 0
vn 0 -1 0
vn 0 -1 0
f 103/103/103 104/104/104 105/105/105
v 0.171875 0 1
v 0.734375 0 0.515625
v 0.734375 0 1
vt 0.5 0.90429688
vt 0.4296875 0.84375
vt 0.4296875 0.90429688
vn 0 -1 0
vn 0 -1 0
vn 0 -1 0
f 106/106/106 107/107/107 108/108/108
v 0.765625 0.1875 0.015625
v 0.765625 1 0.48472209
v 0.765625 1 0.60833372
vt 0.375 0.7109375
vt 0.375 0.82821177
vt 0.38913896 0.8359375
vn 1 0 0
vn 1 0 0
vn 1 0 0
f 109/109/109 110/110/110 111/111/111
v 0.765625 0.1875 0.015625
v 0.765625 1 0.60833372
v 0.765625 0.8660254 0.84038453
vt 0.375 0.7109375
vt 0.38913896 0.8359375
vt 0.42452891 0.8359375
vn 1 0 0
vn 1 0 0
vn 1 0 0
f 112/112/112 113/113/113 114/114/114
v 0.765625 0.1875 0.015625
v 0.765625 0.8660254 0.84038453
v 0.765625 0.18750013 0.64062478
vt 0.375 0.7109375
vt 0.42452891 0.8359375
vt 0.4453125 0.75
vn 1 0 0
vn 1 0 0
vn 1 0 0
f 115/115/115 116/116/116 117/117/117
v 0.265625 0.18750013 0.64062478
v 0.265625 0.8660254 0.84038453
v 0.265625 1 0.60833372
vt 0.49750117 0.61699219
vt 0.47671758 0.70292969
vt 0.44322393 0.70292969
vn -1 0 0
vn -1 0 0
vn -1 0 0
f 118/118/118 119/119/119 120/120/120
v 0.265625 0.18750013 0.64062478
v 0.265625 1 0.60833372
v 0.265625 1 0.48472209
vt 0.49750117 0.61699219
vt 0.44322393 0.70292969
vt 0.42984258 0.69520396
vn -1 0 0
vn -1 0 0
vn -1 0 0
f 121/121/121 122/122/122 123/123/123
v 0.265625 0.18750013 0.64062478
v 0.265625 1 0.48472209
v 0.265625 0.1875 0.015625
vt 0.49750117 0.61699219
vt 0.42984258 0.69520396
vt 0.42984258 0.57792969
vn -1 0 0
vn -1 0 0
vn -1 0 0
f 124/124/124 125/125/125 126/126/126
v 0.765625 0.8660254 0.84038453
v 0.765625 1 0.60833372
v 0.265625 1 0.60833372
vt 0.5390625 0.6875
vt 0.5390625 0.65400635
vt 0.6015625 0.65400635
vn 0 0.8660254 0.5
vn 0 0.8660254 0.5
vn 0 0.8660254 0.5
f 127/127/127 128/128/128 129/129/129
v 0.765625 0.8660254 0.84038453
v 0.265625 1 0.60833372
v 0.265625 0.8660254 0.84038453
vt 0.5390625 0.6875
vt 0.6015625 0.65400635
vt 0.6015625 0.6875
vn 0 0.8660254 0.5
vn 0 0.8660254 0.5
vn 0 0.8660254 0.5
f 130/130/130 131/131/131 132/132/132
v 0.765625 0.1875 0.015625
v 0.765625 0.18750013 0.64062478
v 0.265625 0.18750013 0.64062478
vt 0.5390625 0.5859375
vt 0.6015625 0.5859375
vt 0.6015625 0.6328125
vn 0 -1 0.0000002
vn 0 -1 0.0000002
vn 0 -1 0.0000002
f 133/133/133 134/134/134 135/135/135
v 0.765625 0.1875 0.015625
v 0.265625 0.18750013 0.64062478
v 0.265625 0.1875 0.015625
vt 0.5390625 0.5859375
vt 0.6015625 0.6328125
vt 0.5390625 0.6328125
vn 0 -1 0.0000002
vn 0 -1 0.0000002
vn 0 -1 0.0000002
f 136/136/136 137/137/137 138/138/138
v 0.765625 0.18750013 0.64062478
v 0.765625 0.8660254 0.84038453
v 0.265625 0.8660254 0.84038453
vt 0 0.453125
vt 0 0.578125
vt 0.046875 0.578125
vn 0 -0.28241808 0.95929142
vn 0 -0.28241808 0.95929142
vn 0 -0.28241808 0.95929142
f 139/139/139 140/140/140 141/141/141
v 0.765625 0.18750013 0.64062478
v 0.265625 0.8660254 0.84038453
v 0.265625 0.18750013 0.64062478
vt 0 0.453125
vt 0.046875 0.578125
vt 0.046875 0.453125
vn 0 -0.28241808 0.95929142
vn 0 -0.28241808 0.95929142
vn 0 -0.28241808 0.95929142
f 142/142/142 143/143/143 144/144/144
v 0.265625 0.1875 0.015625
v 0.265625 1 0.48472209
v 0.765625 1 0.48472209
vt 0.2109375 0.5
vt 0.2109375 0.61727427
vt 0.1484375 0.61727427
vn 0 0.5 -0.8660254
vn 0 0.5 -0.8660254
vn 0 0.5 -0.8660254
f 145/145/145 146/146/146 147/147/147
v 0.265625 0.1875 0.015625
v 0.765625 1 0.48472209
v 0.765625 0.1875 0.015625
vt 0.2109375 0.5
vt 0.1484375 0.61727427
vt 0.1484375 0.5
vn 0 0.5 -0.8660254
vn 0 0.5 -0.8660254
vn 0 0.5 -0.8660254
f 148/148/148 149/149/149 150/150/150
