# Generated by Shadows And Petals
mtllib material.mtl
o rockery
usemtl rockery
v 0.75 1 0.015625
v 0.75 0 0.015625
v 0.25 0 0.015625
vt 0 0.921875
vt 0 0.796875
vt 0.0625 0.796875
vn 0 0 -1
vn 0 0 -1
vn 0 0 -1
f 1/1/1 2/2/2 3/3/3
v 0.75 1 0.015625
v 0.25 0 0.015625
v 0.25 1 0.015625
vt 0 0.921875
vt 0.0625 0.796875
vt 0.0625 0.921875
vn 0 0 -1
vn 0 0 -1
vn 0 0 -1
f 4/4/4 5/5/5 6/6/6
v 0.75 1 0.515625
v 0.75 0 0.515625
v 0.75 0 0.015625
vt 0.0703125 0.921875
vt 0.0703125 0.796875
vt 0.1328125 0.796875
vn 1 0 0
vn 1 0 0
vn 1 0 0
f 7/7/7 8/8/8 9/9/9
v 0.75 1 0.515625
v 0.75 0 0.015625
v 0.75 1 0.015625
vt 0.0703125 0.921875
vt 0.1328125 0.796875
vt 0.1328125 0.921875
vn 1 0 0
vn 1 0 0
vn 1 0 0
f 10/10/10 11/11/11 12/12/12
v 0.25 1 0.515625
v 0.25 0 0.515625
v 0.75 0 0.515625
vt 0.140625 0.921875
vt 0.140625 0.796875
vt 0.203125 0.796875
vn 0 0 1
vn 0 0 1
vn 0 0 1
f 13/13/13 14/14/14 15/15/15
v 0.25 1 0.515625
v 0.75 0 0.515625
v 0.75 1 0.515625
vt 0.140625 0.921875
vt 0.203125 0.796875
vt 0.203125 0.921875
vn 0 0 1
vn 0 0 1
vn 0 0 1
f 16/16/16 17/17/17 18/18/18
v 0.25 1 0.015625
v 0.25 0 0.015625
v 0.25 0 0.515625
vt 0 0.7109375
vt 0 0.5859375
vt 0.0625 0.5859375
vn -1 0 0
vn -1 0 0
vn -1 0 0
f 19/19/19 20/20/20 21/21/21
v 0.25 1 0.015625
v 0.25 0 0.515625
v 0.25 1 0.515625
vt 0 0.7109375
vt 0.0625 0.5859375
vt 0.0625 0.7109375
vn -1 0 0
vn -1 0 0
vn -1 0 0
f 22/22/22 23/23/23 24/24/24
v 0.25 0 0.015625
v 0.75 0 0.015625
v 0.75 0 0.515625
vt 0.1875 0.4296875
vt 0.125 0.4296875
vt 0.125 0.4921875
vn 0 -1 0
vn 0 -1 0
vn 0 -1 0
f 25/25/25 26/26/26 27/27/27
v 0.25 0 0.015625
v 0.75 0 0.515625
v 0.25 0 0.515625
vt 0.1875 0.4296875
vt 0.125 0.4921875
vt 0.1875 0.4921875
vn 0 -1 0
vn 0 -1 0
vn 0 -1 0
f 28/28/28 29/29/29 30/30/30
v 0.65625 0 0.953125
v 0.65625 0 0.390625
v 0.65625 0.125 0.390625
vt 0.5703125 0.984375
vt 0.640625 0.984375
vt 0.640625 1
vn 1 0 0
vn 1 0 0
vn 1 0 0
f 31/31/31 32/32/32 33/33/33
v 0.65625 0 0.953125
v 0.65625 0.125 0.390625
v 0.65625 0.125 0.953125
vt 0.5703125 0.984375
vt 0.640625 1
vt 0.5703125 1
vn 1 0 0
vn 1 0 0
vn 1 0 0
f 34/34/34 35/35/35 36/36/36
v 0.15625 0 0.953125
v 0.65625 0 0.953125
v 0.65625 0.125 0.953125
vt 0.5703125 0.78125
vt 0.6328125 0.78125
vt 0.6328125 0.796875
vn 0 0 1
vn 0 0 1
vn 0 0 1
f 37/37/37 38/38/38 39/39/39
v 0.15625 0 0.953125
v 0.65625 0.125 0.953125
v 0.15625 0.125 0.953125
vt 0.5703125 0.78125
vt 0.6328125 0.796875
vt 0.5703125 0.796875
vn 0 0 1
vn 0 0 1
vn 0 0 1
f 40/40/40 41/41/41 42/42/42
v 0.15625 0 0.390625
v 0.15625 0 0.953125
v 0.15625 0.125 0.953125
vt 0.5703125 0.9609375
vt 0.640625 0.9609375
vt 0.640625 0.9765625
vn -1 0 0
vn -1 0 0
vn -1 0 0
f 43/43/43 44/44/44 45/45/45
v 0.15625 0 0.390625
v 0.15625 0.125 0.953125
v 0.15625 0.125 0.390625
vt 0.5703125 0.9609375
vt 0.640625 0.9765625
vt 0.5703125 0.9765625
vn -1 0 0
vn -1 0 0
vn -1 0 0
f 46/46/46 47/47/47 48/48/48
v 0.15625 0 0.390625
v 0.65625 0 0.390625
v 0.65625 0 0.953125
vt 0.5078125 0.765625
vt 0.4453125 0.765625
vt 0.4453125 0.8359375
vn 0 -1 0
vn 0 -1 0
vn 0 -1 0
f 49/49/49 50/50/50 51/51/51
v 0.15625 0 0.390625
v 0.65625 0 0.953125
v 0.15625 0 0.953125
vt 0.5078125 0.765625
vt 0.4453125 0.8359375
vt 0.5078125 0.8359375
vn 0 -1 0
vn 0 -1 0
vn 0 -1 0
f 52/52/52 53/53/53 54/54/54
v 0.87657578 1 0.0625
v 1 0.0625 0.0625
v 0.62820818 0.01355268 0.0625
vt 0.375 0.68069871
vt 0.375 0.5625
vt 0.421875 0.5625
vn 0 0 -1
vn 0 0 -1
vn 0 0 -1
f 55/55/55 56/56/56 57/57/57
v 0.87657578 1 0.0625
v 0.62820818 0.01355268 0.0625
v 0.49833992 1 0.0625
vt 0.375 0.68069871
vt 0.421875 0.5625
vt 0.421875 0.68686992
vn 0 0 -1
vn 0 0 -1
vn 0 0 -1
f 58/58/58 59/59/59 60/60/60
v 0.87657578 1 0.625
v 1 0.0625 0.625
v 1 0.0625 0.0625
vt 0.296875 0.79788621
vt 0.296875 0.6796875
vt 0.3671875 0.6796875
vn 0.99144486 0.13052619 0
vn 0.99144486 0.13052619 0
vn 0.99144486 0.13052619 0
f 61/61/61 62/62/62 63/63/63
v 0.87657578 1 0.625
v 1 0.0625 0.0625
v 0.87657578 1 0.0625
vt 0.296875 0.79788621
vt 0.3671875 0.6796875
vt 0.3671875 0.79788621
vn 0.99144486 0.13052619 0
vn 0.99144486 0.13052619 0
vn 0.99144486 0.13052619 0
f 64/64/64 65/65/65 66/66/66
v 0.49833992 1 0.625
v 0.62820818 0.01355268 0.625
v 1 0.0625 0.625
vt 0.0703125 0.59311992
vt 0.0703125 0.46875
vt 0.1171875 0.46875
vn 0 0 1
vn 0 0 1
vn 0 0 1
f 67/67/67 68/68/68 69/69/69
v 0.49833992 1 0.625
v 1 0.0625 0.625
v 0.87657578 1 0.625
vt 0.0703125 0.59311992
vt 0.1171875 0.46875
vt 0.1171875 0.58694871
vn 0 0 1
vn 0 0 1
vn 0 0 1
f 70/70/70 71/71/71 72/72/72
v 0.3125 0 0.015625
v 0 0 0.015625
v 0 0.0625 0.015625
vt 0.5703125 0.484375
vt 0.609375 0.484375
vt 0.609375 0.4921875
vn 0 0 -1
vn 0 0 -1
vn 0 0 -1
f 73/73/73 74/74/74 75/75/75
v 0.3125 0 0.015625
v 0 0.0625 0.015625
v 0.3125 0.0625 0.015625
vt 0.5703125 0.484375
vt 0.609375 0.4921875
vt 0.5703125 0.4921875
vn 0 0 -1
vn 0 0 -1
vn 0 0 -1
f 76/76/76 77/77/77 78/78/78
v 0 0 0.578125
v 0.3125 0 0.578125
v 0.3125 0.0625 0.578125
vt 0.5703125 0.46875
vt 0.609375 0.46875
vt 0.609375 0.4765625
vn 0 0 1
vn 0 0 1
vn 0 0 1
f 79/79/79 80/80/80 81/81/81
v 0 0 0.578125
v 0.3125 0.0625 0.578125
v 0 0.0625 0.578125
vt 0.5703125 0.46875
vt 0.609375 0.4765625
vt 0.5703125 0.4765625
vn 0 0 1
vn 0 0 1
vn 0 0 1
f 82/82/82 83/83/83 84/84/84
v 0 0 0.015625
v 0 0 0.578125
v 0 0.0625 0.578125
vt 0.5703125 0.921875
vt 0.640625 0.921875
vt 0.640625 0.9296875
vn -1 0 0
vn -1 0 0
vn -1 0 0
f 85/85/85 86/86/86 87/87/87
v 0 0 0.015625
v 0 0.0625 0.578125
v 0 0.0625 0.015625
vt 0.5703125 0.921875
vt 0.640625 0.9296875
vt 0.5703125 0.9296875
vn -1 0 0
vn -1 0 0
vn -1 0 0
f 88/88/88 89/89/89 90/90/90
v 0 0 0.015625
v 0.3125 0 0.015625
v 0.3125 0 0.578125
vt 0.5 0.390625
vt 0.4609375 0.390625
vt 0.4609375 0.4609375
vn 0 -1 0
vn 0 -1 0
vn 0 -1 0
f 91/91/91 92/92/92 93/93/93
v 0 0 0.015625
v 0.3125 0 0.578125
v 0 0 0.578125
vt 0.5 0.390625
vt 0.4609375 0.4609375
vt 0.5 0.4609375
vn 0 -1 0
vn 0 -1 0
vn 0 -1 0
f 94/94/94 95/95/95 96/96/96
v 0.734375 1 0
v 0.734375 1 0.17762429
v 0.734375 0.03817614 0.00802879
vt 0.38124072 0.96197718
vt 0.359375 0.96583269
vt 0.359375 0.84375
vn 1 0 0
vn 1 0 0
vn 1 0 0
f 97/97/97 98/98/98 99/99/99
v 0.734375 1 0
v 0.734375 0.03817614 0.00802879
v 0.734375 0.03959183 0
vt 0.38124072 0.96197718
vt 0.359375 0.84375
vt 0.36039408 0.84375
vn 1 0 0
vn 1 0 0
vn 1 0 0
f 100/100/100 101/101/101 102/102/102
v 0.171875 1 0
v 0.171875 0.03959183 0
v 0.171875 0.03817614 0.00802879
vt 0.26719678 0.60260218
vt 0.28804342 0.484375
vt 0.2890625 0.484375
vn -1 0 0
vn -1 0 0
vn -1 0 0
f 103/103/103 104/104/104 105/105/105
v 0.171875 1 0
v 0.171875 0.03817614 0.00802879
v 0.171875 1 0.17762429
vt 0.26719678 0.60260218
vt 0.2890625 0.484375
vt 0.2890625 0.60645769
vn -1 0 0
vn -1 0 0
vn -1 0 0
f 106/106/106 107/107/107 108/108/108
v 0.171875 0.03959183 0
v 0.734375 0.03959183 0
v 0.734375 0.03817614 0.00802879
vt 0.5546875 0.75679342
vt 0.484375 0.75679342
vt 0.484375 0.7578125
vn 0 -0.98480775 -0.17364818
vn 0 -0.98480775 -0.17364818
vn 0 -0.98480775 -0.17364818
f 109/109/109 110/110/110 111/111/111
v 0.171875 0.03959183 0
v 0.734375 0.03817614 0.00802879
v 0.171875 0.03817614 0.00802879
vt 0.5546875 0.75679342
vt 0.484375 0.7578125
vt 0.5546875 0.7578125
vn 0 -0.98480775 -0.17364818
vn 0 -0.98480775 -0.17364818
vn 0 -0.98480775 -0.17364818
f 112/112/112 113/113/113 114/114/114
v 1 0 0.0625
v 0.625 0 0.0625
v 0.625 0.0625 0.0625
vt 0.5703125 0.515625
vt 0.6171875 0.515625
vt 0.6171875 0.5234375
vn 0 0 -1
vn 0 0 -1
vn 0 0 -1
f 115/115/115 116/116/116 117/117/117
v 1 0 0.0625
v 0.625 0.0625 0.0625
v 1 0.0625 0.0625
vt 0.5703125 0.515625
vt 0.6171875 0.5234375
vt 0.5703125 0.5234375
vn 0 0 -1
vn 0 0 -1
vn 0 0 -1
f 118/118/118 119/119/119 120/120/120
v 1 0 0.625
v 1 0 0.0625
v 1 0.0625 0.0625
vt 0.5703125 0.53125
vt 0.640625 0.53125
vt 0.640625 0.5390625
vn 1 0 0
vn 1 0 0
vn 1 0 0
f 121/121/121 122/122/122 123/123/123
v 1 0 0.625
v 1 0.0625 0.0625
v 1 0.0625 0.625
vt 0.5703125 0.53125
vt 0.640625 0.5390625
vt 0.5703125 0.5390625
vn 1 0 0
vn 1 0 0
vn 1 0 0
f 124/124/124 125/125/125 126/126/126
v 0.625 0 0.625
v 1 0 0.625
v 1 0.0625 0.625
vt 0.5703125 0.5
vt 0.6171875 0.5
vt 0.6171875 0.5078125
vn 0 0 1
vn 0 0 1
vn 0 0 1
f 127/127/127 128/128/128 129/129/129
v 0.625 0 0.625
v 1 0.0625 0.625
v 0.625 0.0625 0.625
vt 0.5703125 0.5
vt 0.6171875 0.5078125
vt 0.5703125 0.5078125
vn 0 0 1
vn 0 0 1
vn 0 0 1
f 130/130/130 131/131/131 132/132/132
v 0.625 0 0.0625
v 1 0 0.0625
v 1 0 0.625
vt 0.5625 0.7734375
vt 0.515625 0.7734375
vt 0.515625 0.84375
vn 0 -1 0
vn 0 -1 0
vn 0 -1 0
f 133/133/133 134/134/134 135/135/135
v 0.625 0 0.0625
v 1 0 0.625
v 0.625 0 0.625
vt 0.5625 0.7734375
vt 0.515625 0.84375
vt 0.5625 0.84375
vn 0 -1 0
vn 0 -1 0
vn 0 -1 0
f 136/136/136 137/137/137 138/138/138
v 0.37558146 1 0.015625
v 0.24786122 0.02986845 0.015625
v 0 0.0625 0.015625
vt 0.375 0.53637535
vt 0.375 0.4140625
vt 0.40625 0.4140625
vn 0 0 -1
vn 0 0 -1
vn 0 0 -1
f 139/139/139 140/140/140 141/141/141
v 0.37558146 1 0.015625
v 0 0.0625 0.015625
v 0.12342422 1 0.015625
vt 0.375 0.53637535
vt 0.40625 0.4140625
vt 0.40625 0.53226121
vn 0 0 -1
vn 0 0 -1
vn 0 0 -1
f 142/142/142 143/143/143 144/144/144
v 0.12342422 1 0.578125
v 0 0.0625 0.578125
v 0.24786122 0.02986845 0.578125
vt 0.5 0.66507371
vt 0.5 0.546875
vt 0.53125 0.546875
vn 0 0 1
vn 0 0 1
vn 0 0 1
f 145/145/145 146/146/146 147/147/147
v 0.12342422 1 0.578125
v 0.24786122 0.02986845 0.578125
v 0.37558146 1 0.578125
vt 0.5 0.66507371
vt 0.53125 0.546875
vt 0.53125 0.66918785
vn 0 0 1
vn 0 0 1
vn 0 0 1
f 148/148/148 149/149/149 150/150/150
v 0.12342422 1 0.015625
v 0 0.0625 0.015625
v 0 0.0625 0.578125
vt 0.296875 0.64944871
vt 0.296875 0.53125
vt 0.3671875 0.53125
vn -0.99144486 0.13052619 0
vn -0.99144486 0.13052619 0
vn -0.99144486 0.13052619 0
f 151/151/151 152/152/152 153/153/153
v 0.12342422 1 0.015625
v 0 0.0625 0.578125
v 0.12342422 1 0.578125
vt 0.296875 0.64944871
vt 0.3671875 0.53125
vt 0.3671875 0.64944871
vn -0.99144486 0.13052619 0
vn -0.99144486 0.13052619 0
vn -0.99144486 0.13052619 0
f 154/154/154 155/155/155 156/156/156
v 0.9375 0.0625 0.0625
v 0.9375 0.0625 0
v 0.85592113 0.68215304 0
vt 0.4296875 0.921875
vt 0.4375 0.921875
vt 0.4375 1
vn 0.99144486 0.13052619 0
vn 0.99144486 0.13052619 0
vn 0.99144486 0.13052619 0
f 157/157/157 158/158/158 159/159/159
v 0.9375 0.0625 0.0625
v 0.85592113 0.68215304 0
v 0.85592113 0.68215304 0.0625
vt 0.4296875 0.921875
vt 0.4375 1
vt 0.4296875 1
vn 0.99144486 0.13052619 0
vn 0.99144486 0.13052619 0
vn 0.99144486 0.13052619 0
f 160/160/160 161/161/161 162/162/162
v 0.62767348 0.02171056 0.0625
v 0.9375 0.0625 0.0625
v 0.85592113 0.68215304 0.0625
vt 0.1953125 0.3984375
vt 0.234375 0.3984375
vt 0.234375 0.4765625
vn 0 0 1
vn 0 0 1
vn 0 0 1
f 163/163/163 164/164/164 165/165/165
v 0.62767348 0.02171056 0.0625
v 0.85592113 0.68215304 0.0625
v 0.54609461 0.6413636 0.0625
vt 0.1953125 0.3984375
vt 0.234375 0.4765625
vt 0.1953125 0.4765625
vn 0 0 1
vn 0 0 1
vn 0 0 1
f 166/166/166 167/167/167 168/168/168
v 0.54609461 0.6413636 0
v 0.54609461 0.6413636 0.0625
v 0.85592113 0.68215304 0.0625
vt 0.28125 0.46875
vt 0.28125 0.4765625
vt 0.2421875 0.4765625
vn -0.13052619 0.99144486 0
vn -0.13052619 0.99144486 0
vn -0.13052619 0.99144486 0
f 169/169/169 170/170/170 171/171/171
v 0.54609461 0.6413636 0
v 0.85592113 0.68215304 0.0625
v 0.85592113 0.68215304 0
vt 0.28125 0.46875
vt 0.2421875 0.4765625
vt 0.2421875 0.46875
vn -0.13052619 0.99144486 0
vn -0.13052619 0.99144486 0
vn -0.13052619 0.99144486 0
f 172/172/172 173/173/173 174/174/174
v 0.9375 0 0.0625
v 0.9375 0 0
v 0.9375 0.0625 0
vt 0.5625 0.6953125
vt 0.5703125 0.6953125
vt 0.5703125 0.703125
vn 1 0 0
vn 1 0 0
vn 1 0 0
f 175/175/175 176/176/176 177/177/177
v 0.9375 0 0.0625
v 0.9375 0.0625 0
v 0.9375 0.0625 0.0625
vt 0.5625 0.6953125
vt 0.5703125 0.703125
vt 0.5625 0.703125
vn 1 0 0
vn 1 0 0
vn 1 0 0
f 178/178/178 179/179/179 180/180/180
v 0.625 0 0.0625
v 0.9375 0 0.0625
v 0.9375 0.0625 0.0625
vt 0.578125 0.90625
vt 0.6171875 0.90625
vt 0.6171875 0.9140625
vn 0 0 1
vn 0 0 1
vn 0 0 1
f 181/181/181 182/182/182 183/183/183
v 0.625 0 0.0625
v 0.9375 0.0625 0.0625
v 0.625 0.0625 0.0625
vt 0.578125 0.90625
vt 0.6171875 0.9140625
vt 0.578125 0.9140625
vn 0 0 1
vn 0 0 1
vn 0 0 1
f 184/184/184 185/185/185 186/186/186
v 0.625 0 0
v 0.9375 0 0
v 0.9375 0 0.0625
vt 0.09375 0.453125
vt 0.0546875 0.453125
vt 0.0546875 0.4609375
vn 0 -1 0
vn 0 -1 0
vn 0 -1 0
f 187/187/187 188/188/188 189/189/189
v 0.625 0 0
v 0.9375 0 0.0625
v 0.625 0 0.0625
vt 0.09375 0.453125
vt 0.0546875 0.4609375
vt 0.09375 0.4609375
vn 0 -1 0
vn 0 -1 0
vn 0 -1 0
f 190/190/190 191/191/191 192/192/192
v 0.65625 1 0.18298515
v 0.65625 0.0032525 0.40395875
v 0.15625 0.0032525 0.40395875
vt 0.2265625 0.77605601
vt 0.2265625 0.6484375
vt 0.2890625 0.6484375
vn 0 -0.21643961 -0.97629601
vn 0 -0.21643961 -0.97629601
vn 0 -0.21643961 -0.97629601
f 193/193/193 194/194/194 195/195/195
v 0.65625 1 0.18298515
v 0.15625 0.0032525 0.40395875
v 0.15625 1 0.18298515
vt 0.2265625 0.77605601
vt 0.2890625 0.6484375
vt 0.2890625 0.77605601
vn 0 -0.21643961 -0.97629601
vn 0 -0.21643961 -0.97629601
vn 0 -0.21643961 -0.97629601
f 196/196/196 197/197/197 198/198/198
v 0.65625 1 0.75914238
v 0.65625 0.12499978 0.95312525
v 0.65625 0.0032525 0.40395875
vt 0.2109375 0.9401556
vt 0.2109375 0.828125
vt 0.28125 0.828125
vn 1 0 0
vn 1 0 0
vn 1 0 0
f 199/199/199 200/200/200 201/201/201
v 0.65625 1 0.75914238
v 0.65625 0.0032525 0.40395875
v 0.65625 1 0.18298515
vt 0.2109375 0.9401556
vt 0.28125 0.828125
vt 0.28125 0.95574351
vn 1 0 0
vn 1 0 0
vn 1 0 0
f 202/202/202 203/203/203 204/204/204
v 0.15625 1 0.75914238
v 0.15625 0.12499978 0.95312525
v 0.65625 0.12499978 0.95312525
vt 0.2890625 0.9401556
vt 0.2890625 0.828125
vt 0.3515625 0.828125
vn 0 0.21643961 0.97629601
vn 0 0.21643961 0.97629601
vn 0 0.21643961 0.97629601
f 205/205/205 206/206/206 207/207/207
v 0.15625 1 0.75914238
v 0.65625 0.12499978 0.95312525
v 0.65625 1 0.75914238
vt 0.2890625 0.9401556
vt 0.3515625 0.828125
vt 0.3515625 0.9401556
vn 0 0.21643961 0.97629601
vn 0 0.21643961 0.97629601
vn 0 0.21643961 0.97629601
f 208/208/208 209/209/209 210/210/210
v 0.15625 1 0.18298515
v 0.15625 0.0032525 0.40395875
v 0.15625 0.12499978 0.95312525
vt 0.0703125 0.74480601
vt 0.0703125 0.6171875
vt 0.140625 0.6171875
vn -1 0 0
vn -1 0 0
vn -1 0 0
f 211/211/211 212/212/212 213/213/213
v 0.15625 1 0.18298515
v 0.15625 0.12499978 0.95312525
v 0.15625 1 0.75914238
vt 0.0703125 0.74480601
vt 0.140625 0.6171875
vt 0.140625 0.7292181
vn -1 0 0
vn -1 0 0
vn -1 0 0
f 214/214/214 215/215/215 216/216/216
v 0.734375 0 0.078125
v 0.734375 0 0
v 0.734375 0.125 0
vt 0.5703125 0.828125
vt 0.58007813 0.828125
vt 0.58007813 0.84375
vn 1 0 0
vn 1 0 0
vn 1 0 0
f 217/217/217 218/218/218 219/219/219
v 0.734375 0 0.078125
v 0.734375 0.125 0
v 0.734375 0.125 0.078125
vt 0.5703125 0.828125
vt 0.58007813 0.84375
vt 0.5703125 0.84375
vn 1 0 0
vn 1 0 0
vn 1 0 0
f 220/220/220 221/221/221 222/222/222
v 0.171875 0 0
v 0.171875 0 0.078125
v 0.171875 0.125 0.078125
vt 0.63085938 0.8046875
vt 0.640625 0.8046875
vt 0.640625 0.8203125
vn -1 0 0
vn -1 0 0
vn -1 0 0
f 223/223/223 224/224/224 225/225/225
v 0.171875 0 0
v 0.171875 0.125 0.078125
v 0.171875 0.125 0
vt 0.63085938 0.8046875
vt 0.640625 0.8203125
vt 0.63085938 0.8203125
vn -1 0 0
vn -1 0 0
vn -1 0 0
f 226/226/226 227/227/227 228/228/228
v 0.171875 0 0
v 0.734375 0 0
v 0.734375 0 0.078125
vt 0.5 0.90429688
vt 0.4296875 0.90429688
vt 0.4296875 0.9140625
vn 0 -1 0
vn 0 -1 0
vn 0 -1 0
f 229/229/229 230/230/230 231/231/231
v 0.171875 0 0
v 0.734375 0 0.078125
v 0.171875 0 0.078125
vt 0.5 0.90429688
vt 0.4296875 0.9140625
vt 0.5 0.9140625
vn 0 -1 0
vn 0 -1 0
vn 0 -1 0
f 232/232/232 233/233/233 234/234/234
