# Generated by Shadows And Petals
mtllib material.mtl
o rockery
usemtl rockery
v 0.75 0 0.0625
v 0.25 0 0.0625
v 0.25 0.625 0.0625
vt 0 0.921875
vt 0.0625 0.921875
vt 0.0625 1
vn 0 0 -1
vn 0 0 -1
vn 0 0 -1
f 1/1/1 2/2/2 3/3/3
v 0.75 0 0.0625
v 0.25 0.625 0.0625
v 0.75 0.625 0.0625
vt 0 0.921875
vt 0.0625 1
vt 0 1
vn 0 0 -1
vn 0 0 -1
vn 0 0 -1
f 4/4/4 5/5/5 6/6/6
v 0.75 0 0.5625
v 0.75 0 0.0625
v 0.75 0.625 0.0625
vt 0.0703125 0.921875
vt 0.1328125 0.921875
vt 0.1328125 1
vn 1 0 0
vn 1 0 0
vn 1 0 0
f 7/7/7 8/8/8 9/9/9
v 0.75 0 0.5625
v 0.75 0.625 0.0625
v 0.75 0.625 0.5625
vt 0.0703125 0.921875
vt 0.1328125 1
vt 0.0703125 1
vn 1 0 0
vn 1 0 0
vn 1 0 0
f 10/10/10 11/11/11 12/12/12
v 0.25 0 0.5625
v 0.75 0 0.5625
v 0.75 0.625 0.5625
vt 0.140625 0.921875
vt 0.203125 0.921875
vt 0.203125 1
vn 0 0 1
vn 0 0 1
vn 0 0 1
f 13/13/13 14/14/14 15/15/15
v 0.25 0 0.5625
v 0.75 0.625 0.5625
v 0.25 0.625 0.5625
vt 0.140625 0.921875
vt 0.203125 1
vt 0.140625 1
vn 0 0 1
vn 0 0 1
vn 0 0 1
f 16/16/16 17/17/17 18/18/18
v 0.25 0 0.0625
v 0.25 0 0.5625
v 0.25 0.625 0.5625
vt 0 0.7109375
vt 0.0625 0.7109375
vt 0.0625 0.7890625
vn -1 0 0
vn -1 0 0
vn -1 0 0
f 19/19/19 20/20/20 21/21/21
v 0.25 0 0.0625
v 0.25 0.625 0.5625
v 0.25 0.625 0.0625
vt 0 0.7109375
vt 0.0625 0.7890625
vt 0 0.7890625
vn -1 0 0
vn -1 0 0
vn -1 0 0
f 22/22/22 23/23/23 24/24/24
v 0.25 0.625 0.5625
v 0.75 0.625 0.5625
v 0.75 0.625 0.0625
vt 0.5703125 0.9140625
vt 0.5078125 0.9140625
vt 0.5078125 0.8515625
vn 0 1 0
vn 0 1 0
vn 0 1 0
f 25/25/25 26/26/26 27/27/27
v 0.25 0.625 0.5625
v 0.75 0.625 0.0625
v 0.25 0.625 0.0625
vt 0.5703125 0.9140625
vt 0.5078125 0.8515625
vt 0.5703125 0.8515625
vn 0 1 0
vn 0 1 0
vn 0 1 0
f 28/28/28 29/29/29 30/30/30
v 0.87657578 0 0.109375
v 0.49833992 0 0.109375
v 0.48136621 0.12892815 0.109375
vt 0.375 0.68069871
vt 0.421875 0.68686992
vt 0.421875 0.703125
vn 0 0 -1
vn 0 0 -1
vn 0 0 -1
f 31/31/31 32/32/32 33/33/33
v 0.87657578 0 0.109375
v 0.48136621 0.12892815 0.109375
v 0.85315803 0.17787547 0.109375
vt 0.375 0.68069871
vt 0.421875 0.703125
vt 0.375 0.703125
vn 0 0 -1
vn 0 0 -1
vn 0 0 -1
f 34/34/34 35/35/35 36/36/36
v 0.87657578 0 0.671875
v 0.87657578 0 0.109375
v 0.85315803 0.17787547 0.109375
vt 0.296875 0.79788621
vt 0.3671875 0.79788621
vt 0.3671875 0.8203125
vn 0.99144486 0.13052619 0
vn 0.99144486 0.13052619 0
vn 0.99144486 0.13052619 0
f 37/37/37 38/38/38 39/39/39
v 0.87657578 0 0.671875
v 0.85315803 0.17787547 0.109375
v 0.85315803 0.17787547 0.671875
vt 0.296875 0.79788621
vt 0.3671875 0.8203125
vt 0.296875 0.8203125
vn 0.99144486 0.13052619 0
vn 0.99144486 0.13052619 0
vn 0.99144486 0.13052619 0
f 40/40/40 41/41/41 42/42/42
v 0.49833992 0 0.671875
v 0.87657578 0 0.671875
v 0.85315803 0.17787547 0.671875
vt 0.0703125 0.59311992
vt 0.1171875 0.58694871
vt 0.1171875 0.609375
vn 0 0 1
vn 0 0 1
vn 0 0 1
f 43/43/43 44/44/44 45/45/45
v 0.49833992 0 0.671875
v 0.85315803 0.17787547 0.671875
v 0.48136621 0.12892815 0.671875
vt 0.0703125 0.59311992
vt 0.1171875 0.609375
vt 0.0703125 0.609375
vn 0 0 1
vn 0 0 1
vn 0 0 1
f 46/46/46 47/47/47 48/48/48
v 0.48136621 0.12892815 0.671875
v 0.85315803 0.17787547 0.671875
v 0.85315803 0.17787547 0.109375
vt 0.5625 1
vt 0.515625 1
vt 0.515625 0.9296875
vn -0.13052619 0.99144486 0
vn -0.13052619 0.99144486 0
vn -0.13052619 0.99144486 0
f 49/49/49 50/50/50 51/51/51
v 0.48136621 0.12892815 0.671875
v 0.85315803 0.17787547 0.109375
v 0.48136621 0.12892815 0.109375
vt 0.5625 1
vt 0.515625 0.9296875
vt 0.5625 0.9296875
vn -0.13052619 0.99144486 0
vn -0.13052619 0.99144486 0
vn -0.13052619 0.99144486 0
f 52/52/52 53/53/53 54/54/54
v 0.734375 0 0.22449929
v 0.734375 0 0
v 0.734375 0.31714043 0
vt 0.359375 0.96583269
vt 0.38701108 0.96095971
vt 0.39389494 1
vn 1 0 0
vn 1 0 0
vn 1 0 0
f 55/55/55 56/56/56 57/57/57
v 0.734375 0 0.22449929
v 0.734375 0.31714043 0
v 0.734375 0.26918583 0.27196401
vt 0.359375 0.96583269
vt 0.39389494 1
vt 0.359375 1
vn 1 0 0
vn 1 0 0
vn 1 0 0
f 58/58/58 59/59/59 60/60/60
v 0.171875 0 0
v 0.171875 0 0.22449929
v 0.171875 0.26918583 0.27196401
vt 0.26142642 0.60158471
vt 0.2890625 0.60645769
vt 0.2890625 0.640625
vn -1 0 0
vn -1 0 0
vn -1 0 0
f 61/61/61 62/62/62 63/63/63
v 0.171875 0 0
v 0.171875 0.26918583 0.27196401
v 0.171875 0.31714043 0
vt 0.26142642 0.60158471
vt 0.2890625 0.640625
vt 0.25454256 0.640625
vn -1 0 0
vn -1 0 0
vn -1 0 0
f 64/64/64 65/65/65 66/66/66
v 0.171875 0.31714043 0
v 0.171875 0.26918583 0.27196401
v 0.734375 0.26918583 0.27196401
vt 0.3671875 0.48891756
vt 0.3671875 0.5234375
vt 0.296875 0.5234375
vn 0 0.98480775 0.17364818
vn 0 0.98480775 0.17364818
vn 0 0.98480775 0.17364818
f 67/67/67 68/68/68 69/69/69
v 0.171875 0.31714043 0
v 0.734375 0.26918583 0.27196401
v 0.734375 0.31714043 0
vt 0.3671875 0.48891756
vt 0.296875 0.5234375
vt 0.296875 0.48891756
vn 0 0.98480775 0.17364818
vn 0 0.98480775 0.17364818
vn 0 0.98480775 0.17364818
f 70/70/70 71/71/71 72/72/72
v 0.37558146 0 0.0625
v 0.12342422 0 0.0625
v 0.14684197 0.17787547 0.0625
vt 0.375 0.53637535
vt 0.40625 0.53226121
vt 0.40625 0.5546875
vn 0 0 -1
vn 0 0 -1
vn 0 0 -1
f 73/73/73 74/74/74 75/75/75
v 0.37558146 0 0.0625
v 0.14684197 0.17787547 0.0625
v 0.39470318 0.14524392 0.0625
vt 0.375 0.53637535
vt 0.40625 0.5546875
vt 0.375 0.5546875
vn 0 0 -1
vn 0 0 -1
vn 0 0 -1
f 76/76/76 77/77/77 78/78/78
v 0.12342422 0 0.625
v 0.37558146 0 0.625
v 0.39470318 0.14524392 0.625
vt 0.5 0.66507371
vt 0.53125 0.66918785
vt 0.53125 0.6875
vn 0 0 1
vn 0 0 1
vn 0 0 1
f 79/79/79 80/80/80 81/81/81
v 0.12342422 0 0.625
v 0.39470318 0.14524392 0.625
v 0.14684197 0.17787547 0.625
vt 0.5 0.66507371
vt 0.53125 0.6875
vt 0.5 0.6875
vn 0 0 1
vn 0 0 1
vn 0 0 1
f 82/82/82 83/83/83 84/84/84
v 0.12342422 0 0.0625
v 0.12342422 0 0.625
v 0.14684197 0.17787547 0.625
vt 0.296875 0.64944871
vt 0.3671875 0.64944871
vt 0.3671875 0.671875
vn -0.99144486 0.13052619 0
vn -0.99144486 0.13052619 0
vn -0.99144486 0.13052619 0
f 85/85/85 86/86/86 87/87/87
v 0.12342422 0 0.0625
v 0.14684197 0.17787547 0.625
v 0.14684197 0.17787547 0.0625
vt 0.296875 0.64944871
vt 0.3671875 0.671875
vt 0.296875 0.671875
vn -0.99144486 0.13052619 0
vn -0.99144486 0.13052619 0
vn -0.99144486 0.13052619 0
f 88/88/88 89/89/89 90/90/90
v 0.14684197 0.17787547 0.625
v 0.39470318 0.14524392 0.625
v 0.39470318 0.14524392 0.0625
vt 0.5390625 0.4609375
vt 0.5078125 0.4609375
vt 0.5078125 0.390625
vn 0.13052619 0.99144486 0
vn 0.13052619 0.99144486 0
vn 0.13052619 0.99144486 0
f 91/91/91 92/92/92 93/93/93
v 0.14684197 0.17787547 0.625
v 0.39470318 0.14524392 0.0625
v 0.14684197 0.17787547 0.0625
vt 0.5390625 0.4609375
vt 0.5078125 0.390625
vt 0.5390625 0.390625
vn 0.13052619 0.99144486 0
vn 0.13052619 0.99144486 0
vn 0.13052619 0.99144486 0
f 94/94/94 95/95/95 96/96/96
v 0.65625 0 0.22986015
v 0.15625 0 0.22986015
v 0.15625 0.34565951 0.15322928
vt 0.2265625 0.77605601
vt 0.2890625 0.77605601
vt 0.2890625 0.8203125
vn 0 -0.21643961 -0.97629601
vn 0 -0.21643961 -0.97629601
vn 0 -0.21643961 -0.97629601
f 97/97/97 98/98/98 99/99/99
v 0.65625 0 0.22986015
v 0.15625 0.34565951 0.15322928
v 0.65625 0.34565951 0.15322928
vt 0.2265625 0.77605601
vt 0.2890625 0.8203125
vt 0.2265625 0.8203125
vn 0 -0.21643961 -0.97629601
vn 0 -0.21643961 -0.97629601
vn 0 -0.21643961 -0.97629601
f 100/100/100 101/101/101 102/102/102
v 0.65625 0 0.80601738
v 0.65625 0 0.22986015
v 0.65625 0.34565951 0.15322928
vt 0.2109375 0.9401556
vt 0.28125 0.95574351
vt 0.28125 1
vn 1 0 0
vn 1 0 0
vn 1 0 0
f 103/103/103 104/104/104 105/105/105
v 0.65625 0 0.80601738
v 0.65625 0.34565951 0.15322928
v 0.65625 0.46740679 0.70239578
vt 0.2109375 0.9401556
vt 0.28125 1
vt 0.2109375 1
vn 1 0 0
vn 1 0 0
vn 1 0 0
f 106/106/106 107/107/107 108/108/108
v 0.15625 0 0.80601738
v 0.65625 0 0.80601738
v 0.65625 0.46740679 0.70239578
vt 0.2890625 0.9401556
vt 0.3515625 0.9401556
vt 0.3515625 1
vn 0 0.21643961 0.97629601
vn 0 0.21643961 0.97629601
vn 0 0.21643961 0.97629601
f 109/109/109 110/110/110 111/111/111
v 0.15625 0 0.80601738
v 0.65625 0.46740679 0.70239578
v 0.15625 0.46740679 0.70239578
vt 0.2890625 0.9401556
vt 0.3515625 1
vt 0.2890625 1
vn 0 0.21643961 0.97629601
vn 0 0.21643961 0.97629601
vn 0 0.21643961 0.97629601
f 112/112/112 113/113/113 114/114/114
v 0.15625 0 0.22986015
v 0.15625 0 0.80601738
v 0.15625 0.46740679 0.70239578
vt 0.0703125 0.74480601
vt 0.140625 0.7292181
vt 0.140625 0.7890625
vn -1 0 0
vn -1 0 0
vn -1 0 0
f 115/115/115 116/116/116 117/117/117
v 0.15625 0 0.22986015
v 0.15625 0.46740679 0.70239578
v 0.15625 0.34565951 0.15322928
vt 0.0703125 0.74480601
vt 0.140625 0.7890625
vt 0.0703125 0.7890625
vn -1 0 0
vn -1 0 0
vn -1 0 0
f 118/118/118 119/119/119 120/120/120
v 0.15625 0.46740679 0.70239578
v 0.65625 0.46740679 0.70239578
v 0.65625 0.34565951 0.15322928
vt 0.5625 0.5390625
vt 0.5 0.5390625
vt 0.5 0.46875
vn 0 0.97629601 -0.21643961
vn 0 0.97629601 -0.21643961
vn 0 0.97629601 -0.21643961
f 121/121/121 122/122/122 123/123/123
v 0.15625 0.46740679 0.70239578
v 0.65625 0.34565951 0.15322928
v 0.15625 0.34565951 0.15322928
vt 0.5625 0.5390625
vt 0.5 0.46875
vt 0.5625 0.46875
vn 0 0.97629601 -0.21643961
vn 0 0.97629601 -0.21643961
vn 0 0.97629601 -0.21643961
f 124/124/124 125/125/125 126/126/126
