# Generated by Shadows And Petals
mtllib material.mtl
o rockery
usemtl rockery
v 0.734375 0 0.66991098
v 0.171875 0 0.66991098
v 0.171875 0.35600992 0.73268513
vt 0.1484375 0.74387476
vt 0.21875 0.74387476
vt 0.21875 0.7890625
vn 0 0.17364818 -0.98480775
vn 0 0.17364818 -0.98480775
vn 0 0.17364818 -0.98480775
f 1/1/1 2/2/2 3/3/3
v 0.734375 0 0.66991098
v 0.171875 0.35600992 0.73268513
v 0.734375 0.35600992 0.73268513
vt 0.1484375 0.74387476
vt 0.21875 0.7890625
vt 0.1484375 0.7890625
vn 0 0.17364818 -0.98480775
vn 0 0.17364818 -0.98480775
vn 0 0.17364818 -0.98480775
f 4/4/4 5/5/5 6/6/6
v 0.734375 0 1
v 0.734375 0 0.66991098
v 0.734375 0.35600992 0.73268513
vt 0.38124072 0.96197718
vt 0.421875 0.95481226
vt 0.421875 1
vn 1 0 0
vn 1 0 0
vn 1 0 0
f 7/7/7 8/8/8 9/9/9
v 0.734375 0 1
v 0.734375 0.35600992 0.73268513
v 0.734375 0.3088751 1
vt 0.38124072 0.96197718
vt 0.421875 1
vt 0.38794517 1
vn 1 0 0
vn 1 0 0
vn 1 0 0
f 10/10/10 11/11/11 12/12/12
v 0.171875 0 0.66991098
v 0.171875 0 1
v 0.171875 0.3088751 1
vt 0.2265625 0.59543726
vt 0.26719678 0.60260218
vt 0.26049233 0.640625
vn -1 0 0
vn -1 0 0
vn -1 0 0
f 13/13/13 14/14/14 15/15/15
v 0.171875 0 0.66991098
v 0.171875 0.3088751 1
v 0.171875 0.35600992 0.73268513
vt 0.2265625 0.59543726
vt 0.26049233 0.640625
vt 0.2265625 0.640625
vn -1 0 0
vn -1 0 0
vn -1 0 0
f 16/16/16 17/17/17 18/18/18
v 0.171875 0.3088751 1
v 0.734375 0.3088751 1
v 0.734375 0.35600992 0.73268513
vt 0.3671875 0.49486733
vt 0.296875 0.49486733
vt 0.296875 0.4609375
vn 0 0.98480775 0.17364818
vn 0 0.98480775 0.17364818
vn 0 0.98480775 0.17364818
f 19/19/19 20/20/20 21/21/21
v 0.171875 0.3088751 1
v 0.734375 0.35600992 0.73268513
v 0.171875 0.35600992 0.73268513
vt 0.3671875 0.49486733
vt 0.296875 0.4609375
vt 0.3671875 0.4609375
vn 0 0.98480775 0.17364818
vn 0 0.98480775 0.17364818
vn 0 0.98480775 0.17364818
f 22/22/22 23/23/23 24/24/24
v 0.765625 0 0.48472209
v 0.765625 0.0535254 0.515625
v 0.765625 0 0.60833372
vt 0.375 0.82821177
vt 0.375 0.8359375
vt 0.38913896 0.8359375
vn 1 0 0
vn 1 0 0
vn 1 0 0
f 25/25/25 26/26/26 27/27/27
v 0.265625 0 0.60833372
v 0.265625 0.0535254 0.515625
v 0.265625 0 0.48472209
vt 0.44322393 0.70292969
vt 0.42984258 0.70292969
vt 0.42984258 0.69520396
vn -1 0 0
vn -1 0 0
vn -1 0 0
f 28/28/28 29/29/29 30/30/30
v 0.765625 0 0.60833372
v 0.765625 0.0535254 0.515625
v 0.265625 0.0535254 0.515625
vt 0.5390625 0.65400635
vt 0.5390625 0.640625
vt 0.6015625 0.640625
vn 0 0.8660254 0.5
vn 0 0.8660254 0.5
vn 0 0.8660254 0.5
f 31/31/31 32/32/32 33/33/33
v 0.765625 0 0.60833372
v 0.265625 0.0535254 0.515625
v 0.265625 0 0.60833372
vt 0.5390625 0.65400635
vt 0.6015625 0.640625
vt 0.6015625 0.65400635
vn 0 0.8660254 0.5
vn 0 0.8660254 0.5
vn 0 0.8660254 0.5
f 34/34/34 35/35/35 36/36/36
v 0.265625 0 0.48472209
v 0.265625 0.0535254 0.515625
v 0.765625 0.0535254 0.515625
vt 0.2109375 0.61727427
vt 0.2109375 0.625
vt 0.1484375 0.625
vn 0 0.5 -0.8660254
vn 0 0.5 -0.8660254
vn 0 0.5 -0.8660254
f 37/37/37 38/38/38 39/39/39
v 0.265625 0 0.48472209
v 0.765625 0.0535254 0.515625
v 0.765625 0 0.48472209
vt 0.2109375 0.61727427
vt 0.1484375 0.625
vt 0.1484375 0.61727427
vn 0 0.5 -0.8660254
vn 0 0.5 -0.8660254
vn 0 0.5 -0.8660254
f 40/40/40 41/41/41 42/42/42
