# Generated by Shadows And Petals
mtllib material.mtl
o rockery
usemtl rockery
v 0.9375 0 0.15625
v 0.1875 0 0.15625
v 0.1875 0.25 0.15625
vt 0 0.5390625
vt 0.09375 0.5390625
vt 0.09375 0.5703125
vn 0 0 -1
vn 0 0 -1
vn 0 0 -1
f 1/1/1 2/2/2 3/3/3
v 0.9375 0 0.15625
v 0.1875 0.25 0.15625
v 0.9375 0.25 0.15625
vt 0 0.5390625
vt 0.09375 0.5703125
vt 0 0.5703125
vn 0 0 -1
vn 0 0 -1
vn 0 0 -1
f 4/4/4 5/5/5 6/6/6
v 0.9375 0 1
v 0.9375 0 0.15625
v 0.9375 0.25 0.15625
vt 0.45703125 0.7109375
vt 0.5625 0.7109375
vt 0.5625 0.7421875
vn 1 0 0
vn 1 0 0
vn 1 0 0
f 7/7/7 8/8/8 9/9/9
v 0.9375 0 1
v 0.9375 0.25 0.15625
v 0.9375 0.25 1
vt 0.45703125 0.7109375
vt 0.5625 0.7421875
vt 0.45703125 0.7421875
vn 1 0 0
vn 1 0 0
vn 1 0 0
f 10/10/10 11/11/11 12/12/12
v 0.1875 0 0.15625
v 0.1875 0 1
v 0.1875 0.25 1
vt 0.375 0.671875
vt 0.48046875 0.671875
vt 0.48046875 0.703125
vn -1 0 0
vn -1 0 0
vn -1 0 0
f 13/13/13 14/14/14 15/15/15
v 0.1875 0 0.15625
v 0.1875 0.25 1
v 0.1875 0.25 0.15625
vt 0.375 0.671875
vt 0.48046875 0.703125
vt 0.375 0.703125
vn -1 0 0
vn -1 0 0
vn -1 0 0
f 16/16/16 17/17/17 18/18/18
v 0.1875 0.25 1
v 0.9375 0.25 1
v 0.9375 0.25 0.15625
vt 0.09375 0.91796875
vt 0 0.91796875
vt 0 0.8125
vn 0 1 0
vn 0 1 0
vn 0 1 0
f 19/19/19 20/20/20 21/21/21
v 0.1875 0.25 1
v 0.9375 0.25 0.15625
v 0.1875 0.25 0.15625
vt 0.09375 0.91796875
vt 0 0.8125
vt 0.09375 0.8125
vn 0 1 0
vn 0 1 0
vn 0 1 0
f 22/22/22 23/23/23 24/24/24
v 0.1875 0 1
v 0.1875 0 0.15625
v 0.9375 0 0.15625
vt 0.1953125 0.91796875
vt 0.1953125 0.8125
vt 0.1015625 0.8125
vn 0 -1 0
vn 0 -1 0
vn 0 -1 0
f 25/25/25 26/26/26 27/27/27
v 0.1875 0 1
v 0.9375 0 0.15625
v 0.9375 0 1
vt 0.1953125 0.91796875
vt 0.1015625 0.8125
vt 0.1015625 0.91796875
vn 0 -1 0
vn 0 -1 0
vn 0 -1 0
f 28/28/28 29/29/29 30/30/30
v 0.859375 0.06709536 0.34078584
v 0.171875 0.06709536 0.34078584
v 0.171875 0.31685742 0.329881
vt 0.421875 0.5078125
vt 0.5078125 0.5078125
vt 0.5078125 0.5390625
vn 0 -0.04361939 -0.99904822
vn 0 -0.04361939 -0.99904822
vn 0 -0.04361939 -0.99904822
f 31/31/31 32/32/32 33/33/33
v 0.859375 0.06709536 0.34078584
v 0.171875 0.31685742 0.329881
v 0.859375 0.31685742 0.329881
vt 0.421875 0.5078125
vt 0.5078125 0.5390625
vt 0.421875 0.5390625
vn 0 -0.04361939 -0.99904822
vn 0 -0.04361939 -0.99904822
vn 0 -0.04361939 -0.99904822
f 34/34/34 35/35/35 36/36/36
v 0.859375 0.09587727 1
v 0.859375 0.06709536 0.34078584
v 0.859375 0.31685742 0.329881
vt 0.10501973 0.578125
vt 0.1875 0.578125
vt 0.1875 0.609375
vn 1 0 0
vn 1 0 0
vn 1 0 0
f 37/37/37 38/38/38 39/39/39
v 0.859375 0.09587727 1
v 0.859375 0.31685742 0.329881
v 0.859375 0.34611544 1
vt 0.10501973 0.578125
vt 0.1875 0.609375
vt 0.10365532 0.609375
vn 1 0 0
vn 1 0 0
vn 1 0 0
f 40/40/40 41/41/41 42/42/42
v 0.171875 0.06709536 0.34078584
v 0.171875 0.09587727 1
v 0.171875 0.34611544 1
vt 0.390625 0.96875
vt 0.47310527 0.96875
vt 0.47446968 1
vn -1 0 0
vn -1 0 0
vn -1 0 0
f 43/43/43 44/44/44 45/45/45
v 0.171875 0.06709536 0.34078584
v 0.171875 0.34611544 1
v 0.171875 0.31685742 0.329881
vt 0.390625 0.96875
vt 0.47446968 1
vt 0.390625 1
vn -1 0 0
vn -1 0 0
vn -1 0 0
f 46/46/46 47/47/47 48/48/48
v 0.171875 0.34611544 1
v 0.859375 0.34611544 1
v 0.859375 0.31685742 0.329881
vt 0.0859375 0.70103218
vt 0 0.70103218
vt 0 0.6171875
vn 0 0.99904822 -0.04361939
vn 0 0.99904822 -0.04361939
vn 0 0.99904822 -0.04361939
f 49/49/49 50/50/50 51/51/51
v 0.171875 0.34611544 1
v 0.859375 0.31685742 0.329881
v 0.171875 0.31685742 0.329881
vt 0.0859375 0.70103218
vt 0 0.6171875
vt 0.0859375 0.6171875
vn 0 0.99904822 -0.04361939
vn 0 0.99904822 -0.04361939
vn 0 0.99904822 -0.04361939
f 52/52/52 53/53/53 54/54/54
v 0.171875 0.09587727 1
v 0.171875 0.06709536 0.34078584
v 0.859375 0.06709536 0.34078584
vt 0.1796875 0.69966777
vt 0.1796875 0.6171875
vt 0.09375 0.6171875
vn 0 -0.99904822 0.04361939
vn 0 -0.99904822 0.04361939
vn 0 -0.99904822 0.04361939
f 55/55/55 56/56/56 57/57/57
v 0.171875 0.09587727 1
v 0.859375 0.06709536 0.34078584
v 0.859375 0.09587727 1
vt 0.1796875 0.69966777
vt 0.09375 0.6171875
vt 0.09375 0.69966777
vn 0 -0.99904822 0.04361939
vn 0 -0.99904822 0.04361939
vn 0 -0.99904822 0.04361939
f 58/58/58 59/59/59 60/60/60
v 0.96880943 0.15624741 0.46880949
v 0.28196378 0.18623573 0.46880949
v 0.29558186 0.49814116 0.48244054
vt 0.421875 0.59375
vt 0.5078125 0.59375
vt 0.5078125 0.6328125
vn 0.00190265 0.04357787 -0.99904822
vn 0.00190265 0.04357787 -0.99904822
vn 0.00190265 0.04357787 -0.99904822
f 61/61/61 62/62/62 63/63/63
v 0.96880943 0.15624741 0.46880949
v 0.29558186 0.49814116 0.48244054
v 0.98242751 0.46815283 0.48244054
vt 0.421875 0.59375
vt 0.5078125 0.6328125
vt 0.421875 0.6328125
vn 0.00190265 0.04357787 -0.99904822
vn 0.00190265 0.04357787 -0.99904822
vn 0.00190265 0.04357787 -0.99904822
f 64/64/64 65/65/65 66/66/66
v 0.9677978 0.1330772 1
v 0.96880943 0.15624741 0.46880949
v 0.98242751 0.46815283 0.48244054
vt 0.46478793 0.796875
vt 0.53125 0.796875
vt 0.53125 0.8359375
vn 0.99904822 -0.04361939 0
vn 0.99904822 -0.04361939 0
vn 0.99904822 -0.04361939 0
f 67/67/67 68/68/68 69/69/69
v 0.9677978 0.1330772 1
v 0.98242751 0.46815283 0.48244054
v 0.98144184 0.4455772 1
vt 0.46478793 0.796875
vt 0.53125 0.8359375
vt 0.46649343 0.8359375
vn 0.99904822 -0.04361939 0
vn 0.99904822 -0.04361939 0
vn 0.99904822 -0.04361939 0
f 70/70/70 71/71/71 72/72/72
v 0.28196378 0.18623573 0.46880949
v 0.28095214 0.16306553 1
v 0.29459619 0.47556553 1
vt 0.375 0.75
vt 0.44146207 0.75
vt 0.43975657 0.7890625
vn -0.99904822 0.04361939 0
vn -0.99904822 0.04361939 0
vn -0.99904822 0.04361939 0
f 73/73/73 74/74/74 75/75/75
v 0.28196378 0.18623573 0.46880949
v 0.29459619 0.47556553 1
v 0.29558186 0.49814116 0.48244054
vt 0.375 0.75
vt 0.43975657 0.7890625
vt 0.375 0.7890625
vn -0.99904822 0.04361939 0
vn -0.99904822 0.04361939 0
vn -0.99904822 0.04361939 0
f 76/76/76 77/77/77 78/78/78
v 0.29459619 0.47556553 1
v 0.98144184 0.4455772 1
v 0.98242751 0.46815283 0.48244054
vt 0.3671875 0.72100657
vt 0.28125 0.72100657
vt 0.28125 0.65625
vn 0.04357787 0.99809735 0.04361939
vn 0.04357787 0.99809735 0.04361939
vn 0.04357787 0.99809735 0.04361939
f 79/79/79 80/80/80 81/81/81
v 0.29459619 0.47556553 1
v 0.98242751 0.46815283 0.48244054
v 0.29558186 0.49814116 0.48244054
vt 0.3671875 0.72100657
vt 0.28125 0.65625
vt 0.3671875 0.65625
vn 0.04357787 0.99809735 0.04361939
vn 0.04357787 0.99809735 0.04361939
vn 0.04357787 0.99809735 0.04361939
f 82/82/82 83/83/83 84/84/84
v 0.28095214 0.16306553 1
v 0.28196378 0.18623573 0.46880949
v 0.96880943 0.15624741 0.46880949
vt 0.3828125 0.91021207
vt 0.3828125 0.84375
vt 0.296875 0.84375
vn -0.04357787 -0.99809735 -0.04361939
vn -0.04357787 -0.99809735 -0.04361939
vn -0.04357787 -0.99809735 -0.04361939
f 85/85/85 86/86/86 87/87/87
v 0.28095214 0.16306553 1
v 0.96880943 0.15624741 0.46880949
v 0.9677978 0.1330772 1
vt 0.3828125 0.91021207
vt 0.296875 0.84375
vt 0.296875 0.91021207
vn -0.04357787 -0.99809735 -0.04361939
vn -0.04357787 -0.99809735 -0.04361939
vn -0.04357787 -0.99809735 -0.04361939
f 88/88/88 89/89/89 90/90/90
v 0.61209839 0.12040914 0.09671416
v 0.11257428 0.09859945 0.09671416
v 0.10167981 0.34812379 0.08580931
vt 0.1953125 0.5859375
vt 0.2578125 0.5859375
vt 0.2578125 0.6171875
vn 0.00190265 -0.04357787 -0.99904822
vn 0.00190265 -0.04357787 -0.99904822
vn 0.00190265 -0.04357787 -0.99904822
f 91/91/91 92/92/92 93/93/93
v 0.61209839 0.12040914 0.09671416
v 0.10167981 0.34812379 0.08580931
v 0.60120392 0.36993348 0.08580931
vt 0.1953125 0.5859375
vt 0.2578125 0.6171875
vt 0.1953125 0.6171875
vn 0.00190265 -0.04357787 -0.99904822
vn 0.00190265 -0.04357787 -0.99904822
vn 0.00190265 -0.04357787 -0.99904822
f 94/94/94 95/95/95 96/96/96
v 0.61037812 0.15980992 1
v 0.61209839 0.12040914 0.09671416
v 0.60120392 0.36993348 0.08580931
vt 0.4260442 0.9296875
vt 0.5390625 0.9296875
vt 0.5390625 0.9609375
vn 0.99904822 0.04361939 0
vn 0.99904822 0.04361939 0
vn 0.99904822 0.04361939 0
f 97/97/97 98/98/98 99/99/99
v 0.61037812 0.15980992 1
v 0.60120392 0.36993348 0.08580931
v 0.59946288 0.40980992 1
vt 0.4260442 0.9296875
vt 0.5390625 0.9609375
vt 0.4246798 0.9609375
vn 0.99904822 0.04361939 0
vn 0.99904822 0.04361939 0
vn 0.99904822 0.04361939 0
f 100/100/100 101/101/101 102/102/102
v 0.11257428 0.09859945 0.09671416
v 0.110854 0.13800022 1
v 0.09993877 0.38800022 1
vt 0.390625 0.890625
vt 0.5036433 0.890625
vt 0.5050077 0.921875
vn -0.99904822 -0.04361939 0
vn -0.99904822 -0.04361939 0
vn -0.99904822 -0.04361939 0
f 103/103/103 104/104/104 105/105/105
v 0.11257428 0.09859945 0.09671416
v 0.09993877 0.38800022 1
v 0.10167981 0.34812379 0.08580931
vt 0.390625 0.890625
vt 0.5050077 0.921875
vt 0.390625 0.921875
vn -0.99904822 -0.04361939 0
vn -0.99904822 -0.04361939 0
vn -0.99904822 -0.04361939 0
f 106/106/106 107/107/107 108/108/108
v 0.09993877 0.38800022 1
v 0.59946288 0.40980992 1
v 0.60120392 0.36993348 0.08580931
vt 0.34375 0.6143827
vt 0.28125 0.6143827
vt 0.28125 0.5
vn -0.04357787 0.99809735 -0.04361939
vn -0.04357787 0.99809735 -0.04361939
vn -0.04357787 0.99809735 -0.04361939
f 109/109/109 110/110/110 111/111/111
v 0.09993877 0.38800022 1
v 0.60120392 0.36993348 0.08580931
v 0.10167981 0.34812379 0.08580931
vt 0.34375 0.6143827
vt 0.28125 0.5
vt 0.34375 0.5
vn -0.04357787 0.99809735 -0.04361939
vn -0.04357787 0.99809735 -0.04361939
vn -0.04357787 0.99809735 -0.04361939
f 112/112/112 113/113/113 114/114/114
v 0.110854 0.13800022 1
v 0.11257428 0.09859945 0.09671416
v 0.61209839 0.12040914 0.09671416
vt 0.4140625 0.6130183
vt 0.4140625 0.5
vt 0.3515625 0.5
vn 0.04357787 -0.99809735 0.04361939
vn 0.04357787 -0.99809735 0.04361939
vn 0.04357787 -0.99809735 0.04361939
f 115/115/115 116/116/116 117/117/117
v 0.110854 0.13800022 1
v 0.61209839 0.12040914 0.09671416
v 0.61037812 0.15980992 1
vt 0.4140625 0.6130183
vt 0.3515625 0.5
vt 0.3515625 0.6130183
vn 0.04357787 -0.99809735 0.04361939
vn 0.04357787 -0.99809735 0.04361939
vn 0.04357787 -0.99809735 0.04361939
f 118/118/118 119/119/119 120/120/120
v 0.71875 0.046875 0.3125
v 0.03125 0.046875 0.3125
v 0.03125 0.234375 0.3125
vt 0.09375 0.5078125
vt 0.1796875 0.5078125
vt 0.1796875 0.53125
vn 0 0 -1
vn 0 0 -1
vn 0 0 -1
f 121/121/121 122/122/122 123/123/123
v 0.71875 0.046875 0.3125
v 0.03125 0.234375 0.3125
v 0.71875 0.234375 0.3125
vt 0.09375 0.5078125
vt 0.1796875 0.53125
vt 0.09375 0.53125
vn 0 0 -1
vn 0 0 -1
vn 0 0 -1
f 124/124/124 125/125/125 126/126/126
v 0.71875 0.046875 1
v 0.71875 0.046875 0.3125
v 0.71875 0.234375 0.3125
vt 0.484375 0.859375
vt 0.5703125 0.859375
vt 0.5703125 0.8828125
vn 1 0 0
vn 1 0 0
vn 1 0 0
f 127/127/127 128/128/128 129/129/129
v 0.71875 0.046875 1
v 0.71875 0.234375 0.3125
v 0.71875 0.234375 1
vt 0.484375 0.859375
vt 0.5703125 0.8828125
vt 0.484375 0.8828125
vn 1 0 0
vn 1 0 0
vn 1 0 0
f 130/130/130 131/131/131 132/132/132
v 0.03125 0.046875 0.3125
v 0.03125 0.046875 1
v 0.03125 0.234375 1
vt 0.421875 0.640625
vt 0.5078125 0.640625
vt 0.5078125 0.6640625
vn -1 0 0
vn -1 0 0
vn -1 0 0
f 133/133/133 134/134/134 135/135/135
v 0.03125 0.046875 0.3125
v 0.03125 0.234375 1
v 0.03125 0.234375 0.3125
vt 0.421875 0.640625
vt 0.5078125 0.6640625
vt 0.421875 0.6640625
vn -1 0 0
vn -1 0 0
vn -1 0 0
f 136/136/136 137/137/137 138/138/138
v 0.03125 0.234375 1
v 0.71875 0.234375 1
v 0.71875 0.234375 0.3125
vt 0.2734375 0.7109375
vt 0.1875 0.7109375
vt 0.1875 0.625
vn 0 1 0
vn 0 1 0
vn 0 1 0
f 139/139/139 140/140/140 141/141/141
v 0.03125 0.234375 1
v 0.71875 0.234375 0.3125
v 0.03125 0.234375 0.3125
vt 0.2734375 0.7109375
vt 0.1875 0.625
vt 0.2734375 0.625
vn 0 1 0
vn 0 1 0
vn 0 1 0
f 142/142/142 143/143/143 144/144/144
v 0.03125 0.046875 1
v 0.03125 0.046875 0.3125
v 0.71875 0.046875 0.3125
vt 0.2890625 0.90625
vt 0.2890625 0.8203125
vt 0.203125 0.8203125
vn 0 -1 0
vn 0 -1 0
vn 0 -1 0
f 145/145/145 146/146/146 147/147/147
v 0.03125 0.046875 1
v 0.71875 0.046875 0.3125
v 0.71875 0.046875 1
vt 0.2890625 0.90625
vt 0.203125 0.8203125
vt 0.203125 0.90625
vn 0 -1 0
vn 0 -1 0
vn 0 -1 0
f 148/148/148 149/149/149 150/150/150
