# Generated by Shadows And Petals
mtllib material.mtl
o rockery
usemtl rockery
v 0.92113588 0 0.359375
v 0.67109779 0 0.359375
v 0.65372404 0.99534181 0.359375
vt 0.3671875 0.58595535
vt 0.3984375 0.58650082
vt 0.3984375 0.7109375
vn 0 0 -1
vn 0 0 -1
vn 0 0 -1
f 1/1/1 2/2/2 3/3/3
v 0.92113588 0 0.359375
v 0.65372404 0.99534181 0.359375
v 0.90368596 0.99970491 0.359375
vt 0.3671875 0.58595535
vt 0.3984375 0.7109375
vt 0.3671875 0.7109375
vn 0 0 -1
vn 0 0 -1
vn 0 0 -1
f 4/4/4 5/5/5 6/6/6
v 0.92113588 0 0.796875
v 0.92113588 0 0.359375
v 0.90368596 0.99970491 0.359375
vt 0.3125 0.83595535
vt 0.3671875 0.83595535
vt 0.3671875 0.9609375
vn 0.9998477 0.01745241 0
vn 0.9998477 0.01745241 0
vn 0.9998477 0.01745241 0
f 7/7/7 8/8/8 9/9/9
v 0.92113588 0 0.796875
v 0.90368596 0.99970491 0.359375
v 0.90368596 0.99970491 0.796875
vt 0.3125 0.83595535
vt 0.3671875 0.9609375
vt 0.3125 0.9609375
vn 0.9998477 0.01745241 0
vn 0.9998477 0.01745241 0
vn 0.9998477 0.01745241 0
f 10/10/10 11/11/11 12/12/12
v 0.67109779 0 0.796875
v 0.92113588 0 0.796875
v 0.90368596 0.99970491 0.796875
vt 0.3984375 0.58650082
vt 0.4296875 0.58595535
vt 0.4296875 0.7109375
vn 0 0 1
vn 0 0 1
vn 0 0 1
f 13/13/13 14/14/14 15/15/15
v 0.67109779 0 0.796875
v 0.90368596 0.99970491 0.796875
v 0.65372404 0.99534181 0.796875
vt 0.3984375 0.58650082
vt 0.4296875 0.7109375
vt 0.3984375 0.7109375
vn 0 0 1
vn 0 0 1
vn 0 0 1
f 16/16/16 17/17/17 18/18/18
v 0.67109779 0 0.359375
v 0.67109779 0 0.796875
v 0.65372404 0.99534181 0.796875
vt 0.3125 0.55525082
vt 0.3671875 0.55525082
vt 0.3671875 0.6796875
vn -0.9998477 -0.01745241 0
vn -0.9998477 -0.01745241 0
vn -0.9998477 -0.01745241 0
f 19/19/19 20/20/20 21/21/21
v 0.67109779 0 0.359375
v 0.65372404 0.99534181 0.796875
v 0.65372404 0.99534181 0.359375
vt 0.3125 0.55525082
vt 0.3671875 0.6796875
vt 0.3125 0.6796875
vn -0.9998477 -0.01745241 0
vn -0.9998477 -0.01745241 0
vn -0.9998477 -0.01745241 0
f 22/22/22 23/23/23 24/24/24
v 0.65372404 0.99534181 0.796875
v 0.90368596 0.99970491 0.796875
v 0.90368596 0.99970491 0.359375
vt 0.5390625 0.5234375
vt 0.5078125 0.5234375
vt 0.5078125 0.46875
vn -0.01745241 0.9998477 0
vn -0.01745241 0.9998477 0
vn -0.01745241 0.9998477 0
f 25/25/25 26/26/26 27/27/27
v 0.65372404 0.99534181 0.796875
v 0.90368596 0.99970491 0.359375
v 0.65372404 0.99534181 0.359375
vt 0.5390625 0.5234375
vt 0.5078125 0.46875
vt 0.5390625 0.46875
vn -0.01745241 0.9998477 0
vn -0.01745241 0.9998477 0
vn -0.01745241 0.9998477 0
f 28/28/28 29/29/29 30/30/30
v 0.90368081 1 0.359375
v 0.90368596 0.99970491 0.359375
v 0.65372404 0.99534181 0.359375
vt 0.3671875 0.71097439
vt 0.3671875 0.7109375
vt 0.3984375 0.7109375
vn 0 0 -1
vn 0 0 -1
vn 0 0 -1
f 31/31/31 32/32/32 33/33/33
v 0.90368081 1 0.359375
v 0.65372404 0.99534181 0.359375
v 0.65364273 1 0.359375
vt 0.3671875 0.71097439
vt 0.3984375 0.7109375
vt 0.3984375 0.71151986
vn 0 0 -1
vn 0 0 -1
vn 0 0 -1
f 34/34/34 35/35/35 36/36/36
v 0.90368081 1 0.796875
v 0.90368596 0.99970491 0.796875
v 0.90368596 0.99970491 0.359375
vt 0.3125 0.96097439
vt 0.3125 0.9609375
vt 0.3671875 0.9609375
vn 0.9998477 0.01745241 0
vn 0.9998477 0.01745241 0
vn 0.9998477 0.01745241 0
f 37/37/37 38/38/38 39/39/39
v 0.90368081 1 0.796875
v 0.90368596 0.99970491 0.359375
v 0.90368081 1 0.359375
vt 0.3125 0.96097439
vt 0.3671875 0.9609375
vt 0.3671875 0.96097439
vn 0.9998477 0.01745241 0
vn 0.9998477 0.01745241 0
vn 0.9998477 0.01745241 0
f 40/40/40 41/41/41 42/42/42
v 0.65364273 1 0.796875
v 0.65372404 0.99534181 0.796875
v 0.90368596 0.99970491 0.796875
vt 0.3984375 0.71151986
vt 0.3984375 0.7109375
vt 0.4296875 0.7109375
vn 0 0 1
vn 0 0 1
vn 0 0 1
f 43/43/43 44/44/44 45/45/45
v 0.65364273 1 0.796875
v 0.90368596 0.99970491 0.796875
v 0.90368081 1 0.796875
vt 0.3984375 0.71151986
vt 0.4296875 0.7109375
vt 0.4296875 0.71097439
vn 0 0 1
vn 0 0 1
vn 0 0 1
f 46/46/46 47/47/47 48/48/48
v 0.65364273 1 0.359375
v 0.65372404 0.99534181 0.359375
v 0.65372404 0.99534181 0.796875
vt 0.3125 0.68026986
vt 0.3125 0.6796875
vt 0.3671875 0.6796875
vn -0.9998477 -0.01745241 0
vn -0.9998477 -0.01745241 0
vn -0.9998477 -0.01745241 0
f 49/49/49 50/50/50 51/51/51
v 0.65364273 1 0.359375
v 0.65372404 0.99534181 0.796875
v 0.65364273 1 0.796875
vt 0.3125 0.68026986
vt 0.3671875 0.6796875
vt 0.3671875 0.68026986
vn -0.9998477 -0.01745241 0
vn -0.9998477 -0.01745241 0
vn -0.9998477 -0.01745241 0
f 52/52/52 53/53/53 54/54/54
v 0.25 1 0.25
v 0.75 1 0.25
v 0.75 1 0.75
vt 0.546875 0.875
vt 0.484375 0.875
vt 0.484375 0.9375
vn 0 -1 0
vn 0 -1 0
vn 0 -1 0
f 55/55/55 56/56/56 57/57/57
v 0.25 1 0.25
v 0.75 1 0.75
v 0.25 1 0.75
vt 0.546875 0.875
vt 0.484375 0.9375
vt 0.546875 0.9375
vn 0 -1 0
vn 0 -1 0
vn 0 -1 0
f 58/58/58 59/59/59 60/60/60
v 0.39739079 1 0.1875
v 0.39671513 0.98452487 0.1875
v 0.08451256 0.99815593 0.1875
vt 0.2109375 0.63474873
vt 0.2109375 0.6328125
vt 0.25 0.6328125
vn 0 0 -1
vn 0 0 -1
vn 0 0 -1
f 61/61/61 62/62/62 63/63/63
v 0.39739079 1 0.1875
v 0.08451256 0.99815593 0.1875
v 0.08459308 1 0.1875
vt 0.2109375 0.63474873
vt 0.25 0.6328125
vt 0.25 0.63304323
vn 0 0 -1
vn 0 0 -1
vn 0 0 -1
f 64/64/64 65/65/65 66/66/66
v 0.39739079 1 0.6875
v 0.39671513 0.98452487 0.6875
v 0.39671513 0.98452487 0.1875
vt 0.25 0.99412373
vt 0.25 0.9921875
vt 0.3125 0.9921875
vn 0.99904822 -0.04361939 0
vn 0.99904822 -0.04361939 0
vn 0.99904822 -0.04361939 0
f 67/67/67 68/68/68 69/69/69
v 0.39739079 1 0.6875
v 0.39671513 0.98452487 0.1875
v 0.39739079 1 0.1875
vt 0.25 0.99412373
vt 0.3125 0.9921875
vt 0.3125 0.99412373
vn 0.99904822 -0.04361939 0
vn 0.99904822 -0.04361939 0
vn 0.99904822 -0.04361939 0
f 70/70/70 71/71/71 72/72/72
v 0.08459308 1 0.6875
v 0.08451256 0.99815593 0.6875
v 0.39671513 0.98452487 0.6875
vt 0.3671875 0.99241823
vt 0.3671875 0.9921875
vt 0.40625 0.9921875
vn 0 0 1
vn 0 0 1
vn 0 0 1
f 73/73/73 74/74/74 75/75/75
v 0.08459308 1 0.6875
v 0.39671513 0.98452487 0.6875
v 0.39739079 1 0.6875
vt 0.3671875 0.99241823
vt 0.40625 0.9921875
vt 0.40625 0.99412373
vn 0 0 1
vn 0 0 1
vn 0 0 1
f 76/76/76 77/77/77 78/78/78
v 0.08459308 1 0.1875
v 0.08451256 0.99815593 0.1875
v 0.08451256 0.99815593 0.6875
vt 0.25 0.74241823
vt 0.25 0.7421875
vt 0.3125 0.7421875
vn -0.99904822 0.04361939 0
vn -0.99904822 0.04361939 0
vn -0.99904822 0.04361939 0
f 79/79/79 80/80/80 81/81/81
v 0.08459308 1 0.1875
v 0.08451256 0.99815593 0.6875
v 0.08459308 1 0.6875
vt 0.25 0.74241823
vt 0.3125 0.7421875
vt 0.3125 0.74241823
vn -0.99904822 0.04361939 0
vn -0.99904822 0.04361939 0
vn -0.99904822 0.04361939 0
f 82/82/82 83/83/83 84/84/84
v 0.35372985 0 0.1875
v 0.04093213 0 0.1875
v 0.08451256 0.99815593 0.1875
vt 0.2109375 0.50962965
vt 0.25 0.50792414
vt 0.25 0.6328125
vn 0 0 -1
vn 0 0 -1
vn 0 0 -1
f 85/85/85 86/86/86 87/87/87
v 0.35372985 0 0.1875
v 0.08451256 0.99815593 0.1875
v 0.39671513 0.98452487 0.1875
vt 0.2109375 0.50962965
vt 0.25 0.6328125
vt 0.2109375 0.6328125
vn 0 0 -1
vn 0 0 -1
vn 0 0 -1
f 88/88/88 89/89/89 90/90/90
v 0.35372985 0 0.6875
v 0.35372985 0 0.1875
v 0.39671513 0.98452487 0.1875
vt 0.25 0.86900465
vt 0.3125 0.86900465
vt 0.3125 0.9921875
vn 0.99904822 -0.04361939 0
vn 0.99904822 -0.04361939 0
vn 0.99904822 -0.04361939 0
f 91/91/91 92/92/92 93/93/93
v 0.35372985 0 0.6875
v 0.39671513 0.98452487 0.1875
v 0.39671513 0.98452487 0.6875
vt 0.25 0.86900465
vt 0.3125 0.9921875
vt 0.25 0.9921875
vn 0.99904822 -0.04361939 0
vn 0.99904822 -0.04361939 0
vn 0.99904822 -0.04361939 0
f 94/94/94 95/95/95 96/96/96
v 0.04093213 0 0.6875
v 0.35372985 0 0.6875
v 0.39671513 0.98452487 0.6875
vt 0.3671875 0.86729914
vt 0.40625 0.86900465
vt 0.40625 0.9921875
vn 0 0 1
vn 0 0 1
vn 0 0 1
f 97/97/97 98/98/98 99/99/99
v 0.04093213 0 0.6875
v 0.39671513 0.98452487 0.6875
v 0.08451256 0.99815593 0.6875
vt 0.3671875 0.86729914
vt 0.40625 0.9921875
vt 0.3671875 0.9921875
vn 0 0 1
vn 0 0 1
vn 0 0 1
f 100/100/100 101/101/101 102/102/102
v 0.04093213 0 0.1875
v 0.04093213 0 0.6875
v 0.08451256 0.99815593 0.6875
vt 0.25 0.61729914
vt 0.3125 0.61729914
vt 0.3125 0.7421875
vn -0.99904822 0.04361939 0
vn -0.99904822 0.04361939 0
vn -0.99904822 0.04361939 0
f 103/103/103 104/104/104 105/105/105
v 0.04093213 0 0.1875
v 0.08451256 0.99815593 0.6875
v 0.08451256 0.99815593 0.1875
vt 0.25 0.61729914
vt 0.3125 0.7421875
vt 0.25 0.7421875
vn -0.99904822 0.04361939 0
vn -0.99904822 0.04361939 0
vn -0.99904822 0.04361939 0
f 106/106/106 107/107/107 108/108/108
v 0.08451256 0.99815593 0.6875
v 0.39671513 0.98452487 0.6875
v 0.39671513 0.98452487 0.1875
vt 0.546875 0.6484375
vt 0.5078125 0.6484375
vt 0.5078125 0.5859375
vn 0.04361939 0.99904822 0
vn 0.04361939 0.99904822 0
vn 0.04361939 0.99904822 0
f 109/109/109 110/110/110 111/111/111
v 0.08451256 0.99815593 0.6875
v 0.39671513 0.98452487 0.1875
v 0.08451256 0.99815593 0.1875
vt 0.546875 0.6484375
vt 0.5078125 0.5859375
vt 0.546875 0.5859375
vn 0.04361939 0.99904822 0
vn 0.04361939 0.99904822 0
vn 0.04361939 0.99904822 0
f 112/112/112 113/113/113 114/114/114
v 0.98363588 0 0.296875
v 0.67108827 0 0.296875
v 0.66573209 0.30685574 0.296875
vt 0.46875 0.75783035
vt 0.5078125 0.75851219
vt 0.5078125 0.796875
vn 0 0 -1
vn 0 0 -1
vn 0 0 -1
f 115/115/115 116/116/116 117/117/117
v 0.98363588 0 0.296875
v 0.66573209 0.30685574 0.296875
v 0.97818449 0.31230962 0.296875
vt 0.46875 0.75783035
vt 0.5078125 0.796875
vt 0.46875 0.796875
vn 0 0 -1
vn 0 0 -1
vn 0 0 -1
f 118/118/118 119/119/119 120/120/120
v 0.98363588 0 0.859375
v 0.98363588 0 0.296875
v 0.97818449 0.31230962 0.296875
vt 0.140625 0.60158035
vt 0.2109375 0.60158035
vt 0.2109375 0.640625
vn 0.9998477 0.01745241 0
vn 0.9998477 0.01745241 0
vn 0.9998477 0.01745241 0
f 121/121/121 122/122/122 123/123/123
v 0.98363588 0 0.859375
v 0.97818449 0.31230962 0.296875
v 0.97818449 0.31230962 0.859375
vt 0.140625 0.60158035
vt 0.2109375 0.640625
vt 0.140625 0.640625
vn 0.9998477 0.01745241 0
vn 0.9998477 0.01745241 0
vn 0.9998477 0.01745241 0
f 124/124/124 125/125/125 126/126/126
v 0.67108827 0 0.859375
v 0.98363588 0 0.859375
v 0.97818449 0.31230962 0.859375
vt 0.46875 0.60226219
vt 0.5078125 0.60158035
vt 0.5078125 0.640625
vn 0 0 1
vn 0 0 1
vn 0 0 1
f 127/127/127 128/128/128 129/129/129
v 0.67108827 0 0.859375
v 0.97818449 0.31230962 0.859375
v 0.66573209 0.30685574 0.859375
vt 0.46875 0.60226219
vt 0.5078125 0.640625
vt 0.46875 0.640625
vn 0 0 1
vn 0 0 1
vn 0 0 1
f 130/130/130 131/131/131 132/132/132
v 0.66573209 0.30685574 0.859375
v 0.97818449 0.31230962 0.859375
v 0.97818449 0.31230962 0.296875
vt 0.546875 0.71875
vt 0.5078125 0.71875
vt 0.5078125 0.6484375
vn -0.01745241 0.9998477 0
vn -0.01745241 0.9998477 0
vn -0.01745241 0.9998477 0
f 133/133/133 134/134/134 135/135/135
v 0.66573209 0.30685574 0.859375
v 0.97818449 0.31230962 0.296875
v 0.66573209 0.30685574 0.296875
vt 0.546875 0.71875
vt 0.5078125 0.6484375
vt 0.546875 0.6484375
vn -0.01745241 0.9998477 0
vn -0.01745241 0.9998477 0
vn -0.01745241 0.9998477 0
f 136/136/136 137/137/137 138/138/138
v 0.75 0 0.25
v 0.25 0 0.25
v 0.25 1 0.25
vt 0 0.765625
vt 0.0625 0.765625
vt 0.0625 0.890625
vn 0 0 -1
vn 0 0 -1
vn 0 0 -1
f 139/139/139 140/140/140 141/141/141
v 0.75 0 0.25
v 0.25 1 0.25
v 0.75 1 0.25
vt 0 0.765625
vt 0.0625 0.890625
vt 0 0.890625
vn 0 0 -1
vn 0 0 -1
vn 0 0 -1
f 142/142/142 143/143/143 144/144/144
v 0.75 0 0.75
v 0.75 0 0.25
v 0.75 1 0.25
vt 0.0625 0.765625
vt 0.125 0.765625
vt 0.125 0.890625
vn 1 0 0
vn 1 0 0
vn 1 0 0
f 145/145/145 146/146/146 147/147/147
v 0.75 0 0.75
v 0.75 1 0.25
v 0.75 1 0.75
vt 0.0625 0.765625
vt 0.125 0.890625
vt 0.0625 0.890625
vn 1 0 0
vn 1 0 0
vn 1 0 0
f 148/148/148 149/149/149 150/150/150
v 0.25 0 0.75
v 0.75 0 0.75
v 0.75 1 0.75
vt 0.125 0.765625
vt 0.1875 0.765625
vt 0.1875 0.890625
vn 0 0 1
vn 0 0 1
vn 0 0 1
f 151/151/151 152/152/152 153/153/153
v 0.25 0 0.75
v 0.75 1 0.75
v 0.25 1 0.75
vt 0.125 0.765625
vt 0.1875 0.890625
vt 0.125 0.890625
vn 0 0 1
vn 0 0 1
vn 0 0 1
f 154/154/154 155/155/155 156/156/156
v 0.25 0 0.25
v 0.25 0 0.75
v 0.25 1 0.75
vt 0.1875 0.765625
vt 0.25 0.765625
vt 0.25 0.890625
vn -1 0 0
vn -1 0 0
vn -1 0 0
f 157/157/157 158/158/158 159/159/159
v 0.25 0 0.25
v 0.25 1 0.75
v 0.25 1 0.25
vt 0.1875 0.765625
vt 0.25 0.890625
vt 0.1875 0.890625
vn -1 0 0
vn -1 0 0
vn -1 0 0
f 160/160/160 161/161/161 162/162/162
v 0.25 1 0.75
v 0.75 1 0.75
v 0.75 1 0.25
vt 0.546875 1
vt 0.484375 1
vt 0.484375 0.9375
vn 0 1 0
vn 0 1 0
vn 0 1 0
f 163/163/163 164/164/164 165/165/165
v 0.25 1 0.75
v 0.75 1 0.25
v 0.25 1 0.25
vt 0.546875 1
vt 0.484375 0.9375
vt 0.546875 0.9375
vn 0 1 0
vn 0 1 0
vn 0 1 0
f 166/166/166 167/167/167 168/168/168
v 0.875 0 0.04093213
v 0.3125 0 0.04093213
v 0.3125 0.68595336 0.0708815
vt 0.0703125 0.55479914
vt 0.140625 0.55479914
vt 0.140625 0.640625
vn 0 0.04361939 -0.99904822
vn 0 0.04361939 -0.99904822
vn 0 0.04361939 -0.99904822
f 169/169/169 170/170/170 171/171/171
v 0.875 0 0.04093213
v 0.3125 0.68595336 0.0708815
v 0.875 0.68595336 0.0708815
vt 0.0703125 0.55479914
vt 0.140625 0.640625
vt 0.0703125 0.640625
vn 0 0.04361939 -0.99904822
vn 0 0.04361939 -0.99904822
vn 0 0.04361939 -0.99904822
f 172/172/172 173/173/173 174/174/174
v 0.875 0 0.35372985
v 0.875 0 0.04093213
v 0.875 0.68595336 0.0708815
vt 0.4296875 0.47837965
vt 0.46875 0.47667414
vt 0.46875 0.5625
vn 1 0 0
vn 1 0 0
vn 1 0 0
f 175/175/175 176/176/176 177/177/177
v 0.875 0 0.35372985
v 0.875 0.68595336 0.0708815
v 0.875 0.6723223 0.38308407
vt 0.4296875 0.47837965
vt 0.46875 0.5625
vt 0.4296875 0.5625
vn 1 0 0
vn 1 0 0
vn 1 0 0
f 178/178/178 179/179/179 180/180/180
v 0.3125 0 0.04093213
v 0.3125 0 0.35372985
v 0.3125 0.6723223 0.38308407
vt 0.4453125 0.91417414
vt 0.484375 0.91587965
vt 0.484375 1
vn -1 0 0
vn -1 0 0
vn -1 0 0
f 181/181/181 182/182/182 183/183/183
v 0.3125 0 0.04093213
v 0.3125 0.6723223 0.38308407
v 0.3125 0.68595336 0.0708815
vt 0.4453125 0.91417414
vt 0.484375 1
vt 0.4453125 1
vn -1 0 0
vn -1 0 0
vn -1 0 0
f 184/184/184 185/185/185 186/186/186
v 0.3125 0.6723223 0.38308407
v 0.875 0.6723223 0.38308407
v 0.875 0.68595336 0.0708815
vt 0.578125 0.7578125
vt 0.5078125 0.7578125
vt 0.5078125 0.71875
vn 0 0.99904822 0.04361939
vn 0 0.99904822 0.04361939
vn 0 0.99904822 0.04361939
f 187/187/187 188/188/188 189/189/189
v 0.3125 0.6723223 0.38308407
v 0.875 0.68595336 0.0708815
v 0.3125 0.68595336 0.0708815
vt 0.578125 0.7578125
vt 0.5078125 0.71875
vt 0.578125 0.71875
vn 0 0.99904822 0.04361939
vn 0 0.99904822 0.04361939
vn 0 0.99904822 0.04361939
f 190/190/190 191/191/191 192/192/192
v 0.75 0 0.95906787
v 0.75 0 0.64627015
v 0.75 0.79720333 0.6114635
vt 0.40625 0.89854914
vt 0.4453125 0.90025465
vt 0.4453125 1
vn 1 0 0
vn 1 0 0
vn 1 0 0
f 193/193/193 194/194/194 195/195/195
v 0.75 0 0.95906787
v 0.75 0.79720333 0.6114635
v 0.75 0.81083439 0.92366607
vt 0.40625 0.89854914
vt 0.4453125 1
vt 0.40625 1
vn 1 0 0
vn 1 0 0
vn 1 0 0
f 196/196/196 197/197/197 198/198/198
v 0.1875 0 0.95906787
v 0.75 0 0.95906787
v 0.75 0.81083439 0.92366607
vt 0 0.53917414
vt 0.0703125 0.53917414
vt 0.0703125 0.640625
vn 0 0.04361939 0.99904822
vn 0 0.04361939 0.99904822
vn 0 0.04361939 0.99904822
f 199/199/199 200/200/200 201/201/201
v 0.1875 0 0.95906787
v 0.75 0.81083439 0.92366607
v 0.1875 0.81083439 0.92366607
vt 0 0.53917414
vt 0.0703125 0.640625
vt 0 0.640625
vn 0 0.04361939 0.99904822
vn 0 0.04361939 0.99904822
vn 0 0.04361939 0.99904822
f 202/202/202 203/203/203 204/204/204
v 0.1875 0 0.64627015
v 0.1875 0 0.95906787
v 0.1875 0.81083439 0.92366607
vt 0.4296875 0.68150465
vt 0.46875 0.67979914
vt 0.46875 0.78125
vn -1 0 0
vn -1 0 0
vn -1 0 0
f 205/205/205 206/206/206 207/207/207
v 0.1875 0 0.64627015
v 0.1875 0.81083439 0.92366607
v 0.1875 0.79720333 0.6114635
vt 0.4296875 0.68150465
vt 0.46875 0.78125
vt 0.4296875 0.78125
vn -1 0 0
vn -1 0 0
vn -1 0 0
f 208/208/208 209/209/209 210/210/210
v 0.1875 0.81083439 0.92366607
v 0.75 0.81083439 0.92366607
v 0.75 0.79720333 0.6114635
vt 0.578125 0.796875
vt 0.5078125 0.796875
vt 0.5078125 0.7578125
vn 0 0.99904822 -0.04361939
vn 0 0.99904822 -0.04361939
vn 0 0.99904822 -0.04361939
f 211/211/211 212/212/212 213/213/213
v 0.1875 0.81083439 0.92366607
v 0.75 0.79720333 0.6114635
v 0.1875 0.79720333 0.6114635
vt 0.578125 0.796875
vt 0.5078125 0.7578125
vt 0.578125 0.7578125
vn 0 0.99904822 -0.04361939
vn 0 0.99904822 -0.04361939
vn 0 0.99904822 -0.04361939
f 214/214/214 215/215/215 216/216/216
