# Generated by Shadows And Petals
mtllib material.mtl
o rockery
usemtl rockery
v 0.90368081 0 0.359375
v 0.65364273 0 0.359375
v 0.64827016 0.30779421 0.359375
vt 0.3671875 0.71097439
vt 0.3984375 0.71151986
vt 0.3984375 0.75
vn 0 0 -1
vn 0 0 -1
vn 0 0 -1
f 1/1/1 2/2/2 3/3/3
v 0.90368081 0 0.359375
v 0.64827016 0.30779421 0.359375
v 0.89823209 0.31215731 0.359375
vt 0.3671875 0.71097439
vt 0.3984375 0.75
vt 0.3671875 0.75
vn 0 0 -1
vn 0 0 -1
vn 0 0 -1
f 4/4/4 5/5/5 6/6/6
v 0.90368081 0 0.796875
v 0.90368081 0 0.359375
v 0.89823209 0.31215731 0.359375
vt 0.3125 0.96097439
vt 0.3671875 0.96097439
vt 0.3671875 1
vn 0.9998477 0.01745241 0
vn 0.9998477 0.01745241 0
vn 0.9998477 0.01745241 0
f 7/7/7 8/8/8 9/9/9
v 0.90368081 0 0.796875
v 0.89823209 0.31215731 0.359375
v 0.89823209 0.31215731 0.796875
vt 0.3125 0.96097439
vt 0.3671875 1
vt 0.3125 1
vn 0.9998477 0.01745241 0
vn 0.9998477 0.01745241 0
vn 0.9998477 0.01745241 0
f 10/10/10 11/11/11 12/12/12
v 0.65364273 0 0.796875
v 0.90368081 0 0.796875
v 0.89823209 0.31215731 0.796875
vt 0.3984375 0.71151986
vt 0.4296875 0.71097439
vt 0.4296875 0.75
vn 0 0 1
vn 0 0 1
vn 0 0 1
f 13/13/13 14/14/14 15/15/15
v 0.65364273 0 0.796875
v 0.89823209 0.31215731 0.796875
v 0.64827016 0.30779421 0.796875
vt 0.3984375 0.71151986
vt 0.4296875 0.75
vt 0.3984375 0.75
vn 0 0 1
vn 0 0 1
vn 0 0 1
f 16/16/16 17/17/17 18/18/18
v 0.65364273 0 0.359375
v 0.65364273 0 0.796875
v 0.64827016 0.30779421 0.796875
vt 0.3125 0.68026986
vt 0.3671875 0.68026986
vt 0.3671875 0.71875
vn -0.9998477 -0.01745241 0
vn -0.9998477 -0.01745241 0
vn -0.9998477 -0.01745241 0
f 19/19/19 20/20/20 21/21/21
v 0.65364273 0 0.359375
v 0.64827016 0.30779421 0.796875
v 0.64827016 0.30779421 0.359375
vt 0.3125 0.68026986
vt 0.3671875 0.71875
vt 0.3125 0.71875
vn -0.9998477 -0.01745241 0
vn -0.9998477 -0.01745241 0
vn -0.9998477 -0.01745241 0
f 22/22/22 23/23/23 24/24/24
v 0.64827016 0.30779421 0.796875
v 0.89823209 0.31215731 0.796875
v 0.89823209 0.31215731 0.359375
vt 0.5390625 0.5234375
vt 0.5078125 0.5234375
vt 0.5078125 0.46875
vn -0.01745241 0.9998477 0
vn -0.01745241 0.9998477 0
vn -0.01745241 0.9998477 0
f 25/25/25 26/26/26 27/27/27
v 0.64827016 0.30779421 0.796875
v 0.89823209 0.31215731 0.359375
v 0.64827016 0.30779421 0.359375
vt 0.5390625 0.5234375
vt 0.5078125 0.46875
vt 0.5390625 0.46875
vn -0.01745241 0.9998477 0
vn -0.01745241 0.9998477 0
vn -0.01745241 0.9998477 0
f 28/28/28 29/29/29 30/30/30
v 0.75 0 0.25
v 0.25 0 0.25
v 0.25 0.875 0.25
vt 0 0.890625
vt 0.0625 0.890625
vt 0.0625 1
vn 0 0 -1
vn 0 0 -1
vn 0 0 -1
f 31/31/31 32/32/32 33/33/33
v 0.75 0 0.25
v 0.25 0.875 0.25
v 0.75 0.875 0.25
vt 0 0.890625
vt 0.0625 1
vt 0 1
vn 0 0 -1
vn 0 0 -1
vn 0 0 -1
f 34/34/34 35/35/35 36/36/36
v 0.75 0 0.75
v 0.75 0 0.25
v 0.75 0.875 0.25
vt 0.0625 0.890625
vt 0.125 0.890625
vt 0.125 1
vn 1 0 0
vn 1 0 0
vn 1 0 0
f 37/37/37 38/38/38 39/39/39
v 0.75 0 0.75
v 0.75 0.875 0.25
v 0.75 0.875 0.75
vt 0.0625 0.890625
vt 0.125 1
vt 0.0625 1
vn 1 0 0
vn 1 0 0
vn 1 0 0
f 40/40/40 41/41/41 42/42/42
v 0.25 0 0.75
v 0.75 0 0.75
v 0.75 0.875 0.75
vt 0.125 0.890625
vt 0.1875 0.890625
vt 0.1875 1
vn 0 0 1
vn 0 0 1
vn 0 0 1
f 43/43/43 44/44/44 45/45/45
v 0.25 0 0.75
v 0.75 0.875 0.75
v 0.25 0.875 0.75
vt 0.125 0.890625
vt 0.1875 1
vt 0.125 1
vn 0 0 1
vn 0 0 1
vn 0 0 1
f 46/46/46 47/47/47 48/48/48
v 0.25 0 0.25
v 0.25 0 0.75
v 0.25 0.875 0.75
vt 0.1875 0.890625
vt 0.25 0.890625
vt 0.25 1
vn -1 0 0
vn -1 0 0
vn -1 0 0
f 49/49/49 50/50/50 51/51/51
v 0.25 0 0.25
v 0.25 0.875 0.75
v 0.25 0.875 0.25
vt 0.1875 0.890625
vt 0.25 1
vt 0.1875 1
vn -1 0 0
vn -1 0 0
vn -1 0 0
f 52/52/52 53/53/53 54/54/54
v 0.25 0.875 0.75
v 0.75 0.875 0.75
v 0.75 0.875 0.25
vt 0.546875 1
vt 0.484375 1
vt 0.484375 0.9375
vn 0 1 0
vn 0 1 0
vn 0 1 0
f 55/55/55 56/56/56 57/57/57
v 0.25 0.875 0.75
v 0.75 0.875 0.25
v 0.25 0.875 0.25
vt 0.546875 1
vt 0.484375 0.9375
vt 0.546875 0.9375
vn 0 1 0
vn 0 1 0
vn 0 1 0
f 58/58/58 59/59/59 60/60/60
v 0.39739079 0 0.1875
v 0.08459308 0 0.1875
v 0.08723877 0.06059644 0.1875
vt 0.2109375 0.63474873
vt 0.25 0.63304323
vt 0.25 0.640625
vn 0 0 -1
vn 0 0 -1
vn 0 0 -1
f 61/61/61 62/62/62 63/63/63
v 0.39739079 0 0.1875
v 0.08723877 0.06059644 0.1875
v 0.39944134 0.04696538 0.1875
vt 0.2109375 0.63474873
vt 0.25 0.640625
vt 0.2109375 0.640625
vn 0 0 -1
vn 0 0 -1
vn 0 0 -1
f 64/64/64 65/65/65 66/66/66
v 0.39739079 0 0.6875
v 0.39739079 0 0.1875
v 0.39944134 0.04696538 0.1875
vt 0.25 0.99412373
vt 0.3125 0.99412373
vt 0.3125 1
vn 0.99904822 -0.04361939 0
vn 0.99904822 -0.04361939 0
vn 0.99904822 -0.04361939 0
f 67/67/67 68/68/68 69/69/69
v 0.39739079 0 0.6875
v 0.39944134 0.04696538 0.1875
v 0.39944134 0.04696538 0.6875
vt 0.25 0.99412373
vt 0.3125 1
vt 0.25 1
vn 0.99904822 -0.04361939 0
vn 0.99904822 -0.04361939 0
vn 0.99904822 -0.04361939 0
f 70/70/70 71/71/71 72/72/72
v 0.08459308 0 0.6875
v 0.39739079 0 0.6875
v 0.39944134 0.04696538 0.6875
vt 0.3671875 0.99241823
vt 0.40625 0.99412373
vt 0.40625 1
vn 0 0 1
vn 0 0 1
vn 0 0 1
f 73/73/73 74/74/74 75/75/75
v 0.08459308 0 0.6875
v 0.39944134 0.04696538 0.6875
v 0.08723877 0.06059644 0.6875
vt 0.3671875 0.99241823
vt 0.40625 1
vt 0.3671875 1
vn 0 0 1
vn 0 0 1
vn 0 0 1
f 76/76/76 77/77/77 78/78/78
v 0.08459308 0 0.1875
v 0.08459308 0 0.6875
v 0.08723877 0.06059644 0.6875
vt 0.25 0.74241823
vt 0.3125 0.74241823
vt 0.3125 0.75
vn -0.99904822 0.04361939 0
vn -0.99904822 0.04361939 0
vn -0.99904822 0.04361939 0
f 79/79/79 80/80/80 81/81/81
v 0.08459308 0 0.1875
v 0.08723877 0.06059644 0.6875
v 0.08723877 0.06059644 0.1875
vt 0.25 0.74241823
vt 0.3125 0.75
vt 0.25 0.75
vn -0.99904822 0.04361939 0
vn -0.99904822 0.04361939 0
vn -0.99904822 0.04361939 0
f 82/82/82 83/83/83 84/84/84
v 0.08723877 0.06059644 0.6875
v 0.39944134 0.04696538 0.6875
v 0.39944134 0.04696538 0.1875
vt 0.546875 0.6484375
vt 0.5078125 0.6484375
vt 0.5078125 0.5859375
vn 0.04361939 0.99904822 0
vn 0.04361939 0.99904822 0
vn 0.04361939 0.99904822 0
f 85/85/85 86/86/86 87/87/87
v 0.08723877 0.06059644 0.6875
v 0.39944134 0.04696538 0.1875
v 0.08723877 0.06059644 0.1875
vt 0.546875 0.6484375
vt 0.5078125 0.5859375
vt 0.546875 0.5859375
vn 0.04361939 0.99904822 0
vn 0.04361939 0.99904822 0
vn 0.04361939 0.99904822 0
f 88/88/88 89/89/89 90/90/90
