# Generated by Shadows And Petals
mtllib material.mtl
o rockery
usemtl rockery
v 0.75 0 0.25
v 0.3125 0 0.25
v 0.3125 0.9375 0.25
vt 0 0.515625
vt 0.109375 0.515625
vt 0.109375 0.75
vn 0 0 -1
vn 0 0 -1
vn 0 0 -1
f 1/1/1 2/2/2 3/3/3
v 0.75 0 0.25
v 0.3125 0.9375 0.25
v 0.75 0.9375 0.25
vt 0 0.515625
vt 0.109375 0.75
vt 0 0.75
vn 0 0 -1
vn 0 0 -1
vn 0 0 -1
f 4/4/4 5/5/5 6/6/6
v 0.75 0 0.75
v 0.75 0 0.25
v 0.75 0.9375 0.25
vt 0 0.765625
vt 0.125 0.765625
vt 0.125 1
vn 1 0 0
vn 1 0 0
vn 1 0 0
f 7/7/7 8/8/8 9/9/9
v 0.75 0 0.75
v 0.75 0.9375 0.25
v 0.75 0.9375 0.75
vt 0 0.765625
vt 0.125 1
vt 0 1
vn 1 0 0
vn 1 0 0
vn 1 0 0
f 10/10/10 11/11/11 12/12/12
v 0.3125 0 0.75
v 0.75 0 0.75
v 0.75 0.9375 0.75
vt 0.125 0.515625
vt 0.234375 0.515625
vt 0.234375 0.75
vn 0 0 1
vn 0 0 1
vn 0 0 1
f 13/13/13 14/14/14 15/15/15
v 0.3125 0 0.75
v 0.75 0.9375 0.75
v 0.3125 0.9375 0.75
vt 0.125 0.515625
vt 0.234375 0.75
vt 0.125 0.75
vn 0 0 1
vn 0 0 1
vn 0 0 1
f 16/16/16 17/17/17 18/18/18
v 0.3125 0 0.25
v 0.3125 0 0.75
v 0.3125 0.9375 0.75
vt 0.140625 0.765625
vt 0.265625 0.765625
vt 0.265625 1
vn -1 0 0
vn -1 0 0
vn -1 0 0
f 19/19/19 20/20/20 21/21/21
v 0.3125 0 0.25
v 0.3125 0.9375 0.75
v 0.3125 0.9375 0.25
vt 0.140625 0.765625
vt 0.265625 1
vt 0.140625 1
vn -1 0 0
vn -1 0 0
vn -1 0 0
f 22/22/22 23/23/23 24/24/24
v 0.3125 0.9375 0.75
v 0.75 0.9375 0.75
v 0.75 0.9375 0.25
vt 0.203125 0.5
vt 0.09375 0.5
vt 0.09375 0.375
vn 0 1 0
vn 0 1 0
vn 0 1 0
f 25/25/25 26/26/26 27/27/27
v 0.3125 0.9375 0.75
v 0.75 0.9375 0.25
v 0.3125 0.9375 0.25
vt 0.203125 0.5
vt 0.09375 0.375
vt 0.203125 0.375
vn 0 1 0
vn 0 1 0
vn 0 1 0
f 28/28/28 29/29/29 30/30/30
v 0.3125 0 0.25
v 0.75 0 0.25
v 0.75 0 0.75
vt 0.609375 0.484375
vt 0.5 0.484375
vt 0.5 0.609375
vn 0 -1 0
vn 0 -1 0
vn 0 -1 0
f 31/31/31 32/32/32 33/33/33
v 0.3125 0 0.25
v 0.75 0 0.75
v 0.3125 0 0.75
vt 0.609375 0.484375
vt 0.5 0.609375
vt 0.609375 0.609375
vn 0 -1 0
vn 0 -1 0
vn 0 -1 0
f 34/34/34 35/35/35 36/36/36
v 0.6875 0 0.9375
v 0.6875 0 0.625
v 0.6875 0.0625 0.625
vt 0.28125 0.765625
vt 0.359375 0.765625
vt 0.359375 0.78125
vn 1 0 0
vn 1 0 0
vn 1 0 0
f 37/37/37 38/38/38 39/39/39
v 0.6875 0 0.9375
v 0.6875 0.0625 0.625
v 0.6875 0.0625 0.9375
vt 0.28125 0.765625
vt 0.359375 0.78125
vt 0.28125 0.78125
vn 1 0 0
vn 1 0 0
vn 1 0 0
f 40/40/40 41/41/41 42/42/42
v 0.25 0 0.9375
v 0.6875 0 0.9375
v 0.6875 0.0625 0.9375
vt 0.703125 0.75
vt 0.8125 0.75
vt 0.8125 0.765625
vn 0 0 1
vn 0 0 1
vn 0 0 1
f 43/43/43 44/44/44 45/45/45
v 0.25 0 0.9375
v 0.6875 0.0625 0.9375
v 0.25 0.0625 0.9375
vt 0.703125 0.75
vt 0.8125 0.765625
vt 0.703125 0.765625
vn 0 0 1
vn 0 0 1
vn 0 0 1
f 46/46/46 47/47/47 48/48/48
v 0.25 0 0.625
v 0.25 0 0.9375
v 0.25 0.0625 0.9375
vt 0.40625 0.84375
vt 0.484375 0.84375
vt 0.484375 0.859375
vn -1 0 0
vn -1 0 0
vn -1 0 0
f 49/49/49 50/50/50 51/51/51
v 0.25 0 0.625
v 0.25 0.0625 0.9375
v 0.25 0.0625 0.625
vt 0.40625 0.84375
vt 0.484375 0.859375
vt 0.40625 0.859375
vn -1 0 0
vn -1 0 0
vn -1 0 0
f 52/52/52 53/53/53 54/54/54
v 0.25 0 0.625
v 0.6875 0 0.625
v 0.6875 0 0.9375
vt 0.71875 0.84375
vt 0.609375 0.84375
vt 0.609375 0.921875
vn 0 -1 0
vn 0 -1 0
vn 0 -1 0
f 55/55/55 56/56/56 57/57/57
v 0.25 0 0.625
v 0.6875 0 0.9375
v 0.25 0 0.9375
vt 0.71875 0.84375
vt 0.609375 0.921875
vt 0.71875 0.921875
vn 0 -1 0
vn 0 -1 0
vn 0 -1 0
f 58/58/58 59/59/59 60/60/60
v 0.8125 0 0.0625
v 0.25 0 0.0625
v 0.25 0.0625 0.0625
vt 0.703125 0.8125
vt 0.84375 0.8125
vt 0.84375 0.828125
vn 0 0 -1
vn 0 0 -1
vn 0 0 -1
f 61/61/61 62/62/62 63/63/63
v 0.8125 0 0.0625
v 0.25 0.0625 0.0625
v 0.8125 0.0625 0.0625
vt 0.703125 0.8125
vt 0.84375 0.828125
vt 0.703125 0.828125
vn 0 0 -1
vn 0 0 -1
vn 0 0 -1
f 64/64/64 65/65/65 66/66/66
v 0.8125 0 0.3125
v 0.8125 0 0.0625
v 0.8125 0.0625 0.0625
vt 0.40625 0.8125
vt 0.46875 0.8125
vt 0.46875 0.828125
vn 1 0 0
vn 1 0 0
vn 1 0 0
f 67/67/67 68/68/68 69/69/69
v 0.8125 0 0.3125
v 0.8125 0.0625 0.0625
v 0.8125 0.0625 0.3125
vt 0.40625 0.8125
vt 0.46875 0.828125
vt 0.40625 0.828125
vn 1 0 0
vn 1 0 0
vn 1 0 0
f 70/70/70 71/71/71 72/72/72
v 0.25 0 0.0625
v 0.25 0 0.3125
v 0.25 0.0625 0.3125
vt 0.515625 0.65625
vt 0.578125 0.65625
vt 0.578125 0.671875
vn -1 0 0
vn -1 0 0
vn -1 0 0
f 73/73/73 74/74/74 75/75/75
v 0.25 0 0.0625
v 0.25 0.0625 0.3125
v 0.25 0.0625 0.0625
vt 0.515625 0.65625
vt 0.578125 0.671875
vt 0.515625 0.671875
vn -1 0 0
vn -1 0 0
vn -1 0 0
f 76/76/76 77/77/77 78/78/78
v 0.25 0 0.0625
v 0.8125 0 0.0625
v 0.8125 0 0.3125
vt 0.703125 0.9375
vt 0.5625 0.9375
vt 0.5625 1
vn 0 -1 0
vn 0 -1 0
vn 0 -1 0
f 79/79/79 80/80/80 81/81/81
v 0.25 0 0.0625
v 0.8125 0 0.3125
v 0.25 0 0.3125
vt 0.703125 0.9375
vt 0.5625 1
vt 0.703125 1
vn 0 -1 0
vn 0 -1 0
vn 0 -1 0
f 82/82/82 83/83/83 84/84/84
v 0.9375 0 0.28125
v 0.6875 0 0.28125
v 0.6875 0.0625 0.28125
vt 0.515625 0.625
vt 0.578125 0.625
vt 0.578125 0.640625
vn 0 0 -1
vn 0 0 -1
vn 0 0 -1
f 85/85/85 86/86/86 87/87/87
v 0.9375 0 0.28125
v 0.6875 0.0625 0.28125
v 0.9375 0.0625 0.28125
vt 0.515625 0.625
vt 0.578125 0.640625
vt 0.515625 0.640625
vn 0 0 -1
vn 0 0 -1
vn 0 0 -1
f 88/88/88 89/89/89 90/90/90
v 0.9375 0 0.78125
v 0.9375 0 0.28125
v 0.9375 0.0625 0.28125
vt 0.703125 0.78125
vt 0.828125 0.78125
vt 0.828125 0.796875
vn 1 0 0
vn 1 0 0
vn 1 0 0
f 91/91/91 92/92/92 93/93/93
v 0.9375 0 0.78125
v 0.9375 0.0625 0.28125
v 0.9375 0.0625 0.78125
vt 0.703125 0.78125
vt 0.828125 0.796875
vt 0.703125 0.796875
vn 1 0 0
vn 1 0 0
vn 1 0 0
f 94/94/94 95/95/95 96/96/96
v 0.6875 0 0.78125
v 0.9375 0 0.78125
v 0.9375 0.0625 0.78125
vt 0.25 0.296875
vt 0.3125 0.296875
vt 0.3125 0.3125
vn 0 0 1
vn 0 0 1
vn 0 0 1
f 97/97/97 98/98/98 99/99/99
v 0.6875 0 0.78125
v 0.9375 0.0625 0.78125
v 0.6875 0.0625 0.78125
vt 0.25 0.296875
vt 0.3125 0.3125
vt 0.25 0.3125
vn 0 0 1
vn 0 0 1
vn 0 0 1
f 100/100/100 101/101/101 102/102/102
v 0.6875 0 0.28125
v 0.9375 0 0.28125
v 0.9375 0 0.78125
vt 0.65625 0.265625
vt 0.59375 0.265625
vt 0.59375 0.390625
vn 0 -1 0
vn 0 -1 0
vn 0 -1 0
f 103/103/103 104/104/104 105/105/105
v 0.6875 0 0.28125
v 0.9375 0 0.78125
v 0.6875 0 0.78125
vt 0.65625 0.265625
vt 0.59375 0.390625
vt 0.65625 0.390625
vn 0 -1 0
vn 0 -1 0
vn 0 -1 0
f 106/106/106 107/107/107 108/108/108
v 0.9375 0.0625 0.28125
v 0.69129806 0.01908796 0.28125
v 0.58276795 0.6345928 0.28125
vt 0.34375 0.265625
vt 0.40625 0.265625
vt 0.40625 0.421875
vn 0 0 -1
vn 0 0 -1
vn 0 0 -1
f 109/109/109 110/110/110 111/111/111
v 0.9375 0.0625 0.28125
v 0.58276795 0.6345928 0.28125
v 0.82896989 0.67800485 0.28125
vt 0.34375 0.265625
vt 0.40625 0.421875
vt 0.34375 0.421875
vn 0 0 -1
vn 0 0 -1
vn 0 0 -1
f 112/112/112 113/113/113 114/114/114
v 0.9375 0.0625 0.78125
v 0.9375 0.0625 0.28125
v 0.82896989 0.67800485 0.28125
vt 0.375 0.625
vt 0.5 0.625
vt 0.5 0.78125
vn 0.98480775 0.17364818 0
vn 0.98480775 0.17364818 0
vn 0.98480775 0.17364818 0
f 115/115/115 116/116/116 117/117/117
v 0.9375 0.0625 0.78125
v 0.82896989 0.67800485 0.28125
v 0.82896989 0.67800485 0.78125
vt 0.375 0.625
vt 0.5 0.78125
vt 0.375 0.78125
vn 0.98480775 0.17364818 0
vn 0.98480775 0.17364818 0
vn 0.98480775 0.17364818 0
f 118/118/118 119/119/119 120/120/120
v 0.69129806 0.01908796 0.78125
v 0.9375 0.0625 0.78125
v 0.82896989 0.67800485 0.78125
vt 0.421875 0.265625
vt 0.484375 0.265625
vt 0.484375 0.421875
vn 0 0 1
vn 0 0 1
vn 0 0 1
f 121/121/121 122/122/122 123/123/123
v 0.69129806 0.01908796 0.78125
v 0.82896989 0.67800485 0.78125
v 0.58276795 0.6345928 0.78125
vt 0.421875 0.265625
vt 0.484375 0.421875
vt 0.421875 0.421875
vn 0 0 1
vn 0 0 1
vn 0 0 1
f 124/124/124 125/125/125 126/126/126
v 0.58276795 0.6345928 0.78125
v 0.82896989 0.67800485 0.78125
v 0.82896989 0.67800485 0.28125
vt 0.6875 0.609375
vt 0.625 0.609375
vt 0.625 0.484375
vn -0.17364818 0.98480775 0
vn -0.17364818 0.98480775 0
vn -0.17364818 0.98480775 0
f 127/127/127 128/128/128 129/129/129
v 0.58276795 0.6345928 0.78125
v 0.82896989 0.67800485 0.28125
v 0.58276795 0.6345928 0.28125
vt 0.6875 0.609375
vt 0.625 0.484375
vt 0.6875 0.484375
vn -0.17364818 0.98480775 0
vn -0.17364818 0.98480775 0
vn -0.17364818 0.98480775 0
f 130/130/130 131/131/131 132/132/132
v 0.37025242 0.00823494 0.1875
v 0.0625 0.0625 0.1875
v 0.20358914 0.8626563 0.1875
vt 0.25 0.328125
vt 0.328125 0.328125
vt 0.328125 0.53125
vn 0 0 -1
vn 0 0 -1
vn 0 0 -1
f 133/133/133 134/134/134 135/135/135
v 0.37025242 0.00823494 0.1875
v 0.20358914 0.8626563 0.1875
v 0.51134157 0.80839124 0.1875
vt 0.25 0.328125
vt 0.328125 0.53125
vt 0.25 0.53125
vn 0 0 -1
vn 0 0 -1
vn 0 0 -1
f 136/136/136 137/137/137 138/138/138
v 0.37025242 0.00823494 0.625
v 0.37025242 0.00823494 0.1875
v 0.51134157 0.80839124 0.1875
vt 0.25 0.546875
vt 0.359375 0.546875
vt 0.359375 0.75
vn 0.98480775 -0.17364818 0
vn 0.98480775 -0.17364818 0
vn 0.98480775 -0.17364818 0
f 139/139/139 140/140/140 141/141/141
v 0.37025242 0.00823494 0.625
v 0.51134157 0.80839124 0.1875
v 0.51134157 0.80839124 0.625
vt 0.25 0.546875
vt 0.359375 0.75
vt 0.25 0.75
vn 0.98480775 -0.17364818 0
vn 0.98480775 -0.17364818 0
vn 0.98480775 -0.17364818 0
f 142/142/142 143/143/143 144/144/144
v 0.0625 0.0625 0.625
v 0.37025242 0.00823494 0.625
v 0.51134157 0.80839124 0.625
vt 0 0.296875
vt 0.078125 0.296875
vt 0.078125 0.5
vn 0 0 1
vn 0 0 1
vn 0 0 1
f 145/145/145 146/146/146 147/147/147
v 0.0625 0.0625 0.625
v 0.51134157 0.80839124 0.625
v 0.20358914 0.8626563 0.625
vt 0 0.296875
vt 0.078125 0.5
vt 0 0.5
vn 0 0 1
vn 0 0 1
vn 0 0 1
f 148/148/148 149/149/149 150/150/150
v 0.0625 0.0625 0.1875
v 0.0625 0.0625 0.625
v 0.20358914 0.8626563 0.625
vt 0.28125 0.796875
vt 0.390625 0.796875
vt 0.390625 1
vn -0.98480775 0.17364818 0
vn -0.98480775 0.17364818 0
vn -0.98480775 0.17364818 0
f 151/151/151 152/152/152 153/153/153
v 0.0625 0.0625 0.1875
v 0.20358914 0.8626563 0.625
v 0.20358914 0.8626563 0.1875
vt 0.28125 0.796875
vt 0.390625 1
vt 0.28125 1
vn -0.98480775 0.17364818 0
vn -0.98480775 0.17364818 0
vn -0.98480775 0.17364818 0
f 154/154/154 155/155/155 156/156/156
v 0.20358914 0.8626563 0.625
v 0.51134157 0.80839124 0.625
v 0.51134157 0.80839124 0.1875
vt 0.6875 0.828125
vt 0.609375 0.828125
vt 0.609375 0.71875
vn 0.17364818 0.98480775 0
vn 0.17364818 0.98480775 0
vn 0.17364818 0.98480775 0
f 157/157/157 158/158/158 159/159/159
v 0.20358914 0.8626563 0.625
v 0.51134157 0.80839124 0.1875
v 0.20358914 0.8626563 0.1875
vt 0.6875 0.828125
vt 0.609375 0.71875
vt 0.6875 0.71875
vn 0.17364818 0.98480775 0
vn 0.17364818 0.98480775 0
vn 0.17364818 0.98480775 0
f 160/160/160 161/161/161 162/162/162
v 0.3125 0 0.1875
v 0.0625 0 0.1875
v 0.0625 0.0625 0.1875
vt 0.703125 0.59375
vt 0.765625 0.59375
vt 0.765625 0.609375
vn 0 0 -1
vn 0 0 -1
vn 0 0 -1
f 163/163/163 164/164/164 165/165/165
v 0.3125 0 0.1875
v 0.0625 0.0625 0.1875
v 0.3125 0.0625 0.1875
vt 0.703125 0.59375
vt 0.765625 0.609375
vt 0.703125 0.609375
vn 0 0 -1
vn 0 0 -1
vn 0 0 -1
f 166/166/166 167/167/167 168/168/168
v 0.0625 0 0.625
v 0.3125 0 0.625
v 0.3125 0.0625 0.625
vt 0.703125 0.5625
vt 0.765625 0.5625
vt 0.765625 0.578125
vn 0 0 1
vn 0 0 1
vn 0 0 1
f 169/169/169 170/170/170 171/171/171
v 0.0625 0 0.625
v 0.3125 0.0625 0.625
v 0.0625 0.0625 0.625
vt 0.703125 0.5625
vt 0.765625 0.578125
vt 0.703125 0.578125
vn 0 0 1
vn 0 0 1
vn 0 0 1
f 172/172/172 173/173/173 174/174/174
v 0.0625 0 0.1875
v 0.0625 0 0.625
v 0.0625 0.0625 0.625
vt 0.703125 0.71875
vt 0.8125 0.71875
vt 0.8125 0.734375
vn -1 0 0
vn -1 0 0
vn -1 0 0
f 175/175/175 176/176/176 177/177/177
v 0.0625 0 0.1875
v 0.0625 0.0625 0.625
v 0.0625 0.0625 0.1875
vt 0.703125 0.71875
vt 0.8125 0.734375
vt 0.703125 0.734375
vn -1 0 0
vn -1 0 0
vn -1 0 0
f 178/178/178 179/179/179 180/180/180
v 0.0625 0 0.1875
v 0.3125 0 0.1875
v 0.3125 0 0.625
vt 0.734375 0.28125
vt 0.671875 0.28125
vt 0.671875 0.390625
vn 0 -1 0
vn 0 -1 0
vn 0 -1 0
f 181/181/181 182/182/182 183/183/183
v 0.0625 0 0.1875
v 0.3125 0 0.625
v 0.0625 0 0.625
vt 0.734375 0.28125
vt 0.671875 0.390625
vt 0.734375 0.390625
vn 0 -1 0
vn 0 -1 0
vn 0 -1 0
f 184/184/184 185/185/185 186/186/186
v 0.6875 0.0625 0.9375
v 0.6875 0.00823494 0.62974758
v 0.6875 0.68529027 0.51036446
vt 0.515625 0.6875
vt 0.59375 0.6875
vt 0.59375 0.859375
vn 1 0 0
vn 1 0 0
vn 1 0 0
f 187/187/187 188/188/188 189/189/189
v 0.6875 0.0625 0.9375
v 0.6875 0.68529027 0.51036446
v 0.6875 0.73955533 0.81811688
vt 0.515625 0.6875
vt 0.59375 0.859375
vt 0.515625 0.859375
vn 1 0 0
vn 1 0 0
vn 1 0 0
f 190/190/190 191/191/191 192/192/192
v 0.25 0.0625 0.9375
v 0.6875 0.0625 0.9375
v 0.6875 0.73955533 0.81811688
vt 0.375 0.4375
vt 0.484375 0.4375
vt 0.484375 0.609375
vn 0 0.17364818 0.98480775
vn 0 0.17364818 0.98480775
vn 0 0.17364818 0.98480775
f 193/193/193 194/194/194 195/195/195
v 0.25 0.0625 0.9375
v 0.6875 0.73955533 0.81811688
v 0.25 0.73955533 0.81811688
vt 0.375 0.4375
vt 0.484375 0.609375
vt 0.375 0.609375
vn 0 0.17364818 0.98480775
vn 0 0.17364818 0.98480775
vn 0 0.17364818 0.98480775
f 196/196/196 197/197/197 198/198/198
v 0.25 0.00823494 0.62974758
v 0.25 0.0625 0.9375
v 0.25 0.73955533 0.81811688
vt 0.5 0.296875
vt 0.578125 0.296875
vt 0.578125 0.46875
vn -1 0 0
vn -1 0 0
vn -1 0 0
f 199/199/199 200/200/200 201/201/201
v 0.25 0.00823494 0.62974758
v 0.25 0.73955533 0.81811688
v 0.25 0.68529027 0.51036446
vt 0.5 0.296875
vt 0.578125 0.46875
vt 0.5 0.46875
vn -1 0 0
vn -1 0 0
vn -1 0 0
f 202/202/202 203/203/203 204/204/204
v 0.25 0.73955533 0.81811688
v 0.6875 0.73955533 0.81811688
v 0.6875 0.68529027 0.51036446
vt 0.71875 0.703125
vt 0.609375 0.703125
vt 0.609375 0.625
vn 0 0.98480775 -0.17364818
vn 0 0.98480775 -0.17364818
vn 0 0.98480775 -0.17364818
f 205/205/205 206/206/206 207/207/207
v 0.25 0.73955533 0.81811688
v 0.6875 0.68529027 0.51036446
v 0.25 0.68529027 0.51036446
vt 0.71875 0.703125
vt 0.609375 0.625
vt 0.71875 0.625
vn 0 0.98480775 -0.17364818
vn 0 0.98480775 -0.17364818
vn 0 0.98480775 -0.17364818
f 208/208/208 209/209/209 210/210/210
v 0.8125 0.0625 0.0625
v 0.25 0.0625 0.0625
v 0.25 0.55822243 0.1277631
vt 0.40625 0.875
vt 0.546875 0.875
vt 0.546875 1
vn 0 0.13052619 -0.99144486
vn 0 0.13052619 -0.99144486
vn 0 0.13052619 -0.99144486
f 211/211/211 212/212/212 213/213/213
v 0.8125 0.0625 0.0625
v 0.25 0.55822243 0.1277631
v 0.8125 0.55822243 0.1277631
vt 0.40625 0.875
vt 0.546875 1
vt 0.40625 1
vn 0 0.13052619 -0.99144486
vn 0 0.13052619 -0.99144486
vn 0 0.13052619 -0.99144486
f 214/214/214 215/215/215 216/216/216
v 0.8125 0.02986845 0.31036122
v 0.8125 0.0625 0.0625
v 0.8125 0.55822243 0.1277631
vt 0.09375 0.234375
vt 0.15625 0.234375
vt 0.15625 0.359375
vn 1 0 0
vn 1 0 0
vn 1 0 0
f 217/217/217 218/218/218 219/219/219
v 0.8125 0.02986845 0.31036122
v 0.8125 0.55822243 0.1277631
v 0.8125 0.52559088 0.37562431
vt 0.09375 0.234375
vt 0.15625 0.359375
vt 0.09375 0.359375
vn 1 0 0
vn 1 0 0
vn 1 0 0
f 220/220/220 221/221/221 222/222/222
v 0.25 0.0625 0.0625
v 0.25 0.02986845 0.31036122
v 0.25 0.52559088 0.37562431
vt 0.171875 0.234375
vt 0.234375 0.234375
vt 0.234375 0.359375
vn -1 0 0
vn -1 0 0
vn -1 0 0
f 223/223/223 224/224/224 225/225/225
v 0.25 0.0625 0.0625
v 0.25 0.52559088 0.37562431
v 0.25 0.55822243 0.1277631
vt 0.171875 0.234375
vt 0.234375 0.359375
vt 0.171875 0.359375
vn -1 0 0
vn -1 0 0
vn -1 0 0
f 226/226/226 227/227/227 228/228/228
v 0.25 0.52559088 0.37562431
v 0.8125 0.52559088 0.37562431
v 0.8125 0.55822243 0.1277631
vt 0.734375 0.46875
vt 0.59375 0.46875
vt 0.59375 0.40625
vn 0 0.99144486 0.13052619
vn 0 0.99144486 0.13052619
vn 0 0.99144486 0.13052619
f 229/229/229 230/230/230 231/231/231
v 0.25 0.52559088 0.37562431
v 0.8125 0.55822243 0.1277631
v 0.25 0.55822243 0.1277631
vt 0.734375 0.46875
vt 0.59375 0.40625
vt 0.734375 0.40625
vn 0 0.99144486 0.13052619
vn 0 0.99144486 0.13052619
vn 0 0.99144486 0.13052619
f 232/232/232 233/233/233 234/234/234
