# Made in Blockbench 5.1.5
mtllib red_lacquered_wood_pillar.mtl

o cube
v 0.5000000663361285 0.9999999999999999 0.20710671485041907
v 0.18750000008997023 0.9999999999999999 0.0776650428549851
v 0.5000000663361285 0 0.20710671485041907
v 0.18750000008997023 0 0.0776650428549851
v 0.20710671485041912 0.9999999999999999 0.5000000663361284
v 0.0776650428549851 0.9999999999999999 0.18750000008997025
v 0.20710671485041912 0 0.5000000663361284
v 0.0776650428549851 0 0.18750000008997025
vt 0.92585625 0.6875
vt 0.7964125000000001 1
vt 0.6410875 1
vt 0.51164375 0.6875
vt 0.6410874999999999 1
vt 0.51164375 0.6875
vt 0.92585625 0.6875
vt 0.7964125 1
vt 0.4375 0
vt 0.4375 1
vt 0 1
vt 0 0
vn 0 1 0
vn 0 -1 0
vn 0.7071067811865476 0 0.7071067811865475
usemtl m_65fb2591-8727-059a-7118-04daab72e1b7
f 1/1/1 2/2/1 6/3/1 5/4/1
f 4/5/2 3/6/2 7/7/2 8/8/2
f 3/9/3 1/10/3 5/11/3 7/12/3
o cube
v 0.20710687500000002 0.9999999999999999 0.5
v 0.07766504307219241 0.9999999999999999 0.1875
v 0.20710687500000002 0 0.5
v 0.07766504307219241 0 0.1875
v -0.20710687500000002 0.9999999999999999 0.5
v -0.07766504307219246 0.9999999999999999 0.1875
v -0.20710687500000002 0 0.5
v -0.07766504307219246 0 0.1875
vt 0.92585625 0.6875
vt 0.7964125000000001 1
vt 0.6410875 1
vt 0.51164375 0.6875
vt 0.6410874999999999 1
vt 0.51164375 0.6875
vt 0.92585625 0.6875
vt 0.7964125 1
vt 0.4375 0
vt 0.4375 1
vt 0 1
vt 0 0
vn 0 1 0
vn 0 -1 0
vn 0 0 1
usemtl m_65fb2591-8727-059a-7118-04daab72e1b7
f 9/13/4 10/14/4 14/15/4 13/16/4
f 12/17/5 11/18/5 15/19/5 16/20/5
f 11/21/6 9/22/6 13/23/6 15/24/6
o cube
v 0.5 0.9999999999999999 -0.2071068749999999
v 0.18750000000000003 0.9999999999999999 -0.07766504307219237
v 0.5 0 -0.2071068749999999
v 0.18750000000000003 0 -0.07766504307219237
v 0.49999999999999994 0.9999999999999999 0.20710687500000013
v 0.18749999999999997 0.9999999999999999 0.0776650430721925
v 0.49999999999999994 0 0.20710687500000013
v 0.18749999999999997 0 0.0776650430721925
vt 0.92585625 0.6875
vt 0.7964125000000001 1
vt 0.6410875 1
vt 0.51164375 0.6875
vt 0.6410874999999999 1
vt 0.51164375 0.6875
vt 0.92585625 0.6875
vt 0.7964125 1
vt 0.4375 0
vt 0.4375 1
vt 0 1
vt 0 0
vn 0 1 0
vn 0 -1 0
vn 1 0 2.220446049250313e-16
usemtl m_65fb2591-8727-059a-7118-04daab72e1b7
f 17/25/7 18/26/7 22/27/7 21/28/7
f 20/29/8 19/30/8 23/31/8 24/32/8
f 19/33/9 17/34/9 21/35/9 23/36/9
o cube
v 0.20710671485041918 0.9999999999999999 -0.5000000663361284
v 0.07766504285498513 0.9999999999999999 -0.1875000000899702
v 0.20710671485041918 0 -0.5000000663361284
v 0.07766504285498513 0 -0.1875000000899702
v 0.5000000663361285 0.9999999999999999 -0.20710671485041904
v 0.18750000008997025 0.9999999999999999 -0.07766504285498504
v 0.5000000663361285 0 -0.20710671485041904
v 0.18750000008997025 0 -0.07766504285498504
vt 0.92585625 0.6875
vt 0.7964125000000001 1
vt 0.6410875 1
vt 0.51164375 0.6875
vt 0.6410874999999999 1
vt 0.51164375 0.6875
vt 0.92585625 0.6875
vt 0.7964125 1
vt 0.4375 0
vt 0.4375 1
vt 0 1
vt 0 0
vn 0 1 0
vn 0 -1 0
vn 0.7071067811865477 0 -0.7071067811865475
usemtl m_65fb2591-8727-059a-7118-04daab72e1b7
f 25/37/10 26/38/10 30/39/10 29/40/10
f 28/41/11 27/42/11 31/43/11 32/44/11
f 27/45/12 25/46/12 29/47/12 31/48/12
o cube
v -0.20710687500000008 0.9999999999999999 -0.5
v -0.07766504307219244 0.9999999999999999 -0.1875
v -0.20710687500000008 0 -0.5
v -0.07766504307219244 0 -0.1875
v 0.20710687499999997 0.9999999999999999 -0.5
v 0.07766504307219244 0.9999999999999999 -0.1875
v 0.20710687499999997 0 -0.5
v 0.07766504307219244 0 -0.1875
vt 0.92585625 0.6875
vt 0.7964125000000001 1
vt 0.6410875 1
vt 0.51164375 0.6875
vt 0.6410874999999999 1
vt 0.51164375 0.6875
vt 0.92585625 0.6875
vt 0.7964125 1
vt 0.4375 0
vt 0.4375 1
vt 0 1
vt 0 0
vn 0 1 0
vn 0 -1 0
vn -1.2246467991473532e-16 0 -1
usemtl m_65fb2591-8727-059a-7118-04daab72e1b7
f 33/49/13 34/50/13 38/51/13 37/52/13
f 36/53/14 35/54/14 39/55/14 40/56/14
f 35/57/15 33/58/15 37/59/15 39/60/15
o cube
v -0.5000000663361285 0.9999999999999999 -0.20710671485041904
v -0.18750000008997023 0.9999999999999999 -0.0776650428549851
v -0.5000000663361285 0 -0.20710671485041904
v -0.18750000008997023 0 -0.0776650428549851
v -0.20710671485041918 0.9999999999999999 -0.5000000663361284
v -0.0776650428549851 0.9999999999999999 -0.18750000008997025
v -0.20710671485041918 0 -0.5000000663361284
v -0.0776650428549851 0 -0.18750000008997025
vt 0.92585625 0.6875
vt 0.7964125000000001 1
vt 0.6410875 1
vt 0.51164375 0.6875
vt 0.6410874999999999 1
vt 0.51164375 0.6875
vt 0.92585625 0.6875
vt 0.7964125 1
vt 0.4375 0
vt 0.4375 1
vt 0 1
vt 0 0
vn 0 1 0
vn 0 -1 0
vn -0.7071067811865477 0 -0.7071067811865475
usemtl m_65fb2591-8727-059a-7118-04daab72e1b7
f 41/61/16 42/62/16 46/63/16 45/64/16
f 44/65/17 43/66/17 47/67/17 48/68/17
f 43/69/18 41/70/18 45/71/18 47/72/18
o cube
v -0.49999999999999994 0.9999999999999999 0.20710687500000013
v -0.18749999999999997 0.9999999999999999 0.07766504307219245
v -0.49999999999999994 0 0.20710687500000013
v -0.18749999999999997 0 0.07766504307219245
v -0.5 0.9999999999999999 -0.2071068749999999
v -0.18750000000000003 0.9999999999999999 -0.07766504307219242
v -0.5 0 -0.2071068749999999
v -0.18750000000000003 0 -0.07766504307219242
vt 0.92585625 0.6875
vt 0.7964125000000001 1
vt 0.6410875 1
vt 0.51164375 0.6875
vt 0.6410874999999999 1
vt 0.51164375 0.6875
vt 0.92585625 0.6875
vt 0.7964125 1
vt 0.4375 0
vt 0.4375 1
vt 0 1
vt 0 0
vn 0 1 0
vn 0 -1 0
vn -1 0 2.220446049250313e-16
usemtl m_65fb2591-8727-059a-7118-04daab72e1b7
f 49/73/19 50/74/19 54/75/19 53/76/19
f 52/77/20 51/78/20 55/79/20 56/80/20
f 51/81/21 49/82/21 53/83/21 55/84/21
o cube
v -0.20710671485041912 0.9999999999999999 0.5000000663361284
v -0.07766504285498513 0.9999999999999999 0.1875000000899702
v -0.20710671485041912 0 0.5000000663361284
v -0.07766504285498513 0 0.1875000000899702
v -0.5000000663361285 0.9999999999999999 0.20710671485041907
v -0.18750000008997025 0.9999999999999999 0.07766504285498506
v -0.5000000663361285 0 0.20710671485041907
v -0.18750000008997025 0 0.07766504285498506
vt 0.92585625 0.6875
vt 0.7964125000000001 1
vt 0.6410875 1
vt 0.51164375 0.6875
vt 0.6410874999999999 1
vt 0.51164375 0.6875
vt 0.92585625 0.6875
vt 0.7964125 1
vt 0.4375 0
vt 0.4375 1
vt 0 1
vt 0 0
vn 0 1 0
vn 0 -1 0
vn -0.7071067811865476 0 0.7071067811865475
usemtl m_65fb2591-8727-059a-7118-04daab72e1b7
f 57/85/22 58/86/22 62/87/22 61/88/22
f 60/89/23 59/90/23 63/91/23 64/92/23
f 59/93/24 57/94/24 61/95/24 63/96/24
o cylinder
v 0 0 0
v 0 1 0
v 0.07766504294495533 0 0.1875
v 0.07766504294495533 1 0.1875
v 0.1875 0 0.07766504294495534
v 0.1875 1 0.07766504294495534
v 0.1875 0 -0.07766504294495533
v 0.1875 1 -0.07766504294495533
v 0.07766504294495535 0 -0.1875
v 0.07766504294495535 1 -0.1875
v -0.07766504294495531 0 -0.18750000000000003
v -0.07766504294495531 1 -0.18750000000000003
v -0.18749999999999997 0 -0.07766504294495545
v -0.18749999999999997 1 -0.07766504294495545
v -0.1875 0 0.07766504294495537
v -0.1875 1 0.07766504294495537
v -0.07766504294495545 0 0.18749999999999997
v -0.07766504294495545 1 0.18749999999999997
vt 0.6253164392214007 0.8125017981336221
vt 0.7806501213785555 0.8125017981336221
vt 0.702983280299978 1
vt 0.6248569660913612 0.8125017981336221
vt 0.780190648248516 0.8125017981336221
vt 0.7025238071699386 1
vt 0.6254625 0.8125
vt 0.7807875 0.8125
vt 0.703125 1
vt 0.6254625 0.8125
vt 0.7807875 0.8125
vt 0.703125 1
vt 0.6248569660913612 0.8125017981336221
vt 0.780190648248516 0.8125017981336221
vt 0.7025238071699386 1
vt 0.6253164392214005 0.8125017981336222
vt 0.7806501213785553 0.812501798133622
vt 0.702983280299978 1
vt 0.625 0.8125
vt 0.7803249999999999 0.8125
vt 0.7026625 1
vt 0.7803249999999999 0.8125
vt 0.625 0.8125
vt 0.7026625 1
vt 0.6254224430469634 0.8125017981336221
vt 0.7807561252041182 0.8125017981336221
vt 0.7030892841255408 1
vt 0.6258182732612998 0.8125017981336221
vt 0.7811519554184547 0.8125017981336221
vt 0.7034851143398774 1
vt 0.6254625 0.8125
vt 0.7807875 0.8125
vt 0.703125 1
vt 0.6254625 0.8125
vt 0.7807875 0.8125
vt 0.703125 1
vt 0.6253906215891117 0.8125017981336221
vt 0.7807243037462667 0.8125017981336221
vt 0.7030574626676892 1
vt 0.6254224430469632 0.8125017981336221
vt 0.780756125204118 0.8125017981336221
vt 0.7030892841255406 1
vt 0.6250000000000001 0.8124999999999999
vt 0.780325 0.8124999999999999
vt 0.7026625000000001 0.9999999999999999
vt 0.625 0.8125
vt 0.7803249999999999 0.8125
vt 0.7026625 1
vn 0 -1 0
vn 0 1 0
vn 0 -1 0
vn 0 1 0
vn 0 -1 0
vn 0 1 0
vn 0 -1 0
vn 0 1 0
vn 0 -1 0
vn 0 1 0
vn 0 -1 0
vn 0 1 0
vn 0 -1 0
vn 0 1 0
vn 0 -1 0
vn 0 1 0
usemtl m_65fb2591-8727-059a-7118-04daab72e1b7
f 69/97/25 67/98/25 65/99/25
f 68/100/26 70/101/26 66/102/26
f 71/103/27 69/104/27 65/105/27
f 70/106/28 72/107/28 66/108/28
f 73/109/29 71/110/29 65/111/29
f 72/112/30 74/113/30 66/114/30
f 75/115/31 73/116/31 65/117/31
f 74/118/32 76/119/32 66/120/32
f 77/121/33 75/122/33 65/123/33
f 76/124/34 78/125/34 66/126/34
f 79/127/35 77/128/35 65/129/35
f 78/130/36 80/131/36 66/132/36
f 81/133/37 79/134/37 65/135/37
f 80/136/38 82/137/38 66/138/38
f 67/139/39 81/140/39 65/141/39
f 82/142/40 68/143/40 66/144/40
