# Made in Blockbench 5.1.5
mtllib stripped_wood_pillar.mtl

o cube
v -0.207106875 1 -0.5
v -0.077665 1 -0.1875
v 0.077665 1 -0.1875
v 0.207106875 1 -0.5
v -0.077665 0 -0.1875
v -0.207106875 0 -0.5
v 0.207106875 0 -0.5
v 0.077665 0 -0.1875
vt 0.70710625 0
vt 0.5776625 0.3125
vt 0.42233750000000003 0.3125
vt 0.29289374999999995 0
vt 0.42233750000000003 0.3125
vt 0.29289374999999995 0
vt 0.70710625 0
vt 0.5776625 0.3125
vt 0.6875 0
vt 0.6875 1
vt 0.25 1
vt 0.25 0
vn 0 1 0
vn 0 -1 0
vn 0 0 -1
usemtl m_ecce583d-1f94-7a46-a948-7aa94086f745
f 1/1/1 2/2/1 3/3/1 4/4/1
f 5/5/2 6/6/2 7/7/2 8/8/2
usemtl m_80126952-8a18-d71f-3d22-08b71ab5fdc3
f 6/9/3 1/10/3 4/11/3 7/12/3
o cylinder
v 0.1875 0 0.077665
v 0.077665 0 0.1875
v 0 0 0
v 0.077665 1 0.1875
v 0.1875 1 0.077665
v 0 1 0
v 0.1875 0 -0.077665
v 0.1875 1 -0.077665
v 0.077665 0 -0.1875
v 0.077665 1 -0.1875
v -0.077665 0 -0.1875
v -0.077665 1 -0.1875
v -0.1875 0 -0.077665
v -0.1875 1 -0.077665
v -0.1875 0 0.077665
v -0.1875 1 0.077665
v -0.077665 0 0.1875
v -0.077665 1 0.1875
vt 0.37531625 0.12500187500000004
vt 0.53065 0.12500187500000004
vt 0.45298312500000004 0.3125
vt 0.374856875 0.12500187500000004
vt 0.530190625 0.12500187500000004
vt 0.45252375 0.3125
vt 0.37546250000000003 0.125
vt 0.5307875 0.125
vt 0.453125 0.3125
vt 0.37546250000000003 0.125
vt 0.5307875 0.125
vt 0.453125 0.3125
vt 0.374856875 0.12500187500000004
vt 0.530190625 0.12500187500000004
vt 0.45252375 0.3125
vt 0.37531625 0.12500187500000004
vt 0.53065 0.12500187500000004
vt 0.45298312500000004 0.3125
vt 0.375 0.125
vt 0.530325 0.125
vt 0.45266249999999997 0.3125
vt 0.530325 0.125
vt 0.375 0.125
vt 0.45266249999999997 0.3125
vt 0.3754225 0.12500187500000004
vt 0.53075625 0.12500187500000004
vt 0.453089375 0.3125
vt 0.375818125 0.12500187500000004
vt 0.531151875 0.12500187500000004
vt 0.453485 0.3125
vt 0.37546250000000003 0.125
vt 0.5307875 0.125
vt 0.453125 0.3125
vt 0.37546250000000003 0.125
vt 0.5307875 0.125
vt 0.453125 0.3125
vt 0.375390625 0.12500187500000004
vt 0.530724375 0.12500187500000004
vt 0.4530575 0.3125
vt 0.3754225 0.12500187500000004
vt 0.53075625 0.12500187500000004
vt 0.453089375 0.3125
vt 0.375 0.125
vt 0.530325 0.125
vt 0.45266249999999997 0.3125
vt 0.375 0.125
vt 0.530325 0.125
vt 0.45266249999999997 0.3125
vn 0 -1 0
vn 0 1 0
vn 0 -1 0
vn 0 1 0
vn 0 -1 0
vn 0 1 0
vn 0 -1 0
vn 0 1 0
vn 0 -1 0
vn 0 1 0
vn 0 -1 0
vn 0 1 0
vn 0 -1 0
vn 0 1 0
vn 0 -1 0
vn 0 1 0
usemtl m_ecce583d-1f94-7a46-a948-7aa94086f745
f 9/13/4 10/14/4 11/15/4
f 12/16/5 13/17/5 14/18/5
f 15/19/6 9/20/6 11/21/6
f 13/22/7 16/23/7 14/24/7
f 17/25/8 15/26/8 11/27/8
f 16/28/9 18/29/9 14/30/9
f 19/31/10 17/32/10 11/33/10
f 18/34/11 20/35/11 14/36/11
f 21/37/12 19/38/12 11/39/12
f 20/40/13 22/41/13 14/42/13
f 23/43/14 21/44/14 11/45/14
f 22/46/15 24/47/15 14/48/15
f 25/49/16 23/50/16 11/51/16
f 24/52/17 26/53/17 14/54/17
f 10/55/18 25/56/18 11/57/18
f 26/58/19 12/59/19 14/60/19
o cube
v -0.5000000663361284 1 -0.20710671485041907
v -0.18749996963333088 1 -0.07766507331162444
v -0.07766507331162448 1 -0.18749996963333088
v -0.20710671485041915 1 -0.5000000663361284
v -0.18749996963333088 0 -0.07766507331162444
v -0.5000000663361284 0 -0.20710671485041907
v -0.20710671485041915 0 -0.5000000663361284
v -0.07766507331162448 0 -0.18749996963333088
vt 0.70710625 0
vt 0.5776625 0.3125
vt 0.42233750000000003 0.3125
vt 0.29289374999999995 0
vt 0.42233750000000003 0.3125
vt 0.29289374999999995 0
vt 0.70710625 0
vt 0.5776625 0.3125
vt 0.6875 0
vt 0.6875 1
vt 0.25 1
vt 0.25 0
vn 0 1 0
vn 0 -1 0
vn -0.7071067811865476 0 -0.7071067811865475
usemtl m_ecce583d-1f94-7a46-a948-7aa94086f745
f 27/61/20 28/62/20 29/63/20 30/64/20
f 31/65/21 32/66/21 33/67/21 34/68/21
usemtl m_80126952-8a18-d71f-3d22-08b71ab5fdc3
f 32/69/22 27/70/22 30/71/22 33/72/22
o cube
v -0.5 1 0.20710687499999988
v -0.18750000000000003 1 0.07766499999999996
v -0.18749999999999997 1 -0.07766500000000004
v -0.49999999999999994 1 -0.2071068750000001
v -0.18750000000000003 0 0.07766499999999996
v -0.5 0 0.20710687499999988
v -0.49999999999999994 0 -0.2071068750000001
v -0.18749999999999997 0 -0.07766500000000004
vt 0.70710625 0
vt 0.5776625 0.3125
vt 0.42233750000000003 0.3125
vt 0.29289374999999995 0
vt 0.42233750000000003 0.3125
vt 0.29289374999999995 0
vt 0.70710625 0
vt 0.5776625 0.3125
vt 0.6875 0
vt 0.6875 1
vt 0.25 1
vt 0.25 0
vn 0 1 0
vn 0 -1 0
vn -1 0 -2.220446049250313e-16
usemtl m_ecce583d-1f94-7a46-a948-7aa94086f745
f 35/73/23 36/74/23 37/75/23 38/76/23
f 39/77/24 40/78/24 41/79/24 42/80/24
usemtl m_80126952-8a18-d71f-3d22-08b71ab5fdc3
f 40/81/25 35/82/25 38/83/25 41/84/25
o cube
v -0.2071067148504192 1 0.5000000663361284
v -0.07766507331162448 1 0.18749996963333088
v -0.18749996963333088 1 0.07766507331162442
v -0.5000000663361285 1 0.20710671485041904
v -0.07766507331162448 0 0.18749996963333088
v -0.2071067148504192 0 0.5000000663361284
v -0.5000000663361285 0 0.20710671485041904
v -0.18749996963333088 0 0.07766507331162442
vt 0.70710625 0
vt 0.5776625 0.3125
vt 0.42233750000000003 0.3125
vt 0.29289374999999995 0
vt 0.42233750000000003 0.3125
vt 0.29289374999999995 0
vt 0.70710625 0
vt 0.5776625 0.3125
vt 0.6875 0
vt 0.6875 1
vt 0.25 1
vt 0.25 0
vn 0 1 0
vn 0 -1 0
vn -0.7071067811865477 0 0.7071067811865475
usemtl m_ecce583d-1f94-7a46-a948-7aa94086f745
f 43/85/26 44/86/26 45/87/26 46/88/26
f 47/89/27 48/90/27 49/91/27 50/92/27
usemtl m_80126952-8a18-d71f-3d22-08b71ab5fdc3
f 48/93/28 43/94/28 46/95/28 49/96/28
o cube
v 0.20710687500000005 1 0.5
v 0.07766500000000003 1 0.1875
v -0.07766499999999997 1 0.1875
v -0.20710687499999994 1 0.5
v 0.07766500000000003 0 0.1875
v 0.20710687500000005 0 0.5
v -0.20710687499999994 0 0.5
v -0.07766499999999997 0 0.1875
vt 0.70710625 0
vt 0.5776625 0.3125
vt 0.42233750000000003 0.3125
vt 0.29289374999999995 0
vt 0.42233750000000003 0.3125
vt 0.29289374999999995 0
vt 0.70710625 0
vt 0.5776625 0.3125
vt 0.6875 0
vt 0.6875 1
vt 0.25 1
vt 0.25 0
vn 0 1 0
vn 0 -1 0
vn 1.2246467991473532e-16 0 1
usemtl m_ecce583d-1f94-7a46-a948-7aa94086f745
f 51/97/29 52/98/29 53/99/29 54/100/29
f 55/101/30 56/102/30 57/103/30 58/104/30
usemtl m_80126952-8a18-d71f-3d22-08b71ab5fdc3
f 56/105/31 51/106/31 54/107/31 57/108/31
o cube
v 0.5000000663361285 1 0.20710671485041904
v 0.18749996963333088 1 0.07766507331162442
v 0.07766507331162448 1 0.18749996963333088
v 0.2071067148504192 1 0.5000000663361284
v 0.18749996963333088 0 0.07766507331162442
v 0.5000000663361285 0 0.20710671485041904
v 0.2071067148504192 0 0.5000000663361284
v 0.07766507331162448 0 0.18749996963333088
vt 0.70710625 0
vt 0.5776625 0.3125
vt 0.42233750000000003 0.3125
vt 0.29289374999999995 0
vt 0.42233750000000003 0.3125
vt 0.29289374999999995 0
vt 0.70710625 0
vt 0.5776625 0.3125
vt 0.6875 0
vt 0.6875 1
vt 0.25 1
vt 0.25 0
vn 0 1 0
vn 0 -1 0
vn 0.7071067811865477 0 0.7071067811865475
usemtl m_ecce583d-1f94-7a46-a948-7aa94086f745
f 59/109/32 60/110/32 61/111/32 62/112/32
f 63/113/33 64/114/33 65/115/33 66/116/33
usemtl m_80126952-8a18-d71f-3d22-08b71ab5fdc3
f 64/117/34 59/118/34 62/119/34 65/120/34
o cube
v 0.49999999999999994 1 -0.2071068750000001
v 0.18749999999999997 1 -0.07766500000000004
v 0.18750000000000003 1 0.07766499999999996
v 0.5 1 0.20710687499999988
v 0.18749999999999997 0 -0.07766500000000004
v 0.49999999999999994 0 -0.2071068750000001
v 0.5 0 0.20710687499999988
v 0.18750000000000003 0 0.07766499999999996
vt 0.70710625 0
vt 0.5776625 0.3125
vt 0.42233750000000003 0.3125
vt 0.29289374999999995 0
vt 0.42233750000000003 0.3125
vt 0.29289374999999995 0
vt 0.70710625 0
vt 0.5776625 0.3125
vt 0.6875 0
vt 0.6875 1
vt 0.25 1
vt 0.25 0
vn 0 1 0
vn 0 -1 0
vn 1 0 -2.220446049250313e-16
usemtl m_ecce583d-1f94-7a46-a948-7aa94086f745
f 67/121/35 68/122/35 69/123/35 70/124/35
f 71/125/36 72/126/36 73/127/36 74/128/36
usemtl m_80126952-8a18-d71f-3d22-08b71ab5fdc3
f 72/129/37 67/130/37 70/131/37 73/132/37
o cube
v 0.20710671485041915 1 -0.5000000663361284
v 0.07766507331162448 1 -0.18749996963333088
v 0.18749996963333088 1 -0.07766507331162444
v 0.5000000663361284 1 -0.20710671485041907
v 0.07766507331162448 0 -0.18749996963333088
v 0.20710671485041915 0 -0.5000000663361284
v 0.5000000663361284 0 -0.20710671485041907
v 0.18749996963333088 0 -0.07766507331162444
vt 0.70710625 0
vt 0.5776625 0.3125
vt 0.42233750000000003 0.3125
vt 0.29289374999999995 0
vt 0.42233750000000003 0.3125
vt 0.29289374999999995 0
vt 0.70710625 0
vt 0.5776625 0.3125
vt 0.6875 0
vt 0.6875 1
vt 0.25 1
vt 0.25 0
vn 0 1 0
vn 0 -1 0
vn 0.7071067811865476 0 -0.7071067811865475
usemtl m_ecce583d-1f94-7a46-a948-7aa94086f745
f 75/133/38 76/134/38 77/135/38 78/136/38
f 79/137/39 80/138/39 81/139/39 82/140/39
usemtl m_80126952-8a18-d71f-3d22-08b71ab5fdc3
f 80/141/40 75/142/40 78/143/40 81/144/40
