# Made in Blockbench 5.1.5
mtllib rockery_1x1x1.mtl

o cube
v 0.25 0.9375 0.25
v 0.25 0.9375 -0.25
v 0.25 0 0.25
v 0.25 0 -0.25
v -0.1875 0.9375 -0.25
v -0.1875 0.9375 0.25
v -0.1875 0 -0.25
v -0.1875 0 0.25
vt 0 0.75
vt 0.109375 0.75
vt 0.109375 0.515625
vt 0 0.515625
vt 0 1
vt 0.125 1
vt 0.125 0.765625
vt 0 0.765625
vt 0.125 0.75
vt 0.234375 0.75
vt 0.234375 0.515625
vt 0.125 0.515625
vt 0.140625 1
vt 0.265625 1
vt 0.265625 0.765625
vt 0.140625 0.765625
vt 0.203125 0.375
vt 0.09375 0.375
vt 0.09375 0.5
vt 0.203125 0.5
vt 0.609375 0.609375
vt 0.5 0.609375
vt 0.5 0.484375
vt 0.609375 0.484375
vn 0 0 -1
vn 1 0 0
vn 0 0 1
vn -1 0 0
vn 0 1 0
vn 0 -1 0
usemtl m_a3babe6f-d7ff-3a1b-624c-01b4258a5f66
f 4/4/1 7/3/1 5/2/1 2/1/1
f 3/8/2 4/7/2 2/6/2 1/5/2
f 8/12/3 3/11/3 1/10/3 6/9/3
f 7/16/4 8/15/4 6/14/4 5/13/4
f 6/20/5 1/19/5 2/18/5 5/17/5
f 7/24/6 4/23/6 3/22/6 8/21/6
o cube
v 0.1875 0.0625 0.4375
v 0.1875 0.0625 0.125
v 0.1875 0 0.4375
v 0.1875 0 0.125
v -0.25 0.0625 0.125
v -0.25 0.0625 0.4375
v -0.25 0 0.125
v -0.25 0 0.4375
vt 0.28125 0.78125
vt 0.359375 0.78125
vt 0.359375 0.765625
vt 0.28125 0.765625
vt 0.703125 0.765625
vt 0.8125 0.765625
vt 0.8125 0.75
vt 0.703125 0.75
vt 0.40625 0.859375
vt 0.484375 0.859375
vt 0.484375 0.84375
vt 0.40625 0.84375
vt 0.71875 0.921875
vt 0.609375 0.921875
vt 0.609375 0.84375
vt 0.71875 0.84375
vn 1 0 0
vn 0 0 1
vn -1 0 0
vn 0 -1 0
usemtl m_a3babe6f-d7ff-3a1b-624c-01b4258a5f66
f 11/28/7 12/27/7 10/26/7 9/25/7
f 16/32/8 11/31/8 9/30/8 14/29/8
f 15/36/9 16/35/9 14/34/9 13/33/9
f 15/40/10 12/39/10 11/38/10 16/37/10
o cube
v 0.3125 0.0625 -0.1875
v 0.3125 0.0625 -0.4375
v 0.3125 0 -0.1875
v 0.3125 0 -0.4375
v -0.25 0.0625 -0.4375
v -0.25 0.0625 -0.1875
v -0.25 0 -0.4375
v -0.25 0 -0.1875
vt 0.703125 0.828125
vt 0.84375 0.828125
vt 0.84375 0.8125
vt 0.703125 0.8125
vt 0.40625 0.828125
vt 0.46875 0.828125
vt 0.46875 0.8125
vt 0.40625 0.8125
vt 0.515625 0.671875
vt 0.578125 0.671875
vt 0.578125 0.65625
vt 0.515625 0.65625
vt 0.703125 1
vt 0.5625 1
vt 0.5625 0.9375
vt 0.703125 0.9375
vn 0 0 -1
vn 1 0 0
vn -1 0 0
vn 0 -1 0
usemtl m_a3babe6f-d7ff-3a1b-624c-01b4258a5f66
f 20/44/11 23/43/11 21/42/11 18/41/11
f 19/48/12 20/47/12 18/46/12 17/45/12
f 23/52/13 24/51/13 22/50/13 21/49/13
f 23/56/14 20/55/14 19/54/14 24/53/14
o cube
v 0.4375 0.0625 0.28125
v 0.4375 0.0625 -0.21875
v 0.4375 0 0.28125
v 0.4375 0 -0.21875
v 0.1875 0.0625 -0.21875
v 0.1875 0.0625 0.28125
v 0.1875 0 -0.21875
v 0.1875 0 0.28125
vt 0.515625 0.640625
vt 0.578125 0.640625
vt 0.578125 0.625
vt 0.515625 0.625
vt 0.703125 0.796875
vt 0.828125 0.796875
vt 0.828125 0.78125
vt 0.703125 0.78125
vt 0.25 0.3125
vt 0.3125 0.3125
vt 0.3125 0.296875
vt 0.25 0.296875
vt 0.65625 0.390625
vt 0.59375 0.390625
vt 0.59375 0.265625
vt 0.65625 0.265625
vn 0 0 -1
vn 1 0 0
vn 0 0 1
vn 0 -1 0
usemtl m_a3babe6f-d7ff-3a1b-624c-01b4258a5f66
f 28/60/15 31/59/15 29/58/15 26/57/15
f 27/64/16 28/63/16 26/62/16 25/61/16
f 32/68/17 27/67/17 25/66/17 30/65/17
f 31/72/18 28/71/18 27/70/18 32/69/18
o cube
v 0.32896988895816853 0.67800484563263 0.28125
v 0.32896988895816853 0.67800484563263 -0.21875
v 0.4375 0.0625 0.28125
v 0.4375 0.0625 -0.21875
v 0.08276795070511656 0.6345928012158973 -0.21875
v 0.08276795070511656 0.6345928012158973 0.28125
v 0.191298061746948 0.019087955583267417 -0.21875
v 0.191298061746948 0.019087955583267417 0.28125
vt 0.34375 0.421875
vt 0.40625 0.421875
vt 0.40625 0.265625
vt 0.34375 0.265625
vt 0.375 0.78125
vt 0.5 0.78125
vt 0.5 0.625
vt 0.375 0.625
vt 0.421875 0.421875
vt 0.484375 0.421875
vt 0.484375 0.265625
vt 0.421875 0.265625
vt 0.6875 0.484375
vt 0.625 0.484375
vt 0.625 0.609375
vt 0.6875 0.609375
vn 0 0 -1
vn 0.984807753012208 0.17364817766693033 0
vn 0 0 1
vn -0.17364817766693033 0.984807753012208 0
usemtl m_a3babe6f-d7ff-3a1b-624c-01b4258a5f66
f 36/76/19 39/75/19 37/74/19 34/73/19
f 35/80/20 36/79/20 34/78/20 33/77/20
f 40/84/21 35/83/21 33/82/21 38/81/21
f 38/88/22 33/87/22 34/86/22 37/85/22
o cube
v 0.011341567170695899 0.8083912438015033 0.125
v 0.011341567170695899 0.8083912438015033 -0.3125
v -0.12974757718368501 0.008234944479084273 0.125
v -0.12974757718368501 0.008234944479084273 -0.3125
v -0.2964108556456191 0.862656299322419 -0.3125
v -0.2964108556456191 0.862656299322419 0.125
v -0.4375 0.0625 -0.3125
v -0.4375 0.0625 0.125
vt 0.25 0.53125
vt 0.328125 0.53125
vt 0.328125 0.328125
vt 0.25 0.328125
vt 0.25 0.75
vt 0.359375 0.75
vt 0.359375 0.546875
vt 0.25 0.546875
vt 0 0.5
vt 0.078125 0.5
vt 0.078125 0.296875
vt 0 0.296875
vt 0.28125 1
vt 0.390625 1
vt 0.390625 0.796875
vt 0.28125 0.796875
vt 0.6875 0.71875
vt 0.609375 0.71875
vt 0.609375 0.828125
vt 0.6875 0.828125
vn 0 0 -1
vn 0.984807753012208 -0.17364817766693033 0
vn 0 0 1
vn -0.984807753012208 0.17364817766693033 0
vn 0.17364817766693033 0.984807753012208 0
usemtl m_a3babe6f-d7ff-3a1b-624c-01b4258a5f66
f 44/92/23 47/91/23 45/90/23 42/89/23
f 43/96/24 44/95/24 42/94/24 41/93/24
f 48/100/25 43/99/25 41/98/25 46/97/25
f 47/104/26 48/103/26 46/102/26 45/101/26
f 46/108/27 41/107/27 42/106/27 45/105/27
o cube
v -0.1875 0.0625 0.125
v -0.1875 0.0625 -0.3125
v -0.1875 0 0.125
v -0.1875 0 -0.3125
v -0.4375 0.0625 -0.3125
v -0.4375 0.0625 0.125
v -0.4375 0 -0.3125
v -0.4375 0 0.125
vt 0.703125 0.609375
vt 0.765625 0.609375
vt 0.765625 0.59375
vt 0.703125 0.59375
vt 0.703125 0.578125
vt 0.765625 0.578125
vt 0.765625 0.5625
vt 0.703125 0.5625
vt 0.703125 0.734375
vt 0.8125 0.734375
vt 0.8125 0.71875
vt 0.703125 0.71875
vt 0.734375 0.390625
vt 0.671875 0.390625
vt 0.671875 0.28125
vt 0.734375 0.28125
vn 0 0 -1
vn 0 0 1
vn -1 0 0
vn 0 -1 0
usemtl m_a3babe6f-d7ff-3a1b-624c-01b4258a5f66
f 52/112/28 55/111/28 53/110/28 50/109/28
f 56/116/29 51/115/29 49/114/29 54/113/29
f 55/120/30 56/119/30 54/118/30 53/117/30
f 55/124/31 52/123/31 51/122/31 56/121/31
o cube
v 0.1875 0.739555330195893 0.3181168778539854
v 0.1875 0.6852902746749773 0.010364455037670417
v 0.1875 0.0625 0.4375
v 0.1875 0.008234944479084273 0.12974757718368501
v -0.25 0.6852902746749773 0.010364455037670417
v -0.25 0.739555330195893 0.3181168778539854
v -0.25 0.008234944479084273 0.12974757718368501
v -0.25 0.0625 0.4375
vt 0.515625 0.859375
vt 0.59375 0.859375
vt 0.59375 0.6875
vt 0.515625 0.6875
vt 0.375 0.609375
vt 0.484375 0.609375
vt 0.484375 0.4375
vt 0.375 0.4375
vt 0.5 0.46875
vt 0.578125 0.46875
vt 0.578125 0.296875
vt 0.5 0.296875
vt 0.71875 0.625
vt 0.609375 0.625
vt 0.609375 0.703125
vt 0.71875 0.703125
vn 1 0 0
vn 0 0.17364817766693033 0.984807753012208
vn -1 0 0
vn 0 0.984807753012208 -0.17364817766693033
usemtl m_a3babe6f-d7ff-3a1b-624c-01b4258a5f66
f 59/128/32 60/127/32 58/126/32 57/125/32
f 64/132/33 59/131/33 57/130/33 62/129/33
f 63/136/34 64/135/34 62/134/34 61/133/34
f 62/140/35 57/139/35 58/138/35 61/137/35
o cube
v 0.3125 0.5255908826318922 -0.12437568854652159
v 0.3125 0.5582224306869052 -0.3722369038899742
v 0.3125 0.029868451944987107 -0.1896387846565474
v 0.3125 0.0625 -0.4375
v -0.25 0.5582224306869052 -0.3722369038899742
v -0.25 0.5255908826318922 -0.12437568854652159
v -0.25 0.0625 -0.4375
v -0.25 0.029868451944987107 -0.1896387846565474
vt 0.40625 1
vt 0.546875 1
vt 0.546875 0.875
vt 0.40625 0.875
vt 0.09375 0.359375
vt 0.15625 0.359375
vt 0.15625 0.234375
vt 0.09375 0.234375
vt 0.171875 0.359375
vt 0.234375 0.359375
vt 0.234375 0.234375
vt 0.171875 0.234375
vt 0.734375 0.40625
vt 0.59375 0.40625
vt 0.59375 0.46875
vt 0.734375 0.46875
vn 0 0.13052619222005157 -0.9914448613738104
vn 1 0 0
vn -1 0 0
vn 0 0.9914448613738104 0.13052619222005157
usemtl m_a3babe6f-d7ff-3a1b-624c-01b4258a5f66
f 68/144/36 71/143/36 69/142/36 66/141/36
f 67/148/37 68/147/37 66/146/37 65/145/37
f 71/152/38 72/151/38 70/150/38 69/149/38
f 70/156/39 65/155/39 66/154/39 69/153/39