# Made in Blockbench 5.1.5
mtllib rockery_1x2x1.mtl

o cube
v 0.4375 0.25 1.15625
v 0.4375 0.25 -0.34375
v 0.4375 0 1.15625
v 0.4375 0 -0.34375
v -0.3125 0.25 -0.34375
v -0.3125 0.25 1.15625
v -0.3125 0 -0.34375
v -0.3125 0 1.15625
vt 0 0.5703125
vt 0.09375 0.5703125
vt 0.09375 0.5390625
vt 0 0.5390625
vt 0.375 0.7421875
vt 0.5625 0.7421875
vt 0.5625 0.7109375
vt 0.375 0.7109375
vt 0.1015625 0.5703125
vt 0.1953125 0.5703125
vt 0.1953125 0.5390625
vt 0.1015625 0.5390625
vt 0.375 0.703125
vt 0.5625 0.703125
vt 0.5625 0.671875
vt 0.375 0.671875
vt 0.09375 0.8125
vt 0 0.8125
vt 0 1
vt 0.09375 1
vt 0.1953125 1
vt 0.1015625 1
vt 0.1015625 0.8125
vt 0.1953125 0.8125
vn 0 0 -1
vn 1 0 0
vn 0 0 1
vn -1 0 0
vn 0 1 0
vn 0 -1 0
usemtl m_5df2e0a0-aa83-3435-4ebc-01951bc92aa5
f 4/4/1 7/3/1 5/2/1 2/1/1
f 3/8/2 4/7/2 2/6/2 1/5/2
f 8/12/3 3/11/3 1/10/3 6/9/3
f 7/16/4 8/15/4 6/14/4 5/13/4
f 6/20/5 1/19/5 2/18/5 5/17/5
f 7/24/6 4/23/6 3/22/6 8/21/6
o cube
v 0.359375 0.3822864971336686 1.3284533292165837
v 0.359375 0.3168574160856646 -0.17011900315620304
v 0.359375 0.1325244417382041 1.3393581760579176
v 0.359375 0.0670953606902001 -0.15921415631486904
v -0.328125 0.3168574160856646 -0.17011900315620304
v -0.328125 0.3822864971336686 1.3284533292165837
v -0.328125 0.0670953606902001 -0.15921415631486904
v -0.328125 0.1325244417382041 1.3393581760579176
vt 0.421875 0.5390625
vt 0.5078125 0.5390625
vt 0.5078125 0.5078125
vt 0.421875 0.5078125
vt 0 0.609375
vt 0.1875 0.609375
vt 0.1875 0.578125
vt 0 0.578125
vt 0 0.53125
vt 0.0859375 0.53125
vt 0.0859375 0.5
vt 0 0.5
vt 0.390625 1
vt 0.578125 1
vt 0.578125 0.96875
vt 0.390625 0.96875
vt 0.0859375 0.6171875
vt 0 0.6171875
vt 0 0.8046875
vt 0.0859375 0.8046875
vt 0.1796875 0.8046875
vt 0.09375 0.8046875
vt 0.09375 0.6171875
vt 0.1796875 0.6171875
vn 0 -0.043619387365336 -0.9990482215818578
vn 1 0 0
vn 0 0.043619387365336 0.9990482215818578
vn -1 0 0
vn 0 0.9990482215818578 -0.043619387365336
vn 0 -0.9990482215818578 0.043619387365336
usemtl m_5df2e0a0-aa83-3435-4ebc-01951bc92aa5
f 12/28/7 15/27/7 13/26/7 10/25/7
f 11/32/8 12/31/8 10/30/8 9/29/8
f 16/36/9 11/35/9 9/34/9 14/33/9
f 15/40/10 16/39/10 14/38/10 13/37/10
f 14/44/11 9/43/11 10/42/11 13/41/11
f 15/48/12 12/47/12 11/46/12 16/45/12
o cube
v 0.4800492006451616 0.4136804876100797 1.2312508216801237
v 0.48242751433782066 0.4681528268273661 -0.017559455297198615
v 0.46643111584084 0.10177506603324446 1.2176197631284562
v 0.4688094295334991 0.15624740525053082 -0.031190513848866112
v -0.20441813799970654 0.49814115564103456 -0.017559455297198615
v -0.2067964516923656 0.4436688164237482 1.2312508216801237
v -0.21803622280402812 0.18623573406419933 -0.031190513848866112
v -0.22041453649668719 0.13176339484691296 1.2176197631284562
vt 0.421875 0.6328125
vt 0.5078125 0.6328125
vt 0.5078125 0.59375
vt 0.421875 0.59375
vt 0.375 0.8359375
vt 0.53125 0.8359375
vt 0.53125 0.796875
vt 0.375 0.796875
vt 0.421875 0.5859375
vt 0.5078125 0.5859375
vt 0.5078125 0.546875
vt 0.421875 0.546875
vt 0.375 0.7890625
vt 0.53125 0.7890625
vt 0.53125 0.75
vt 0.375 0.75
vt 0.3671875 0.65625
vt 0.28125 0.65625
vt 0.28125 0.8125
vt 0.3671875 0.8125
vt 0.3828125 1
vt 0.296875 1
vt 0.296875 0.84375
vt 0.3828125 0.84375
vn 0.001902650954127234 0.04357787137382909 -0.9990482215818578
vn 0.9990482215818578 -0.04361938736533601 -2.168404344971009e-19
vn -0.001902650954127234 -0.04357787137382909 0.9990482215818578
vn -0.9990482215818578 0.04361938736533601 2.168404344971009e-19
vn 0.04357787137382909 0.9980973490458729 0.04361938736533601
vn -0.04357787137382909 -0.9980973490458729 -0.04361938736533601
usemtl m_5df2e0a0-aa83-3435-4ebc-01951bc92aa5
f 20/52/13 23/51/13 21/50/13 18/49/13
f 19/56/14 20/55/14 18/54/14 17/53/14
f 24/60/15 19/59/15 17/58/15 22/57/15
f 23/64/16 24/63/16 22/62/16 21/61/16
f 22/68/17 17/67/17 18/66/17 21/65/17
f 23/72/18 20/71/18 19/70/18 24/69/18
o cube
v 0.09894452463884168 0.42168220104173393 0.7721790726019913
v 0.10120392264686778 0.3699334787853119 -0.41419069052646496
v 0.109838992482299 0.17215786378026574 0.7830839194433252
v 0.1120983904903251 0.12040914152384369 -0.403285843685131
v -0.39832018814406117 0.34812378510264386 -0.41419069052646496
v -0.4005795861520872 0.39987250735906593 0.7721790726019913
v -0.38742572030060385 0.09859944784117568 -0.403285843685131
v -0.38968511830862995 0.1503481700975977 0.7830839194433252
vt 0.1953125 0.6171875
vt 0.2578125 0.6171875
vt 0.2578125 0.5859375
vt 0.1953125 0.5859375
vt 0.390625 0.9609375
vt 0.5390625 0.9609375
vt 0.5390625 0.9296875
vt 0.390625 0.9296875
vt 0.203125 0.578125
vt 0.265625 0.578125
vt 0.265625 0.546875
vt 0.203125 0.546875
vt 0.390625 0.921875
vt 0.5390625 0.921875
vt 0.5390625 0.890625
vt 0.390625 0.890625
vt 0.34375 0.5
vt 0.28125 0.5
vt 0.28125 0.6484375
vt 0.34375 0.6484375
vt 0.4140625 0.6484375
vt 0.3515625 0.6484375
vt 0.3515625 0.5
vt 0.4140625 0.5
vn 0.001902650954127234 -0.04357787137382909 -0.9990482215818578
vn 0.9990482215818578 0.04361938736533601 -2.168404344971009e-19
vn -0.001902650954127234 0.04357787137382909 0.9990482215818578
vn -0.9990482215818578 -0.04361938736533601 2.168404344971009e-19
vn -0.04357787137382909 0.9980973490458729 -0.04361938736533601
vn 0.04357787137382909 -0.9980973490458729 0.04361938736533601
usemtl m_5df2e0a0-aa83-3435-4ebc-01951bc92aa5
f 28/76/19 31/75/19 29/74/19 26/73/19
f 27/80/20 28/79/20 26/78/20 25/77/20
f 32/84/21 27/83/21 25/82/21 30/81/21
f 31/88/22 32/87/22 30/86/22 29/85/22
f 30/92/23 25/91/23 26/90/23 29/89/23
f 31/96/24 28/95/24 27/94/24 32/93/24
o cube
v 0.21875 0.234375 1.25
v 0.21875 0.234375 -0.1875
v 0.21875 0.046875 1.25
v 0.21875 0.046875 -0.1875
v -0.46875 0.234375 -0.1875
v -0.46875 0.234375 1.25
v -0.46875 0.046875 -0.1875
v -0.46875 0.046875 1.25
vt 0.09375 0.53125
vt 0.1796875 0.53125
vt 0.1796875 0.5078125
vt 0.09375 0.5078125
vt 0.390625 0.8828125
vt 0.5703125 0.8828125
vt 0.5703125 0.859375
vt 0.390625 0.859375
vt 0.1875 0.53125
vt 0.2734375 0.53125
vt 0.2734375 0.5078125
vt 0.1875 0.5078125
vt 0.421875 0.6640625
vt 0.6015625 0.6640625
vt 0.6015625 0.640625
vt 0.421875 0.640625
vt 0.2734375 0.625
vt 0.1875 0.625
vt 0.1875 0.8046875
vt 0.2734375 0.8046875
vt 0.2890625 1
vt 0.203125 1
vt 0.203125 0.8203125
vt 0.2890625 0.8203125
vn 0 0 -1
vn 1 0 0
vn 0 0 1
vn -1 0 0
vn 0 1 0
vn 0 -1 0
usemtl m_5df2e0a0-aa83-3435-4ebc-01951bc92aa5
f 36/100/25 39/99/25 37/98/25 34/97/25
f 35/104/26 36/103/26 34/102/26 33/101/26
f 40/108/27 35/107/27 33/106/27 38/105/27
f 39/112/28 40/111/28 38/110/28 37/109/28
f 38/116/29 33/115/29 34/114/29 37/113/29
f 39/120/30 36/119/30 35/118/30 40/117/30