# Made in Blockbench 5.1.5
mtllib rockery_1x1x2.mtl

o cube
v 0.25 1.9375 0.25
v 0.25 1.9375 -0.25
v 0.25 0 0.25
v 0.25 0 -0.25
v -0.1875 1.9375 -0.25
v -0.1875 1.9375 0.25
v -0.1875 0 -0.25
v -0.1875 0 0.25
vt 0.140625 1
vt 0.1953125 1
vt 0.1953125 0.7578125
vt 0.140625 0.7578125
vt 0 1
vt 0.0625 1
vt 0.0625 0.7578125
vt 0 0.7578125
vt 0.203125 1
vt 0.2578125 1
vt 0.2578125 0.7578125
vt 0.203125 0.7578125
vt 0.0703125 1
vt 0.1328125 1
vt 0.1328125 0.7578125
vt 0.0703125 0.7578125
vt 0.1015625 0.5
vt 0.046875 0.5
vt 0.046875 0.5625
vt 0.1015625 0.5625
vt 0.4921875 0.8828125
vt 0.4375 0.8828125
vt 0.4375 0.8203125
vt 0.4921875 0.8203125
vn 0 0 -1
vn 1 0 0
vn 0 0 1
vn -1 0 0
vn 0 1 0
vn 0 -1 0
usemtl m_3a1f1839-10ca-7333-716c-a433a90317fb
f 4/4/1 7/3/1 5/2/1 2/1/1
f 3/8/2 4/7/2 2/6/2 1/5/2
f 8/12/3 3/11/3 1/10/3 6/9/3
f 7/16/4 8/15/4 6/14/4 5/13/4
f 6/20/5 1/19/5 2/18/5 5/17/5
f 7/24/6 4/23/6 3/22/6 8/21/6
o cube
v 0.1875 0.0625 0.5
v 0.1875 0.0625 0.1875
v 0.1875 0 0.5
v 0.1875 0 0.1875
v -0.25 0.0625 0.1875
v -0.25 0.0625 0.5
v -0.25 0 0.1875
v -0.25 0 0.5
vt 0.484375 0.9375
vt 0.5234375 0.9375
vt 0.5234375 0.9296875
vt 0.484375 0.9296875
vt 0.484375 0.953125
vt 0.5390625 0.953125
vt 0.5390625 0.9453125
vt 0.484375 0.9453125
vt 0.484375 0.921875
vt 0.5234375 0.921875
vt 0.5234375 0.9140625
vt 0.484375 0.9140625
vt 0.5234375 0.6171875
vt 0.46875 0.6171875
vt 0.46875 0.578125
vt 0.5234375 0.578125
vn 1 0 0
vn 0 0 1
vn -1 0 0
vn 0 -1 0
usemtl m_3a1f1839-10ca-7333-716c-a433a90317fb
f 11/28/7 12/27/7 10/26/7 9/25/7
f 16/32/8 11/31/8 9/30/8 14/29/8
f 15/36/9 16/35/9 14/34/9 13/33/9
f 15/40/10 12/39/10 11/38/10 16/37/10
o cube
v 0.3125 0.0625 -0.1875
v 0.3125 0.0625 -0.5
v 0.3125 0 -0.1875
v 0.3125 0 -0.5
v -0.25 0.0625 -0.5
v -0.25 0.0625 -0.1875
v -0.25 0 -0.5
v -0.25 0 -0.1875
vt 0.484375 1
vt 0.5546875 1
vt 0.5546875 0.9921875
vt 0.484375 0.9921875
vt 0.484375 0.90625
vt 0.5234375 0.90625
vt 0.5234375 0.8984375
vt 0.484375 0.8984375
vt 0.484375 0.765625
vt 0.5234375 0.765625
vt 0.5234375 0.7578125
vt 0.484375 0.7578125
vt 0.5078125 0.8125
vt 0.4375 0.8125
vt 0.4375 0.7734375
vt 0.5078125 0.7734375
vn 0 0 -1
vn 1 0 0
vn -1 0 0
vn 0 -1 0
usemtl m_3a1f1839-10ca-7333-716c-a433a90317fb
f 20/44/11 23/43/11 21/42/11 18/41/11
f 19/48/12 20/47/12 18/46/12 17/45/12
f 23/52/13 24/51/13 22/50/13 21/49/13
f 23/56/14 20/55/14 19/54/14 24/53/14
o cube
v 0.5 0.0625 0.359375
v 0.5 0.0625 -0.203125
v 0.5 0 0.359375
v 0.5 0 -0.203125
v 0.1875 0.0625 -0.203125
v 0.1875 0.0625 0.359375
v 0.1875 0 -0.203125
v 0.1875 0 0.359375
vt 0.484375 0.75
vt 0.5234375 0.75
vt 0.5234375 0.7421875
vt 0.484375 0.7421875
vt 0.484375 0.984375
vt 0.5546875 0.984375
vt 0.5546875 0.9765625
vt 0.484375 0.9765625
vt 0.484375 0.734375
vt 0.5234375 0.734375
vt 0.5234375 0.7265625
vt 0.484375 0.7265625
vt 0.4765625 0.765625
vt 0.4375 0.765625
vt 0.4375 0.6953125
vt 0.4765625 0.6953125
vn 0 0 -1
vn 1 0 0
vn 0 0 1
vn 0 -1 0
usemtl m_3a1f1839-10ca-7333-716c-a433a90317fb
f 28/60/15 31/59/15 29/58/15 26/57/15
f 27/64/16 28/63/16 26/62/16 25/61/16
f 32/68/17 27/67/17 25/66/17 30/65/17
f 31/72/18 28/71/18 27/70/18 32/69/18
o cube
v 0.3693447072416625 1.6235128462216528 0.296875
v 0.3693447072416625 1.6235128462216528 -0.140625
v 0.4375 0.0625 0.296875
v 0.4375 0.0625 -0.140625
v 0.11958265184619804 1.6126079993803188 -0.140625
v 0.11958265184619804 1.6126079993803188 0.296875
v 0.18773794460453555 0.051595153158666 -0.140625
v 0.18773794460453555 0.051595153158666 0.296875
vt 0.34375 0.625
vt 0.375 0.625
vt 0.375 0.4296875
vt 0.34375 0.4296875
vt 0.140625 0.75
vt 0.1953125 0.75
vt 0.1953125 0.5546875
vt 0.140625 0.5546875
vt 0.3828125 0.625
vt 0.4140625 0.625
vt 0.4140625 0.4296875
vt 0.3828125 0.4296875
vt 0.203125 0.75
vt 0.2578125 0.75
vt 0.2578125 0.5546875
vt 0.203125 0.5546875
vt 0.5 0.46875
vt 0.46875 0.46875
vt 0.46875 0.5234375
vt 0.5 0.5234375
vn 0 0 -1
vn 0.9990482215818578 0.043619387365336 0
vn 0 0 1
vn -0.9990482215818578 -0.043619387365336 0
vn -0.043619387365336 0.9990482215818578 0
usemtl m_3a1f1839-10ca-7333-716c-a433a90317fb
f 36/76/19 39/75/19 37/74/19 34/73/19
f 35/80/20 36/79/20 34/78/20 33/77/20
f 40/84/21 35/83/21 33/82/21 38/81/21
f 39/88/22 40/87/22 38/86/22 37/85/22
f 38/92/23 33/91/23 34/90/23 37/89/23
o cube
v -0.0634027766465709 1.467293708898241 0.1875
v -0.0634027766465709 1.467293708898241 -0.3125
v -0.18868915684632953 0.03526383039135682 0.1875
v -0.18868915684632953 0.03526383039135682 -0.3125
v -0.37471361980024137 1.4945298785068841 -0.3125
v -0.37471361980024137 1.4945298785068841 0.1875
v -0.5 0.0625 -0.3125
v -0.5 0.0625 0.1875
vt 0.34375 1
vt 0.3828125 1
vt 0.3828125 0.8203125
vt 0.34375 0.8203125
vt 0 0.75
vt 0.0625 0.75
vt 0.0625 0.5703125
vt 0 0.5703125
vt 0.34375 0.8125
vt 0.3828125 0.8125
vt 0.3828125 0.6328125
vt 0.34375 0.6328125
vt 0.0703125 0.75
vt 0.1328125 0.75
vt 0.1328125 0.5703125
vt 0.0703125 0.5703125
vt 0.4609375 0.484375
vt 0.421875 0.484375
vt 0.421875 0.546875
vt 0.4609375 0.546875
vn 0 0 -1
vn 0.9961946980917455 -0.08715574274765818 0
vn 0 0 1
vn -0.9961946980917455 0.08715574274765818 0
vn 0.08715574274765818 0.9961946980917455 0
usemtl m_3a1f1839-10ca-7333-716c-a433a90317fb
f 44/96/24 47/95/24 45/94/24 42/93/24
f 43/100/25 44/99/25 42/98/25 41/97/25
f 48/104/26 43/103/26 41/102/26 46/101/26
f 47/108/27 48/107/27 46/106/27 45/105/27
f 46/112/28 41/111/28 42/110/28 45/109/28
o cube
v -0.1875 0.0625 0.1875
v -0.1875 0.0625 -0.3125
v -0.1875 0 0.1875
v -0.1875 0 -0.3125
v -0.5 0.0625 -0.3125
v -0.5 0.0625 0.1875
v -0.5 0 -0.3125
v -0.5 0 0.1875
vt 0.484375 0.71875
vt 0.5234375 0.71875
vt 0.5234375 0.7109375
vt 0.484375 0.7109375
vt 0.484375 0.703125
vt 0.5234375 0.703125
vt 0.5234375 0.6953125
vt 0.484375 0.6953125
vt 0.484375 0.96875
vt 0.546875 0.96875
vt 0.546875 0.9609375
vt 0.484375 0.9609375
vt 0.5078125 0.6875
vt 0.46875 0.6875
vt 0.46875 0.625
vt 0.5078125 0.625
vn 0 0 -1
vn 0 0 1
vn -1 0 0
vn 0 -1 0
usemtl m_3a1f1839-10ca-7333-716c-a433a90317fb
f 52/116/29 55/115/29 53/114/29 50/113/29
f 56/120/30 51/119/30 49/118/30 54/117/30
f 55/124/31 56/123/31 54/122/31 53/121/31
f 55/128/32 52/127/32 51/126/32 56/125/32
o cube
v 0.1875 1.2454812039839478 0.3965025554871559
v 0.1875 1.2182450343753046 0.08519171233348544
v 0.1875 0.0625 0.5
v 0.1875 0.03526383039135682 0.18868915684632953
v -0.25 1.2182450343753046 0.08519171233348544
v -0.25 1.2454812039839478 0.3965025554871559
v -0.25 0.03526383039135682 0.18868915684632953
v -0.25 0.0625 0.5
vt 0.390625 1
vt 0.4296875 1
vt 0.4296875 0.8515625
vt 0.390625 0.8515625
vt 0.265625 0.859375
vt 0.3203125 0.859375
vt 0.3203125 0.7109375
vt 0.265625 0.7109375
vt 0.390625 0.84375
vt 0.4296875 0.84375
vt 0.4296875 0.6953125
vt 0.390625 0.6953125
vt 0.5234375 0.53125
vt 0.46875 0.53125
vt 0.46875 0.5703125
vt 0.5234375 0.5703125
vn 1 0 0
vn 0 0.08715574274765818 0.9961946980917455
vn -1 0 0
vn 0 0.9961946980917455 -0.08715574274765818
usemtl m_3a1f1839-10ca-7333-716c-a433a90317fb
f 59/132/33 60/131/33 58/130/33 57/129/33
f 64/136/34 59/135/34 57/134/34 62/133/34
f 63/140/35 64/139/35 62/138/35 61/137/35
f 62/144/36 57/143/36 58/142/36 61/141/36
o cube
v 0.3125 1.0937206971138365 -0.0960861801769427
v 0.3125 1.1209568667224796 -0.4073970233306132
v 0.3125 0.03526383039135682 -0.18868915684632953
v 0.3125 0.0625 -0.5
v -0.25 1.1209568667224796 -0.4073970233306132
v -0.25 1.0937206971138365 -0.0960861801769427
v -0.25 0.0625 -0.5
v -0.25 0.03526383039135682 -0.18868915684632953
vt 0.265625 1
vt 0.3359375 1
vt 0.3359375 0.8671875
vt 0.265625 0.8671875
vt 0.265625 0.5859375
vt 0.3046875 0.5859375
vt 0.3046875 0.453125
vt 0.265625 0.453125
vt 0.421875 0.6875
vt 0.4609375 0.6875
vt 0.4609375 0.5546875
vt 0.421875 0.5546875
vt 0.1796875 0.5078125
vt 0.109375 0.5078125
vt 0.109375 0.546875
vt 0.1796875 0.546875
vn 0 0.08715574274765818 -0.9961946980917455
vn 1 0 0
vn -1 0 0
vn 0 0.9961946980917455 0.08715574274765818
usemtl m_3a1f1839-10ca-7333-716c-a433a90317fb
f 68/148/37 71/147/37 69/146/37 66/145/37
f 67/152/38 68/151/38 66/150/38 65/149/38
f 71/156/39 72/155/39 70/154/39 69/153/39
f 70/160/40 65/159/40 66/158/40 69/157/40
o cube
v 0.461833036055331 0.9366671938841256 0.359375
v 0.461833036055331 0.9366671938841256 -0.203125
v 0.5 0.0625 0.359375
v 0.5 0.0625 -0.203125
v 0.14963046681100045 0.9230361353324581 -0.203125
v 0.14963046681100045 0.9230361353324581 0.359375
v 0.18779743075566946 0.0488689414483325 -0.203125
v 0.18779743075566946 0.0488689414483325 0.359375
vt 0 0.5625
vt 0.0390625 0.5625
vt 0.0390625 0.453125
vt 0 0.453125
vt 0.265625 0.703125
vt 0.3359375 0.703125
vt 0.3359375 0.59375
vt 0.265625 0.59375
vt 0.4375 1
vt 0.4765625 1
vt 0.4765625 0.890625
vt 0.4375 0.890625
vt 0.2265625 0.4765625
vt 0.1875 0.4765625
vt 0.1875 0.546875
vt 0.2265625 0.546875
vn 0 0 -1
vn 0.9990482215818578 0.043619387365336 0
vn 0 0 1
vn -0.043619387365336 0.9990482215818578 0
usemtl m_3a1f1839-10ca-7333-716c-a433a90317fb
f 76/164/41 79/163/41 77/162/41 74/161/41
f 75/168/42 76/167/42 74/166/42 73/165/42
f 80/172/43 75/171/43 73/170/43 78/169/43
f 78/176/44 73/175/44 74/174/44 77/173/44