# Made in Blockbench 5.1.5
mtllib rockery_1x2x2.mtl

o cube
v 0.25 1.625 1.015625
v 0.25 1.625 0.515625
v 0.25 0 1.015625
v 0.25 0 0.515625
v -0.25 1.625 0.515625
v -0.25 1.625 1.015625
v -0.25 0 0.515625
v -0.25 0 1.015625
vt 0 1
vt 0.0625 1
vt 0.0625 0.796875
vt 0 0.796875
vt 0.0703125 1
vt 0.1328125 1
vt 0.1328125 0.796875
vt 0.0703125 0.796875
vt 0.140625 1
vt 0.203125 1
vt 0.203125 0.796875
vt 0.140625 0.796875
vt 0 0.7890625
vt 0.0625 0.7890625
vt 0.0625 0.5859375
vt 0 0.5859375
vt 0.5703125 0.8515625
vt 0.5078125 0.8515625
vt 0.5078125 0.9140625
vt 0.5703125 0.9140625
vt 0.1875 0.4921875
vt 0.125 0.4921875
vt 0.125 0.4296875
vt 0.1875 0.4296875
vn 0 0 -1
vn 1 0 0
vn 0 0 1
vn -1 0 0
vn 0 1 0
vn 0 -1 0
usemtl m_1b8b4487-5173-2c78-d72a-cf6d9526a38b
f 4/4/1 7/3/1 5/2/1 2/1/1
f 3/8/2 4/7/2 2/6/2 1/5/2
f 8/12/3 3/11/3 1/10/3 6/9/3
f 7/16/4 8/15/4 6/14/4 5/13/4
f 6/20/5 1/19/5 2/18/5 5/17/5
f 7/24/6 4/23/6 3/22/6 8/21/6
o cube
v 0.15625 0.125 1.453125
v 0.15625 0.125 0.890625
v 0.15625 0 1.453125
v 0.15625 0 0.890625
v -0.34375 0.125 0.890625
v -0.34375 0.125 1.453125
v -0.34375 0 0.890625
v -0.34375 0 1.453125
vt 0.5703125 1
vt 0.640625 1
vt 0.640625 0.984375
vt 0.5703125 0.984375
vt 0.5703125 0.796875
vt 0.6328125 0.796875
vt 0.6328125 0.78125
vt 0.5703125 0.78125
vt 0.5703125 0.9765625
vt 0.640625 0.9765625
vt 0.640625 0.9609375
vt 0.5703125 0.9609375
vt 0.5078125 0.8359375
vt 0.4453125 0.8359375
vt 0.4453125 0.765625
vt 0.5078125 0.765625
vn 1 0 0
vn 0 0 1
vn -1 0 0
vn 0 -1 0
usemtl m_1b8b4487-5173-2c78-d72a-cf6d9526a38b
f 11/28/7 12/27/7 10/26/7 9/25/7
f 16/32/8 11/31/8 9/30/8 14/29/8
f 15/36/9 16/35/9 14/34/9 13/33/9
f 15/40/10 12/39/10 11/38/10 16/37/10
o cube
v 0.265625 0.1875 0.140625
v 0.265625 0.1875 -0.484375
v 0.265625 0 0.140625
v 0.265625 0 -0.484375
v -0.234375 0.1875 -0.484375
v -0.234375 0.1875 0.140625
v -0.234375 0 -0.484375
v -0.234375 0 0.140625
vt 0.5625 0.765625
vt 0.625 0.765625
vt 0.625 0.7421875
vt 0.5625 0.7421875
vt 0.2890625 0.453125
vt 0.3671875 0.453125
vt 0.3671875 0.4296875
vt 0.2890625 0.4296875
vt 0.546875 0.4609375
vt 0.625 0.4609375
vt 0.625 0.4375
vt 0.546875 0.4375
vt 0.4921875 0.5703125
vt 0.4296875 0.5703125
vt 0.4296875 0.4921875
vt 0.4921875 0.4921875
vn 0 0 -1
vn 1 0 0
vn -1 0 0
vn 0 -1 0
usemtl m_1b8b4487-5173-2c78-d72a-cf6d9526a38b
f 20/44/11 23/43/11 21/42/11 18/41/11
f 19/48/12 20/47/12 18/46/12 17/45/12
f 23/52/13 24/51/13 22/50/13 21/49/13
f 23/56/14 20/55/14 19/54/14 24/53/14
o cube
v 0.353158033752442 1.1778754690455366 1.125
v 0.353158033752442 1.1778754690455366 0.5625
v 0.5 0.0625 1.125
v 0.5 0.0625 0.5625
v -0.018633789262736844 1.1289281469630172 0.5625
v -0.018633789262736844 1.1289281469630172 1.125
v 0.12820817698482112 0.01355267791748066 0.5625
v 0.12820817698482112 0.01355267791748066 1.125
vt 0.375 0.703125
vt 0.421875 0.703125
vt 0.421875 0.5625
vt 0.375 0.5625
vt 0.296875 0.8203125
vt 0.3671875 0.8203125
vt 0.3671875 0.6796875
vt 0.296875 0.6796875
vt 0.0703125 0.609375
vt 0.1171875 0.609375
vt 0.1171875 0.46875
vt 0.0703125 0.46875
vt 0.5625 0.9296875
vt 0.515625 0.9296875
vt 0.515625 1
vt 0.5625 1
vn 0 0 -1
vn 0.9914448613738104 0.13052619222005157 0
vn 0 0 1
vn -0.13052619222005157 0.9914448613738104 0
usemtl m_1b8b4487-5173-2c78-d72a-cf6d9526a38b
f 28/60/15 31/59/15 29/58/15 26/57/15
f 27/64/16 28/63/16 26/62/16 25/61/16
f 32/68/17 27/67/17 25/66/17 30/65/17
f 30/72/18 25/71/18 26/70/18 29/69/18
o cube
v -0.1875 0.0625 1.078125
v -0.1875 0.0625 0.515625
v -0.1875 0 1.078125
v -0.1875 0 0.515625
v -0.5 0.0625 0.515625
v -0.5 0.0625 1.078125
v -0.5 0 0.515625
v -0.5 0 1.078125
vt 0.5703125 0.4921875
vt 0.609375 0.4921875
vt 0.609375 0.484375
vt 0.5703125 0.484375
vt 0.5703125 0.4765625
vt 0.609375 0.4765625
vt 0.609375 0.46875
vt 0.5703125 0.46875
vt 0.5703125 0.9296875
vt 0.640625 0.9296875
vt 0.640625 0.921875
vt 0.5703125 0.921875
vt 0.5 0.4609375
vt 0.4609375 0.4609375
vt 0.4609375 0.390625
vt 0.5 0.390625
vn 0 0 -1
vn 0 0 1
vn -1 0 0
vn 0 -1 0
usemtl m_1b8b4487-5173-2c78-d72a-cf6d9526a38b
f 36/76/19 39/75/19 37/74/19 34/73/19
f 40/80/20 35/79/20 33/78/20 38/77/20
f 39/84/21 40/83/21 38/82/21 37/81/21
f 39/88/22 36/87/22 35/86/22 40/85/22
o cube
v 0.234375 1.2691858326625043 0.7250890112348702
v 0.234375 1.3560099214959693 0.23268513472876617
v 0.234375 0.03817614139724401 0.5080287891512072
v 0.234375 0.12500023023070916 0.015624912645103226
v -0.328125 1.3560099214959693 0.23268513472876617
v -0.328125 1.2691858326625043 0.7250890112348702
v -0.328125 0.12500023023070916 0.015624912645103226
v -0.328125 0.03817614139724401 0.5080287891512072
vt 0.1484375 0.7890625
vt 0.21875 0.7890625
vt 0.21875 0.6328125
vt 0.1484375 0.6328125
vt 0.359375 1
vt 0.421875 1
vt 0.421875 0.84375
vt 0.359375 0.84375
vt 0.2265625 0.640625
vt 0.2890625 0.640625
vt 0.2890625 0.484375
vt 0.2265625 0.484375
vt 0.3671875 0.4609375
vt 0.296875 0.4609375
vt 0.296875 0.5234375
vt 0.3671875 0.5234375
vt 0.5546875 0.7578125
vt 0.484375 0.7578125
vt 0.484375 0.6953125
vt 0.5546875 0.6953125
vn 0 0.17364817766693033 -0.984807753012208
vn 1 0 0
vn -1 0 0
vn 0 0.984807753012208 0.17364817766693033
vn 0 -0.984807753012208 -0.17364817766693033
usemtl m_1b8b4487-5173-2c78-d72a-cf6d9526a38b
f 44/92/23 47/91/23 45/90/23 42/89/23
f 43/96/24 44/95/24 42/94/24 41/93/24
f 47/100/25 48/99/25 46/98/25 45/97/25
f 46/104/26 41/103/26 42/102/26 45/101/26
f 47/108/27 44/107/27 43/106/27 48/105/27
o cube
v 0.5 0.0625 1.125
v 0.5 0.0625 0.5625
v 0.5 0 1.125
v 0.5 0 0.5625
v 0.125 0.0625 0.5625
v 0.125 0.0625 1.125
v 0.125 0 0.5625
v 0.125 0 1.125
vt 0.5703125 0.5234375
vt 0.6171875 0.5234375
vt 0.6171875 0.515625
vt 0.5703125 0.515625
vt 0.5703125 0.5390625
vt 0.640625 0.5390625
vt 0.640625 0.53125
vt 0.5703125 0.53125
vt 0.5703125 0.5078125
vt 0.6171875 0.5078125
vt 0.6171875 0.5
vt 0.5703125 0.5
vt 0.5625 0.84375
vt 0.515625 0.84375
vt 0.515625 0.7734375
vt 0.5625 0.7734375
vn 0 0 -1
vn 1 0 0
vn 0 0 1
vn 0 -1 0
usemtl m_1b8b4487-5173-2c78-d72a-cf6d9526a38b
f 52/112/28 55/111/28 53/110/28 50/109/28
f 51/116/29 52/115/29 50/114/29 49/113/29
f 56/120/30 51/119/30 49/118/30 54/117/30
f 55/124/31 52/123/31 51/122/31 56/121/31
o cube
v -0.10529681840898941 1.1452439209905236 1.078125
v -0.10529681840898941 1.1452439209905236 0.515625
v -0.2521387846565474 0.029868451944987107 1.078125
v -0.2521387846565474 0.029868451944987107 0.515625
v -0.353158033752442 1.1778754690455366 0.515625
v -0.353158033752442 1.1778754690455366 1.078125
v -0.5 0.0625 0.515625
v -0.5 0.0625 1.078125
vt 0.375 0.5546875
vt 0.40625 0.5546875
vt 0.40625 0.4140625
vt 0.375 0.4140625
vt 0.5 0.6875
vt 0.53125 0.6875
vt 0.53125 0.546875
vt 0.5 0.546875
vt 0.296875 0.671875
vt 0.3671875 0.671875
vt 0.3671875 0.53125
vt 0.296875 0.53125
vt 0.5390625 0.390625
vt 0.5078125 0.390625
vt 0.5078125 0.4609375
vt 0.5390625 0.4609375
vn 0 0 -1
vn 0 0 1
vn -0.9914448613738104 0.13052619222005157 0
vn 0.13052619222005157 0.9914448613738104 0
usemtl m_1b8b4487-5173-2c78-d72a-cf6d9526a38b
f 60/128/32 63/127/32 61/126/32 58/125/32
f 64/132/33 59/131/33 57/130/33 62/129/33
f 63/136/34 64/135/34 62/134/34 61/133/34
f 62/140/35 57/139/35 58/138/35 61/137/35
o cube
v 0.35592112986246777 0.6821530383586315 0.5625
v 0.35592112986246777 0.6821530383586315 -0.0625
v 0.4375 0.0625 0.5625
v 0.4375 0.0625 -0.0625
v 0.046094610683152015 0.6413636032898654 -0.0625
v 0.046094610683152015 0.6413636032898654 0.5625
v 0.12767348082068425 0.021710564931233883 -0.0625
v 0.12767348082068425 0.021710564931233883 0.5625
vt 0.4140625 0.484375
vt 0.453125 0.484375
vt 0.453125 0.40625
vt 0.4140625 0.40625
vt 0.4296875 1
vt 0.5078125 1
vt 0.5078125 0.921875
vt 0.4296875 0.921875
vt 0.1953125 0.4765625
vt 0.234375 0.4765625
vt 0.234375 0.3984375
vt 0.1953125 0.3984375
vt 0.28125 0.3984375
vt 0.2421875 0.3984375
vt 0.2421875 0.4765625
vt 0.28125 0.4765625
vn 0 0 -1
vn 0.9914448613738104 0.13052619222005157 0
vn 0 0 1
vn -0.13052619222005157 0.9914448613738104 0
usemtl m_1b8b4487-5173-2c78-d72a-cf6d9526a38b
f 68/144/36 71/143/36 69/142/36 66/141/36
f 67/148/37 68/147/37 66/146/37 65/145/37
f 72/152/38 67/151/38 65/150/38 70/149/38
f 70/156/39 65/155/39 66/154/39 69/153/39
o cube
v 0.4375 0.0625 0.5625
v 0.4375 0.0625 -0.0625
v 0.4375 0 0.5625
v 0.4375 0 -0.0625
v 0.125 0.0625 -0.0625
v 0.125 0.0625 0.5625
v 0.125 0 -0.0625
v 0.125 0 0.5625
vt 0.546875 0.4296875
vt 0.5859375 0.4296875
vt 0.5859375 0.421875
vt 0.546875 0.421875
vt 0.5625 0.703125
vt 0.640625 0.703125
vt 0.640625 0.6953125
vt 0.5625 0.6953125
vt 0.578125 0.9140625
vt 0.6171875 0.9140625
vt 0.6171875 0.90625
vt 0.578125 0.90625
vt 0.09375 0.4609375
vt 0.0546875 0.4609375
vt 0.0546875 0.3828125
vt 0.09375 0.3828125
vn 0 0 -1
vn 1 0 0
vn 0 0 1
vn 0 -1 0
usemtl m_1b8b4487-5173-2c78-d72a-cf6d9526a38b
f 76/160/40 79/159/40 77/158/40 74/157/40
f 75/164/41 76/163/41 74/162/41 73/161/41
f 80/168/42 75/167/42 73/166/42 78/165/42
f 79/172/43 76/171/43 75/170/43 80/169/43
o cube
v 0.15625 1.467406792630091 1.1555207848400713
v 0.15625 1.3456595097899082 0.6063542808351086
v 0.15625 0.12499978284018291 1.4531252540049626
v 0.15625 0.003252500000000016 0.90395875
v -0.34375 1.3456595097899082 0.6063542808351086
v -0.34375 1.467406792630091 1.1555207848400713
v -0.34375 0.003252500000000016 0.90395875
v -0.34375 0.12499978284018291 1.4531252540049626
vt 0.2265625 0.8203125
vt 0.2890625 0.8203125
vt 0.2890625 0.6484375
vt 0.2265625 0.6484375
vt 0.2109375 1
vt 0.28125 1
vt 0.28125 0.828125
vt 0.2109375 0.828125
vt 0.2890625 1
vt 0.3515625 1
vt 0.3515625 0.828125
vt 0.2890625 0.828125
vt 0.0703125 0.7890625
vt 0.140625 0.7890625
vt 0.140625 0.6171875
vt 0.0703125 0.6171875
vt 0.5625 0.46875
vt 0.5 0.46875
vt 0.5 0.5390625
vt 0.5625 0.5390625
vn 0 -0.21643961393810288 -0.9762960071199334
vn 1 0 0
vn 0 0.21643961393810288 0.9762960071199334
vn -1 0 0
vn 0 0.9762960071199334 -0.21643961393810288
usemtl m_1b8b4487-5173-2c78-d72a-cf6d9526a38b
f 84/176/44 87/175/44 85/174/44 82/173/44
f 83/180/45 84/179/45 82/178/45 81/177/45
f 88/184/46 83/183/46 81/182/46 86/181/46
f 87/188/47 88/187/47 86/186/47 85/185/47
f 86/192/48 81/191/48 82/190/48 85/189/48
o cube
v 0.234375 0.125 0.578125
v 0.234375 0.125 0.015625
v 0.234375 0 0.578125
v 0.234375 0 0.015625
v -0.328125 0.125 0.015625
v -0.328125 0.125 0.578125
v -0.328125 0 0.015625
v -0.328125 0 0.578125
vt 0.5703125 0.953125
vt 0.640625 0.953125
vt 0.640625 0.9375
vt 0.5703125 0.9375
vt 0.5703125 0.84375
vt 0.640625 0.84375
vt 0.640625 0.828125
vt 0.5703125 0.828125
vt 0.5703125 0.8203125
vt 0.640625 0.8203125
vt 0.640625 0.8046875
vt 0.5703125 0.8046875
vt 0.5 0.9140625
vt 0.4296875 0.9140625
vt 0.4296875 0.84375
vt 0.5 0.84375
vn 0 0 -1
vn 1 0 0
vn -1 0 0
vn 0 -1 0
usemtl m_1b8b4487-5173-2c78-d72a-cf6d9526a38b
f 92/196/49 95/195/49 93/194/49 90/193/49
f 91/200/50 92/199/50 90/198/50 89/197/50
f 95/204/51 96/203/51 94/202/51 93/201/51
f 95/208/52 92/207/52 91/206/52 96/205/52
o cube
v 0.265625 0.8660254037844387 0.3403845264191645
v 0.265625 1.0535254037844388 0.015624999999999944
v 0.265625 0.18750012618263717 0.14062478144526158
v 0.265625 0.1875 -0.484375
v -0.234375 0.8660254037844387 0.3403845264191645
v -0.234375 1.0535254037844388 0.015624999999999944
v -0.234375 0.18750012618263717 0.14062478144526158
v -0.234375 0.1875 -0.484375
vt 0.375 0.7109375
vt 0.375 0.8359375
vt 0.42452890625 0.8359375
vt 0.4453125 0.75
vt 0.497501171875 0.6169921875
vt 0.476717578125 0.7029296875
vt 0.429842578125 0.7029296875
vt 0.429842578125 0.5779296875
vt 0.5390625 0.6875
vt 0.5390625 0.640625
vt 0.6015625 0.640625
vt 0.6015625 0.6875
vt 0.5390625 0.5859375
vt 0.6015625 0.5859375
vt 0.6015625 0.6328125
vt 0.5390625 0.6328125
vt 0 0.453125
vt 0 0.578125
vt 0.046875 0.578125
vt 0.046875 0.453125
vt 0.2109375 0.5
vt 0.2109375 0.625
vt 0.1484375 0.625
vt 0.1484375 0.5
vn 1 0 0
vn -1 0 0
vn 0 0.8660254037844387 0.49999999999999994
vn 0 -0.9999999999999797 2.0189228999711872e-7
vn 0 -0.28241808439664695 0.9592914184989505
vn 0 0.49999999999999994 -0.8660254037844387
usemtl m_1b8b4487-5173-2c78-d72a-cf6d9526a38b
f 100/209/53 98/210/53 97/211/53 99/212/53
f 103/213/54 101/214/54 102/215/54 104/216/54
f 97/217/55 98/218/55 102/219/55 101/220/55
f 100/221/56 99/222/56 103/223/56 104/224/56
f 99/225/57 97/226/57 101/227/57 103/228/57
f 104/229/58 102/230/58 98/231/58 100/232/58