# Made in Blockbench 5.1.5
mtllib rockery_1x1x3.mtl

o cube
v 0.25 1 0.25
v 0.25 1 -0.25
v 0.25 0 0.25
v 0.25 0 -0.25
v -0.25 1 -0.25
v -0.25 1 0.25
v -0.25 0 -0.25
v -0.25 0 0.25
vt 0 0.765625
vt 0.0625 0.765625
vt 0.0625 0.640625
vt 0 0.640625
vt 0.0625 0.765625
vt 0.125 0.765625
vt 0.125 0.640625
vt 0.0625 0.640625
vt 0.125 0.765625
vt 0.1875 0.765625
vt 0.1875 0.640625
vt 0.125 0.640625
vt 0.1875 0.765625
vt 0.25 0.765625
vt 0.25 0.640625
vt 0.1875 0.640625
vt 0.546875 0.9375
vt 0.484375 0.9375
vt 0.484375 1
vt 0.546875 1
vt 0.546875 0.9375
vt 0.484375 0.9375
vt 0.484375 0.875
vt 0.546875 0.875
vn 0 0 -1
vn 1 0 0
vn 0 0 1
vn -1 0 0
vn 0 1 0
vn 0 -1 0
usemtl m_91f464ee-b967-d78b-d209-24783606c318
f 4/4/1 7/3/1 5/2/1 2/1/1
f 3/8/2 4/7/2 2/6/2 1/5/2
f 8/12/3 3/11/3 1/10/3 6/9/3
f 7/16/4 8/15/4 6/14/4 5/13/4
f 6/20/5 1/19/5 2/18/5 5/17/5
f 7/24/6 4/23/6 3/22/6 8/21/6
o cube
v 0.25 0.0625 0.5
v 0.25 0.0625 0.1875
v 0.25 0 0.5
v 0.25 0 0.1875
v -0.3125 0.0625 0.1875
v -0.3125 0.0625 0.5
v -0.3125 0 0.1875
v -0.3125 0 0.5
vt 0.46875 0.484375
vt 0.5078125 0.484375
vt 0.5078125 0.4765625
vt 0.46875 0.4765625
vt 0.140625 0.484375
vt 0.2109375 0.484375
vt 0.2109375 0.4765625
vt 0.140625 0.4765625
vt 0.46875 0.4765625
vt 0.5078125 0.4765625
vt 0.5078125 0.46875
vt 0.46875 0.46875
vt 0.5546875 0.875
vt 0.484375 0.875
vt 0.484375 0.8359375
vt 0.5546875 0.8359375
vn 1 0 0
vn 0 0 1
vn -1 0 0
vn 0 -1 0
usemtl m_91f464ee-b967-d78b-d209-24783606c318
f 11/28/7 12/27/7 10/26/7 9/25/7
f 16/32/8 11/31/8 9/30/8 14/29/8
f 15/36/9 16/35/9 14/34/9 13/33/9
f 15/40/10 12/39/10 11/38/10 16/37/10
o cube
v 0.375 0.0625 -0.1875
v 0.375 0.0625 -0.5
v 0.375 0 -0.1875
v 0.375 0 -0.5
v -0.1875 0.0625 -0.5
v -0.1875 0.0625 -0.1875
v -0.1875 0 -0.5
v -0.1875 0 -0.1875
vt 0.140625 0.4765625
vt 0.2109375 0.4765625
vt 0.2109375 0.46875
vt 0.140625 0.46875
vt 0.46875 0.46875
vt 0.5078125 0.46875
vt 0.5078125 0.4609375
vt 0.46875 0.4609375
vt 0.5078125 0.46875
vt 0.546875 0.46875
vt 0.546875 0.4609375
vt 0.5078125 0.4609375
vt 0.5546875 0.8359375
vt 0.484375 0.8359375
vt 0.484375 0.796875
vt 0.5546875 0.796875
vn 0 0 -1
vn 1 0 0
vn -1 0 0
vn 0 -1 0
usemtl m_91f464ee-b967-d78b-d209-24783606c318
f 20/44/11 23/43/11 21/42/11 18/41/11
f 19/48/12 20/47/12 18/46/12 17/45/12
f 23/52/13 24/51/13 22/50/13 21/49/13
f 23/56/14 20/55/14 19/54/14 24/53/14
o cube
v 0.5 0.0625 0.359375
v 0.5 0.0625 -0.203125
v 0.5 0 0.359375
v 0.5 0 -0.203125
v 0.1875 0.0625 -0.203125
v 0.1875 0.0625 0.359375
v 0.1875 0 -0.203125
v 0.1875 0 0.359375
vt 0.140625 0.4609375
vt 0.1796875 0.4609375
vt 0.1796875 0.453125
vt 0.140625 0.453125
vt 0.140625 0.46875
vt 0.2109375 0.46875
vt 0.2109375 0.4609375
vt 0.140625 0.4609375
vt 0.3671875 0.4609375
vt 0.40625 0.4609375
vt 0.40625 0.453125
vt 0.3671875 0.453125
vt 0.2890625 0.5
vt 0.25 0.5
vt 0.25 0.4296875
vt 0.2890625 0.4296875
vn 0 0 -1
vn 1 0 0
vn 0 0 1
vn 0 -1 0
usemtl m_91f464ee-b967-d78b-d209-24783606c318
f 28/60/15 31/59/15 29/58/15 26/57/15
f 27/64/16 28/63/16 26/62/16 25/61/16
f 32/68/17 27/67/17 25/66/17 30/65/17
f 31/72/18 28/71/18 27/70/18 32/69/18
o cube
v 0.4036859625277632 1.9997049093655082 0.296875
v 0.4036859625277632 1.9997049093655082 -0.140625
v 0.4375 0.0625 0.296875
v 0.4375 0.0625 -0.140625
v 0.15372403873866536 1.9953418077561873 -0.140625
v 0.15372403873866536 1.9953418077561873 0.296875
v 0.18753807621090218 0.05813689839067912 -0.140625
v 0.18753807621090218 0.05813689839067912 0.296875
vt 0.3671875 0.7109375
vt 0.3984375 0.7109375
vt 0.3984375 0.46875
vt 0.3671875 0.46875
vt 0.3125 0.9609375
vt 0.3671875 0.9609375
vt 0.3671875 0.71875
vt 0.3125 0.71875
vt 0.3984375 0.7109375
vt 0.4296875 0.7109375
vt 0.4296875 0.46875
vt 0.3984375 0.46875
vt 0.3125 0.6796875
vt 0.3671875 0.6796875
vt 0.3671875 0.4375
vt 0.3125 0.4375
vt 0.5390625 0.46875
vt 0.5078125 0.46875
vt 0.5078125 0.5234375
vt 0.5390625 0.5234375
vn 0 0 -1
vn 0.9998476951563913 0.01745240643728351 0
vn 0 0 1
vn -0.9998476951563913 -0.01745240643728351 0
vn -0.01745240643728351 0.9998476951563913 0
usemtl m_91f464ee-b967-d78b-d209-24783606c318
f 36/76/19 39/75/19 37/74/19 34/73/19
f 35/80/20 36/79/20 34/78/20 33/77/20
f 40/84/21 35/83/21 33/82/21 38/81/21
f 39/88/22 40/87/22 38/86/22 37/85/22
f 38/92/23 33/91/23 34/90/23 37/89/23
o cube
v -0.14690425510066696 0.9854766491813243 0.1875
v -0.14690425510066696 0.9854766491813243 -0.3125
v -0.18779743075566946 0.0488689414483325 0.1875
v -0.18779743075566946 0.0488689414483325 -0.3125
v -0.4591068243449975 0.9991077077329917 -0.3125
v -0.4591068243449975 0.9991077077329917 0.1875
v -0.5 0.0625 -0.3125
v -0.5 0.0625 0.1875
vt 0.2109375 0.5078125
vt 0.25 0.5078125
vt 0.25 0.390625
vt 0.2109375 0.390625
vt 0.25 0.8671875
vt 0.3125 0.8671875
vt 0.3125 0.75
vt 0.25 0.75
vt 0.3671875 0.8671875
vt 0.40625 0.8671875
vt 0.40625 0.75
vt 0.3671875 0.75
vt 0.25 0.6171875
vt 0.3125 0.6171875
vt 0.3125 0.5
vt 0.25 0.5
vt 0.546875 0.5859375
vt 0.5078125 0.5859375
vt 0.5078125 0.6484375
vt 0.546875 0.6484375
vn 0 0 -1
vn 0.9990482215818578 -0.043619387365336 0
vn 0 0 1
vn -0.9990482215818578 0.043619387365336 0
vn 0.043619387365336 0.9990482215818578 0
usemtl m_91f464ee-b967-d78b-d209-24783606c318
f 44/96/24 47/95/24 45/94/24 42/93/24
f 43/100/25 44/99/25 42/98/25 41/97/25
f 48/104/26 43/103/26 41/102/26 46/101/26
f 47/108/27 48/107/27 46/106/27 45/105/27
f 46/112/28 41/111/28 42/110/28 45/109/28
o cube
v -0.1875 0.0625 0.1875
v -0.1875 0.0625 -0.3125
v -0.1875 0 0.1875
v -0.1875 0 -0.3125
v -0.5 0.0625 -0.3125
v -0.5 0.0625 0.1875
v -0.5 0 -0.3125
v -0.5 0 0.1875
vt 0.46875 0.4609375
vt 0.5078125 0.4609375
vt 0.5078125 0.453125
vt 0.46875 0.453125
vt 0.5390625 0.5234375
vt 0.578125 0.5234375
vt 0.578125 0.515625
vt 0.5390625 0.515625
vt 0.3671875 0.46875
vt 0.4296875 0.46875
vt 0.4296875 0.4609375
vt 0.3671875 0.4609375
vt 0.546875 0.5859375
vt 0.5078125 0.5859375
vt 0.5078125 0.5234375
vt 0.546875 0.5234375
vn 0 0 -1
vn 0 0 1
vn -1 0 0
vn 0 -1 0
usemtl m_91f464ee-b967-d78b-d209-24783606c318
f 52/116/29 55/115/29 53/114/29 50/113/29
f 56/120/30 51/119/30 49/118/30 54/117/30
f 55/124/31 56/123/31 54/122/31 53/121/31
f 55/128/32 52/127/32 51/126/32 56/125/32
o cube
v 0.25 0.9991077077329917 0.4591068243449975
v 0.25 0.9854766491813243 0.14690425510066696
v 0.25 0.0625 0.5
v 0.25 0.0488689414483325 0.18779743075566946
v -0.3125 0.9854766491813243 0.14690425510066696
v -0.3125 0.9991077077329917 0.4591068243449975
v -0.3125 0.0488689414483325 0.18779743075566946
v -0.3125 0.0625 0.5
vt 0.40625 0.8984375
vt 0.4453125 0.8984375
vt 0.4453125 0.78125
vt 0.40625 0.78125
vt 0 0.5390625
vt 0.0703125 0.5390625
vt 0.0703125 0.421875
vt 0 0.421875
vt 0.4296875 0.6796875
vt 0.46875 0.6796875
vt 0.46875 0.5625
vt 0.4296875 0.5625
vt 0.578125 0.7578125
vt 0.5078125 0.7578125
vt 0.5078125 0.796875
vt 0.578125 0.796875
vn 1 0 0
vn 0 0.043619387365336 0.9990482215818578
vn -1 0 0
vn 0 0.9990482215818578 -0.043619387365336
usemtl m_91f464ee-b967-d78b-d209-24783606c318
f 59/132/33 60/131/33 58/130/33 57/129/33
f 64/136/34 59/135/34 57/134/34 62/133/34
f 63/140/35 64/139/35 62/138/35 61/137/35
f 62/144/36 57/143/36 58/142/36 61/141/36
o cube
v 0.375 0.9854766491813243 -0.14690425510066696
v 0.375 0.9991077077329917 -0.4591068243449975
v 0.375 0.0488689414483325 -0.18779743075566946
v 0.375 0.0625 -0.5
v -0.1875 0.9991077077329917 -0.4591068243449975
v -0.1875 0.9854766491813243 -0.14690425510066696
v -0.1875 0.0625 -0.5
v -0.1875 0.0488689414483325 -0.18779743075566946
vt 0.0703125 0.5546875
vt 0.140625 0.5546875
vt 0.140625 0.4375
vt 0.0703125 0.4375
vt 0.4296875 0.4765625
vt 0.46875 0.4765625
vt 0.46875 0.359375
vt 0.4296875 0.359375
vt 0.4453125 0.9140625
vt 0.484375 0.9140625
vt 0.484375 0.796875
vt 0.4453125 0.796875
vt 0.578125 0.71875
vt 0.5078125 0.71875
vt 0.5078125 0.7578125
vt 0.578125 0.7578125
vn 0 0.043619387365336 -0.9990482215818578
vn 1 0 0
vn -1 0 0
vn 0 0.9990482215818578 0.043619387365336
usemtl m_91f464ee-b967-d78b-d209-24783606c318
f 68/148/37 71/147/37 69/146/37 66/145/37
f 67/152/38 68/151/38 66/150/38 65/149/38
f 71/156/39 72/155/39 70/154/39 69/153/39
f 70/160/40 65/159/40 66/158/40 69/157/40
o cube
v 0.4836383689650467 0.9998572142091168 0.359375
v 0.4836383689650467 0.9998572142091168 -0.203125
v 0.5 0.0625 0.359375
v 0.5 0.0625 -0.203125
v 0.17118596422867444 0.9944033371974657 -0.203125
v 0.17118596422867444 0.9944033371974657 0.359375
v 0.18754759526362774 0.0570461229883489 -0.203125
v 0.18754759526362774 0.0570461229883489 0.359375
vt 0.46875 0.7578125
vt 0.5078125 0.7578125
vt 0.5078125 0.640625
vt 0.46875 0.640625
vt 0.140625 0.6015625
vt 0.2109375 0.6015625
vt 0.2109375 0.484375
vt 0.140625 0.484375
vt 0.46875 0.6015625
vt 0.5078125 0.6015625
vt 0.5078125 0.484375
vt 0.46875 0.484375
vt 0.546875 0.6484375
vt 0.5078125 0.6484375
vt 0.5078125 0.71875
vt 0.546875 0.71875
vn 0 0 -1
vn 0.9998476951563913 0.01745240643728351 0
vn 0 0 1
vn -0.01745240643728351 0.9998476951563913 0
usemtl m_91f464ee-b967-d78b-d209-24783606c318
f 76/164/41 79/163/41 77/162/41 74/161/41
f 75/168/42 76/167/42 74/166/42 73/165/42
f 80/172/43 75/171/43 73/170/43 78/169/43
f 78/176/44 73/175/44 74/174/44 77/173/44
o cube
v 0.3982320855161121 2.3121573141018805 0.296875
v 0.3982320855161121 2.3121573141018805 -0.140625
v 0.4036859625277632 1.9997049093655082 0.296875
v 0.4036859625277632 1.9997049093655082 -0.140625
v 0.1482701617270143 2.3077942124925594 -0.140625
v 0.1482701617270143 2.3077942124925594 0.296875
v 0.15372403873866536 1.9953418077561873 -0.140625
v 0.15372403873866536 1.9953418077561873 0.296875
vt 0.3671875 0.75
vt 0.3984375 0.75
vt 0.3984375 0.7109375
vt 0.3671875 0.7109375
vt 0.3125 1
vt 0.3671875 1
vt 0.3671875 0.9609375
vt 0.3125 0.9609375
vt 0.3984375 0.75
vt 0.4296875 0.75
vt 0.4296875 0.7109375
vt 0.3984375 0.7109375
vt 0.3125 0.71875
vt 0.3671875 0.71875
vt 0.3671875 0.6796875
vt 0.3125 0.6796875
vt 0.5390625 0.46875
vt 0.5078125 0.46875
vt 0.5078125 0.5234375
vt 0.5390625 0.5234375
vn 0 0 -1
vn 0.9998476951563913 0.01745240643728351 0
vn 0 0 1
vn -0.9998476951563913 -0.01745240643728351 0
vn -0.01745240643728351 0.9998476951563913 0
usemtl m_91f464ee-b967-d78b-d209-24783606c318
f 84/180/45 87/179/45 85/178/45 82/177/45
f 83/184/46 84/183/46 82/182/46 81/181/46
f 88/188/47 83/187/47 81/186/47 86/185/47
f 87/192/48 88/191/48 86/190/48 85/189/48
f 86/196/49 81/195/49 82/194/49 85/193/49
o cube
v 0.25 2.875 0.25
v 0.25 2.875 -0.25
v 0.25 2 0.25
v 0.25 2 -0.25
v -0.25 2.875 -0.25
v -0.25 2.875 0.25
v -0.25 2 -0.25
v -0.25 2 0.25
vt 0 1
vt 0.0625 1
vt 0.0625 0.890625
vt 0 0.890625
vt 0.0625 1
vt 0.125 1
vt 0.125 0.890625
vt 0.0625 0.890625
vt 0.125 1
vt 0.1875 1
vt 0.1875 0.890625
vt 0.125 0.890625
vt 0.1875 1
vt 0.25 1
vt 0.25 0.890625
vt 0.1875 0.890625
vt 0.546875 0.9375
vt 0.484375 0.9375
vt 0.484375 1
vt 0.546875 1
vt 0.546875 0.9375
vt 0.484375 0.9375
vt 0.484375 0.875
vt 0.546875 0.875
vn 0 0 -1
vn 1 0 0
vn 0 0 1
vn -1 0 0
vn 0 1 0
vn 0 -1 0
usemtl m_91f464ee-b967-d78b-d209-24783606c318
f 92/200/50 95/199/50 93/198/50 90/197/50
f 91/204/51 92/203/51 90/202/51 89/201/51
f 96/208/52 91/207/52 89/206/52 94/205/52
f 95/212/53 96/211/53 94/210/53 93/209/53
f 94/216/54 89/215/54 90/214/54 93/213/54
f 95/220/55 92/219/55 91/218/55 96/217/55
o cube
v -0.10055865602499747 2.046965384612048 0.1875
v -0.10055865602499747 2.046965384612048 -0.3125
v -0.10328486773533097 1.984524870763182 0.1875
v -0.10328486773533097 1.984524870763182 -0.3125
v -0.412761225269328 2.060596443163716 -0.3125
v -0.412761225269328 2.060596443163716 0.1875
v -0.4154874369796615 1.9981559293148494 -0.3125
v -0.4154874369796615 1.9981559293148494 0.1875
vt 0.2109375 0.640625
vt 0.25 0.640625
vt 0.25 0.6328125
vt 0.2109375 0.6328125
vt 0.25 1
vt 0.3125 1
vt 0.3125 0.9921875
vt 0.25 0.9921875
vt 0.3671875 1
vt 0.40625 1
vt 0.40625 0.9921875
vt 0.3671875 0.9921875
vt 0.25 0.75
vt 0.3125 0.75
vt 0.3125 0.7421875
vt 0.25 0.7421875
vt 0.546875 0.5859375
vt 0.5078125 0.5859375
vt 0.5078125 0.6484375
vt 0.546875 0.6484375
vn 0 0 -1
vn 0.9990482215818578 -0.043619387365336 0
vn 0 0 1
vn -0.9990482215818578 0.043619387365336 0
vn 0.043619387365336 0.9990482215818578 0
usemtl m_91f464ee-b967-d78b-d209-24783606c318
f 100/224/56 103/223/56 101/222/56 98/221/56
f 99/228/57 100/227/57 98/226/57 97/225/57
f 104/232/58 99/231/58 97/230/58 102/229/58
f 103/236/59 104/235/59 102/234/59 101/233/59
f 102/240/60 97/239/60 98/238/60 101/237/60
o cube
v -0.10328486773533097 1.984524870763182 0.1875
v -0.10328486773533097 1.984524870763182 -0.3125
v -0.14690425510066696 0.9854766491813243 0.1875
v -0.14690425510066696 0.9854766491813243 -0.3125
v -0.4154874369796615 1.9981559293148494 -0.3125
v -0.4154874369796615 1.9981559293148494 0.1875
v -0.4591068243449975 0.9991077077329917 -0.3125
v -0.4591068243449975 0.9991077077329917 0.1875
vt 0.2109375 0.6328125
vt 0.25 0.6328125
vt 0.25 0.5078125
vt 0.2109375 0.5078125
vt 0.25 0.9921875
vt 0.3125 0.9921875
vt 0.3125 0.8671875
vt 0.25 0.8671875
vt 0.3671875 0.9921875
vt 0.40625 0.9921875
vt 0.40625 0.8671875
vt 0.3671875 0.8671875
vt 0.25 0.7421875
vt 0.3125 0.7421875
vt 0.3125 0.6171875
vt 0.25 0.6171875
vt 0.546875 0.5859375
vt 0.5078125 0.5859375
vt 0.5078125 0.6484375
vt 0.546875 0.6484375
vn 0 0 -1
vn 0.9990482215818578 -0.043619387365336 0
vn 0 0 1
vn -0.9990482215818578 0.043619387365336 0
vn 0.043619387365336 0.9990482215818578 0
usemtl m_91f464ee-b967-d78b-d209-24783606c318
f 108/244/61 111/243/61 109/242/61 106/241/61
f 107/248/62 108/247/62 106/246/62 105/245/62
f 112/252/63 107/251/63 105/250/63 110/249/63
f 111/256/64 112/255/64 110/254/64 109/253/64
f 110/260/65 105/259/65 106/258/65 109/257/65
o cube
v 0.47818449195339563 1.312309618945489 0.359375
v 0.47818449195339563 1.312309618945489 -0.203125
v 0.4836383689650467 0.9998572142091168 0.359375
v 0.4836383689650467 0.9998572142091168 -0.203125
v 0.16573208721702337 1.306855741933838 -0.203125
v 0.16573208721702337 1.306855741933838 0.359375
v 0.17118596422867444 0.9944033371974657 -0.203125
v 0.17118596422867444 0.9944033371974657 0.359375
vt 0.46875 0.796875
vt 0.5078125 0.796875
vt 0.5078125 0.7578125
vt 0.46875 0.7578125
vt 0.140625 0.640625
vt 0.2109375 0.640625
vt 0.2109375 0.6015625
vt 0.140625 0.6015625
vt 0.46875 0.640625
vt 0.5078125 0.640625
vt 0.5078125 0.6015625
vt 0.46875 0.6015625
vt 0.546875 0.6484375
vt 0.5078125 0.6484375
vt 0.5078125 0.71875
vt 0.546875 0.71875
vn 0 0 -1
vn 0.9998476951563913 0.01745240643728351 0
vn 0 0 1
vn -0.01745240643728351 0.9998476951563913 0
usemtl m_91f464ee-b967-d78b-d209-24783606c318
f 116/264/66 119/263/66 117/262/66 114/261/66
f 115/268/67 116/267/67 114/266/67 113/265/67
f 120/272/68 115/271/68 113/270/68 118/269/68
f 118/276/69 113/275/69 114/274/69 117/273/69
o cube
v 0.25 2 0.25
v 0.25 2 -0.25
v 0.25 1 0.25
v 0.25 1 -0.25
v -0.25 2 -0.25
v -0.25 2 0.25
v -0.25 1 -0.25
v -0.25 1 0.25
vt 0 0.890625
vt 0.0625 0.890625
vt 0.0625 0.765625
vt 0 0.765625
vt 0.0625 0.890625
vt 0.125 0.890625
vt 0.125 0.765625
vt 0.0625 0.765625
vt 0.125 0.890625
vt 0.1875 0.890625
vt 0.1875 0.765625
vt 0.125 0.765625
vt 0.1875 0.890625
vt 0.25 0.890625
vt 0.25 0.765625
vt 0.1875 0.765625
vt 0.546875 0.9375
vt 0.484375 0.9375
vt 0.484375 1
vt 0.546875 1
vt 0.546875 0.9375
vt 0.484375 0.9375
vt 0.484375 0.875
vt 0.546875 0.875
vn 0 0 -1
vn 1 0 0
vn 0 0 1
vn -1 0 0
vn 0 1 0
vn 0 -1 0
usemtl m_91f464ee-b967-d78b-d209-24783606c318
f 124/280/70 127/279/70 125/278/70 122/277/70
f 123/284/71 124/283/71 122/282/71 121/281/71
f 128/288/72 123/287/72 121/286/72 126/285/72
f 127/292/73 128/291/73 126/290/73 125/289/73
f 126/296/74 121/295/74 122/294/74 125/293/74
f 127/300/75 124/299/75 123/298/75 128/297/75
o cube
v 0.375 1.6723223015188515 -0.11691592628699843
v 0.375 1.685953360070519 -0.42911849553132897
v 0.375 0.9854766491813243 -0.14690425510066696
v 0.375 0.9991077077329917 -0.4591068243449975
v -0.1875 1.685953360070519 -0.42911849553132897
v -0.1875 1.6723223015188515 -0.11691592628699843
v -0.1875 0.9991077077329917 -0.4591068243449975
v -0.1875 0.9854766491813243 -0.14690425510066696
vt 0.0703125 0.640625
vt 0.140625 0.640625
vt 0.140625 0.5546875
vt 0.0703125 0.5546875
vt 0.4296875 0.5625
vt 0.46875 0.5625
vt 0.46875 0.4765625
vt 0.4296875 0.4765625
vt 0.4453125 1
vt 0.484375 1
vt 0.484375 0.9140625
vt 0.4453125 0.9140625
vt 0.578125 0.71875
vt 0.5078125 0.71875
vt 0.5078125 0.7578125
vt 0.578125 0.7578125
vn 0 0.043619387365336 -0.9990482215818578
vn 1 0 0
vn -1 0 0
vn 0 0.9990482215818578 0.043619387365336
usemtl m_91f464ee-b967-d78b-d209-24783606c318
f 132/304/76 135/303/76 133/302/76 130/301/76
f 131/308/77 132/307/77 130/306/77 129/305/77
f 135/312/78 136/311/78 134/310/78 133/309/78
f 134/316/79 129/315/79 130/314/79 133/313/79
o cube
v 0.25 1.8108343877682511 0.423666072110662
v 0.25 1.7972033292165837 0.11146350286633144
v 0.25 0.9991077077329917 0.4591068243449975
v 0.25 0.9854766491813243 0.14690425510066696
v -0.3125 1.7972033292165837 0.11146350286633144
v -0.3125 1.8108343877682511 0.423666072110662
v -0.3125 0.9854766491813243 0.14690425510066696
v -0.3125 0.9991077077329917 0.4591068243449975
vt 0.40625 1
vt 0.4453125 1
vt 0.4453125 0.8984375
vt 0.40625 0.8984375
vt 0 0.640625
vt 0.0703125 0.640625
vt 0.0703125 0.5390625
vt 0 0.5390625
vt 0.4296875 0.78125
vt 0.46875 0.78125
vt 0.46875 0.6796875
vt 0.4296875 0.6796875
vt 0.578125 0.7578125
vt 0.5078125 0.7578125
vt 0.5078125 0.796875
vt 0.578125 0.796875
vn 1 0 0
vn 0 0.043619387365336 0.9990482215818578
vn -1 0 0
vn 0 0.9990482215818578 -0.043619387365336
usemtl m_91f464ee-b967-d78b-d209-24783606c318
f 139/320/80 140/319/80 138/318/80 137/317/80
f 144/324/81 139/323/81 137/322/81 142/321/81
f 143/328/82 144/327/82 142/326/82 141/325/82
f 142/332/83 137/331/83 138/330/83 141/329/83