# Generated by Shadows And Petals
mtllib material.mtl
o rockery
usemtl rockery
v 0.75 0 0.25
v 0.3125 0 0.25
v 0.3125 0.9375 0.25
vt 0.140625 0.8828125
vt 0.1953125 0.8828125
vt 0.1953125 1
vn 0 0 -1
vn 0 0 -1
vn 0 0 -1
f 1/1/1 2/2/2 3/3/3
v 0.75 0 0.25
v 0.3125 0.9375 0.25
v 0.75 0.9375 0.25
vt 0.140625 0.8828125
vt 0.1953125 1
vt 0.140625 1
vn 0 0 -1
vn 0 0 -1
vn 0 0 -1
f 4/4/4 5/5/5 6/6/6
v 0.75 0 0.75
v 0.75 0 0.25
v 0.75 0.9375 0.25
vt 0 0.8828125
vt 0.0625 0.8828125
vt 0.0625 1
vn 1 0 0
vn 1 0 0
vn 1 0 0
f 7/7/7 8/8/8 9/9/9
v 0.75 0 0.75
v 0.75 0.9375 0.25
v 0.75 0.9375 0.75
vt 0 0.8828125
vt 0.0625 1
vt 0 1
vn 1 0 0
vn 1 0 0
vn 1 0 0
f 10/10/10 11/11/11 12/12/12
v 0.3125 0 0.75
v 0.75 0 0.75
v 0.75 0.9375 0.75
vt 0.203125 0.8828125
vt 0.2578125 0.8828125
vt 0.2578125 1
vn 0 0 1
vn 0 0 1
vn 0 0 1
f 13/13/13 14/14/14 15/15/15
v 0.3125 0 0.75
v 0.75 0.9375 0.75
v 0.3125 0.9375 0.75
vt 0.203125 0.8828125
vt 0.2578125 1
vt 0.203125 1
vn 0 0 1
vn 0 0 1
vn 0 0 1
f 16/16/16 17/17/17 18/18/18
v 0.3125 0 0.25
v 0.3125 0 0.75
v 0.3125 0.9375 0.75
vt 0.0703125 0.8828125
vt 0.1328125 0.8828125
vt 0.1328125 1
vn -1 0 0
vn -1 0 0
vn -1 0 0
f 19/19/19 20/20/20 21/21/21
v 0.3125 0 0.25
v 0.3125 0.9375 0.75
v 0.3125 0.9375 0.25
vt 0.0703125 0.8828125
vt 0.1328125 1
vt 0.0703125 1
vn -1 0 0
vn -1 0 0
vn -1 0 0
f 22/22/22 23/23/23 24/24/24
v 0.3125 0.9375 0.75
v 0.75 0.9375 0.75
v 0.75 0.9375 0.25
vt 0.1015625 0.5625
vt 0.046875 0.5625
vt 0.046875 0.5
vn 0 1 0
vn 0 1 0
vn 0 1 0
f 25/25/25 26/26/26 27/27/27
v 0.3125 0.9375 0.75
v 0.75 0.9375 0.25
v 0.3125 0.9375 0.25
vt 0.1015625 0.5625
vt 0.046875 0.5
vt 0.1015625 0.5
vn 0 1 0
vn 0 1 0
vn 0 1 0
f 28/28/28 29/29/29 30/30/30
v 0.89656787 0 0.359375
v 0.64632969 0 0.359375
v 0.61958265 0.612608 0.359375
vt 0.34375 0.54698664
vt 0.375 0.54835105
vt 0.375 0.625
vn 0 0 -1
vn 0 0 -1
vn 0 0 -1
f 31/31/31 32/32/32 33/33/33
v 0.89656787 0 0.359375
v 0.61958265 0.612608 0.359375
v 0.86934471 0.62351285 0.359375
vt 0.34375 0.54698664
vt 0.375 0.625
vt 0.34375 0.625
vn 0 0 -1
vn 0 0 -1
vn 0 0 -1
f 34/34/34 35/35/35 36/36/36
v 0.89656787 0 0.796875
v 0.89656787 0 0.359375
v 0.86934471 0.62351285 0.359375
vt 0.140625 0.67198664
vt 0.1953125 0.67198664
vt 0.1953125 0.75
vn 0.99904822 0.04361939 0
vn 0.99904822 0.04361939 0
vn 0.99904822 0.04361939 0
f 37/37/37 38/38/38 39/39/39
v 0.89656787 0 0.796875
v 0.86934471 0.62351285 0.359375
v 0.86934471 0.62351285 0.796875
vt 0.140625 0.67198664
vt 0.1953125 0.75
vt 0.140625 0.75
vn 0.99904822 0.04361939 0
vn 0.99904822 0.04361939 0
vn 0.99904822 0.04361939 0
f 40/40/40 41/41/41 42/42/42
v 0.64632969 0 0.796875
v 0.89656787 0 0.796875
v 0.86934471 0.62351285 0.796875
vt 0.3828125 0.54835105
vt 0.4140625 0.54698664
vt 0.4140625 0.625
vn 0 0 1
vn 0 0 1
vn 0 0 1
f 43/43/43 44/44/44 45/45/45
v 0.64632969 0 0.796875
v 0.86934471 0.62351285 0.796875
v 0.61958265 0.612608 0.796875
vt 0.3828125 0.54835105
vt 0.4140625 0.625
vt 0.3828125 0.625
vn 0 0 1
vn 0 0 1
vn 0 0 1
f 46/46/46 47/47/47 48/48/48
v 0.64632969 0 0.359375
v 0.64632969 0 0.796875
v 0.61958265 0.612608 0.796875
vt 0.203125 0.67335105
vt 0.2578125 0.67335105
vt 0.2578125 0.75
vn -0.99904822 -0.04361939 0
vn -0.99904822 -0.04361939 0
vn -0.99904822 -0.04361939 0
f 49/49/49 50/50/50 51/51/51
v 0.64632969 0 0.359375
v 0.61958265 0.612608 0.796875
v 0.61958265 0.612608 0.359375
vt 0.203125 0.67335105
vt 0.2578125 0.75
vt 0.203125 0.75
vn -0.99904822 -0.04361939 0
vn -0.99904822 -0.04361939 0
vn -0.99904822 -0.04361939 0
f 52/52/52 53/53/53 54/54/54
v 0.61958265 0.612608 0.796875
v 0.86934471 0.62351285 0.796875
v 0.86934471 0.62351285 0.359375
vt 0.5 0.5234375
vt 0.46875 0.5234375
vt 0.46875 0.46875
vn -0.04361939 0.99904822 0
vn -0.04361939 0.99904822 0
vn -0.04361939 0.99904822 0
f 55/55/55 56/56/56 57/57/57
v 0.61958265 0.612608 0.796875
v 0.86934471 0.62351285 0.359375
v 0.61958265 0.612608 0.359375
vt 0.5 0.5234375
vt 0.46875 0.46875
vt 0.5 0.46875
vn -0.04361939 0.99904822 0
vn -0.04361939 0.99904822 0
vn -0.04361939 0.99904822 0
f 58/58/58 59/59/59 60/60/60
v 0.39571432 0 0.1875
v 0.08202062 0 0.1875
v 0.12528638 0.49452988 0.1875
vt 0.34375 0.94136516
vt 0.3828125 0.93794764
vt 0.3828125 1
vn 0 0 -1
vn 0 0 -1
vn 0 0 -1
f 61/61/61 62/62/62 63/63/63
v 0.39571432 0 0.1875
v 0.12528638 0.49452988 0.1875
v 0.43659722 0.46729371 0.1875
vt 0.34375 0.94136516
vt 0.3828125 1
vt 0.34375 1
vn 0 0 -1
vn 0 0 -1
vn 0 0 -1
f 64/64/64 65/65/65 66/66/66
v 0.39571432 0 0.6875
v 0.39571432 0 0.1875
v 0.43659722 0.46729371 0.1875
vt 0 0.69136516
vt 0.0625 0.69136516
vt 0.0625 0.75
vn 0.9961947 -0.08715574 0
vn 0.9961947 -0.08715574 0
vn 0.9961947 -0.08715574 0
f 67/67/67 68/68/68 69/69/69
v 0.39571432 0 0.6875
v 0.43659722 0.46729371 0.1875
v 0.43659722 0.46729371 0.6875
vt 0 0.69136516
vt 0.0625 0.75
vt 0 0.75
vn 0.9961947 -0.08715574 0
vn 0.9961947 -0.08715574 0
vn 0.9961947 -0.08715574 0
f 70/70/70 71/71/71 72/72/72
v 0.08202062 0 0.6875
v 0.39571432 0 0.6875
v 0.43659722 0.46729371 0.6875
vt 0.34375 0.75044764
vt 0.3828125 0.75386516
vt 0.3828125 0.8125
vn 0 0 1
vn 0 0 1
vn 0 0 1
f 73/73/73 74/74/74 75/75/75
v 0.08202062 0 0.6875
v 0.43659722 0.46729371 0.6875
v 0.12528638 0.49452988 0.6875
vt 0.34375 0.75044764
vt 0.3828125 0.8125
vt 0.34375 0.8125
vn 0 0 1
vn 0 0 1
vn 0 0 1
f 76/76/76 77/77/77 78/78/78
v 0.08202062 0 0.1875
v 0.08202062 0 0.6875
v 0.12528638 0.49452988 0.6875
vt 0.0703125 0.68794764
vt 0.1328125 0.68794764
vt 0.1328125 0.75
vn -0.9961947 0.08715574 0
vn -0.9961947 0.08715574 0
vn -0.9961947 0.08715574 0
f 79/79/79 80/80/80 81/81/81
v 0.08202062 0 0.1875
v 0.12528638 0.49452988 0.6875
v 0.12528638 0.49452988 0.1875
vt 0.0703125 0.68794764
vt 0.1328125 0.75
vt 0.0703125 0.75
vn -0.9961947 0.08715574 0
vn -0.9961947 0.08715574 0
vn -0.9961947 0.08715574 0
f 82/82/82 83/83/83 84/84/84
v 0.12528638 0.49452988 0.6875
v 0.43659722 0.46729371 0.6875
v 0.43659722 0.46729371 0.1875
vt 0.4609375 0.546875
vt 0.421875 0.546875
vt 0.421875 0.484375
vn 0.08715574 0.9961947 0
vn 0.08715574 0.9961947 0
vn 0.08715574 0.9961947 0
f 85/85/85 86/86/86 87/87/87
v 0.12528638 0.49452988 0.6875
v 0.43659722 0.46729371 0.1875
v 0.12528638 0.49452988 0.1875
vt 0.4609375 0.546875
vt 0.421875 0.484375
vt 0.4609375 0.484375
vn 0.08715574 0.9961947 0
vn 0.08715574 0.9961947 0
vn 0.08715574 0.9961947 0
f 88/88/88 89/89/89 90/90/90
v 0.6875 0 0.91797938
v 0.6875 0 0.60428568
v 0.6875 0.21824503 0.58519171
vt 0.390625 0.96919764
vt 0.4296875 0.97261516
vt 0.4296875 1
vn 1 0 0
vn 1 0 0
vn 1 0 0
f 91/91/91 92/92/92 93/93/93
v 0.6875 0 0.91797938
v 0.6875 0.21824503 0.58519171
v 0.6875 0.2454812 0.89650256
vt 0.390625 0.96919764
vt 0.4296875 1
vt 0.390625 1
vn 1 0 0
vn 1 0 0
vn 1 0 0
f 94/94/94 95/95/95 96/96/96
v 0.25 0 0.91797938
v 0.6875 0 0.91797938
v 0.6875 0.2454812 0.89650256
vt 0.265625 0.82857264
vt 0.3203125 0.82857264
vt 0.3203125 0.859375
vn 0 0.08715574 0.9961947
vn 0 0.08715574 0.9961947
vn 0 0.08715574 0.9961947
f 97/97/97 98/98/98 99/99/99
v 0.25 0 0.91797938
v 0.6875 0.2454812 0.89650256
v 0.25 0.2454812 0.89650256
vt 0.265625 0.82857264
vt 0.3203125 0.859375
vt 0.265625 0.859375
vn 0 0.08715574 0.9961947
vn 0 0.08715574 0.9961947
vn 0 0.08715574 0.9961947
f 100/100/100 101/101/101 102/102/102
v 0.25 0 0.60428568
v 0.25 0 0.91797938
v 0.25 0.2454812 0.89650256
vt 0.390625 0.81636516
vt 0.4296875 0.81294764
vt 0.4296875 0.84375
vn -1 0 0
vn -1 0 0
vn -1 0 0
f 103/103/103 104/104/104 105/105/105
v 0.25 0 0.60428568
v 0.25 0.2454812 0.89650256
v 0.25 0.21824503 0.58519171
vt 0.390625 0.81636516
vt 0.4296875 0.84375
vt 0.390625 0.84375
vn -1 0 0
vn -1 0 0
vn -1 0 0
f 106/106/106 107/107/107 108/108/108
v 0.25 0.2454812 0.89650256
v 0.6875 0.2454812 0.89650256
v 0.6875 0.21824503 0.58519171
vt 0.5234375 0.5703125
vt 0.46875 0.5703125
vt 0.46875 0.53125
vn 0 0.9961947 -0.08715574
vn 0 0.9961947 -0.08715574
vn 0 0.9961947 -0.08715574
f 109/109/109 110/110/110 111/111/111
v 0.25 0.2454812 0.89650256
v 0.6875 0.21824503 0.58519171
v 0.25 0.21824503 0.58519171
vt 0.5234375 0.5703125
vt 0.46875 0.53125
vt 0.5234375 0.53125
vn 0 0.9961947 -0.08715574
vn 0 0.9961947 -0.08715574
vn 0 0.9961947 -0.08715574
f 112/112/112 113/113/113 114/114/114
v 0.8125 0 0.08202062
v 0.25 0 0.08202062
v 0.25 0.12095687 0.09260298
vt 0.265625 0.98482264
vt 0.3359375 0.98482264
vt 0.3359375 1
vn 0 0.08715574 -0.9961947
vn 0 0.08715574 -0.9961947
vn 0 0.08715574 -0.9961947
f 115/115/115 116/116/116 117/117/117
v 0.8125 0 0.08202062
v 0.25 0.12095687 0.09260298
v 0.8125 0.12095687 0.09260298
vt 0.265625 0.98482264
vt 0.3359375 1
vt 0.265625 1
vn 0 0.08715574 -0.9961947
vn 0 0.08715574 -0.9961947
vn 0 0.08715574 -0.9961947
f 118/118/118 119/119/119 120/120/120
v 0.8125 0 0.39571432
v 0.8125 0 0.08202062
v 0.8125 0.12095687 0.09260298
vt 0.265625 0.57417766
vt 0.3046875 0.57076014
vt 0.3046875 0.5859375
vn 1 0 0
vn 1 0 0
vn 1 0 0
f 121/121/121 122/122/122 123/123/123
v 0.8125 0 0.39571432
v 0.8125 0.12095687 0.09260298
v 0.8125 0.0937207 0.40391382
vt 0.265625 0.57417766
vt 0.3046875 0.5859375
vt 0.265625 0.5859375
vn 1 0 0
vn 1 0 0
vn 1 0 0
f 124/124/124 125/125/125 126/126/126
v 0.25 0 0.08202062
v 0.25 0 0.39571432
v 0.25 0.0937207 0.40391382
vt 0.421875 0.67232264
vt 0.4609375 0.67574016
vt 0.4609375 0.6875
vn -1 0 0
vn -1 0 0
vn -1 0 0
f 127/127/127 128/128/128 129/129/129
v 0.25 0 0.08202062
v 0.25 0.0937207 0.40391382
v 0.25 0.12095687 0.09260298
vt 0.421875 0.67232264
vt 0.4609375 0.6875
vt 0.421875 0.6875
vn -1 0 0
vn -1 0 0
vn -1 0 0
f 130/130/130 131/131/131 132/132/132
v 0.25 0.0937207 0.40391382
v 0.8125 0.0937207 0.40391382
v 0.8125 0.12095687 0.09260298
vt 0.1796875 0.546875
vt 0.109375 0.546875
vt 0.109375 0.5078125
vn 0 0.9961947 0.08715574
vn 0 0.9961947 0.08715574
vn 0 0.9961947 0.08715574
f 133/133/133 134/134/134 135/135/135
v 0.25 0.0937207 0.40391382
v 0.8125 0.12095687 0.09260298
v 0.25 0.12095687 0.09260298
vt 0.1796875 0.546875
vt 0.109375 0.5078125
vt 0.1796875 0.5078125
vn 0 0.9961947 0.08715574
vn 0 0.9961947 0.08715574
vn 0 0.9961947 0.08715574
f 136/136/136 137/137/137 138/138/138
